<?xml version="1.0" encoding="UTF-8" standalone="no"?>
<!-- Created with matplotlib (http://matplotlib.org/) -->

<svg
   xmlns:dc="http://purl.org/dc/elements/1.1/"
   xmlns:cc="http://creativecommons.org/ns#"
   xmlns:rdf="http://www.w3.org/1999/02/22-rdf-syntax-ns#"
   xmlns:svg="http://www.w3.org/2000/svg"
   xmlns="http://www.w3.org/2000/svg"
   xmlns:sodipodi="http://sodipodi.sourceforge.net/DTD/sodipodi-0.dtd"
   xmlns:inkscape="http://www.inkscape.org/namespaces/inkscape"
   height="5in"
   version="1.1"
   viewBox="0 0 288 360"
   width="4in"
   id="svg2"
   inkscape:version="0.48.4 r9939"
   sodipodi:docname="5networkpath.svg"
   inkscape:export-filename="/home/anon/Dropbox/programs/distributed_least_squares_estimation/paper/figures/5networkpath.png"
   inkscape:export-xdpi="300"
   inkscape:export-ydpi="300">
  <metadata
     id="metadata80">
    <rdf:RDF>
      <cc:Work
         rdf:about="">
        <dc:format>image/svg+xml</dc:format>
        <dc:type
           rdf:resource="http://purl.org/dc/dcmitype/StillImage" />
        <dc:title></dc:title>
      </cc:Work>
    </rdf:RDF>
  </metadata>
  <sodipodi:namedview
     pagecolor="#ffffff"
     bordercolor="#666666"
     borderopacity="1"
     objecttolerance="10"
     gridtolerance="10"
     guidetolerance="10"
     inkscape:pageopacity="0"
     inkscape:pageshadow="2"
     inkscape:window-width="1321"
     inkscape:window-height="716"
     id="namedview78"
     showgrid="false"
     units="in"
     width="0in"
     inkscape:zoom="0.67666191"
     inkscape:cx="278.123"
     inkscape:cy="306.09265"
     inkscape:window-x="117"
     inkscape:window-y="107"
     inkscape:window-maximized="0"
     inkscape:current-layer="figure_1" />
  <defs
     id="defs4"
     style="stroke-linecap:butt;stroke-linejoin:round">
    <style
       type="text/css"
       id="style6">
*{stroke-linecap:butt;stroke-linejoin:round;}
  </style>
  </defs>
  <g
     id="figure_1"
     style="stroke-linecap:butt;stroke-linejoin:round"
     transform="translate(0,-71.999988)">
    <path
       inkscape:connector-curvature="0"
       id="path10"
       style="fill:#ffffff;stroke-linecap:butt;stroke-linejoin:round"
       d="m 3.2497618,411.44641 282.5312382,0 0,-324.156734 -282.5312382,0 z" />
    <g
       style="stroke-linecap:butt;stroke-linejoin:round"
       id="patch_2"
       transform="translate(-122.41163,38.802012)">
      <path
         inkscape:connector-curvature="0"
         id="path14"
         style="fill:#bf00bf;stroke:#bf00bf;stroke-width:3;stroke-linecap:butt;stroke-linejoin:miter"
         d="m 334.07434,93.09051 c 0.88217,0 1.72833,-0.35049 2.35212,-0.97428 0.62379,-0.623789 0.97428,-1.469948 0.97428,-2.35212 0,-0.882171 -0.35049,-1.72833 -0.97428,-2.35212 -0.62379,-0.623789 -1.46995,-0.97428 -2.35212,-0.97428 -0.88217,0 -1.72833,0.350491 -2.35212,0.97428 -0.62379,0.62379 -0.97428,1.469949 -0.97428,2.35212 0,0.882172 0.35049,1.728331 0.97428,2.35212 0.62379,0.62379 1.46995,0.97428 2.35212,0.97428 z"
         clip-path="url(#p6d958be6c1)" />
    </g>
    <g
       style="stroke-linecap:butt;stroke-linejoin:round"
       id="patch_3"
       transform="translate(-122.41163,38.802012)">
      <path
         inkscape:connector-curvature="0"
         id="path17"
         style="opacity:0.2;fill:#0000ff;stroke:#0000ff;stroke-width:3;stroke-linecap:butt;stroke-linejoin:miter"
         d="m 334.07434,106.39611 c 4.41086,0 8.64166,-1.75245 11.7606,-4.8714 3.11895,-3.118947 4.8714,-7.349742 4.8714,-11.7606 0,-4.410858 -1.75245,-8.641652 -4.8714,-11.7606 -3.11894,-3.118947 -7.34974,-4.8714 -11.7606,-4.8714 -4.41086,0 -8.64165,1.752453 -11.7606,4.8714 -3.11895,3.118948 -4.8714,7.349742 -4.8714,11.7606 0,4.410858 1.75245,8.641653 4.8714,11.7606 3.11895,3.11895 7.34974,4.8714 11.7606,4.8714 z"
         clip-path="url(#p6d958be6c1)" />
    </g>
    <g
       style="stroke-linecap:butt;stroke-linejoin:round"
       id="patch_4"
       transform="translate(-122.41163,38.802012)">
      <path
         inkscape:connector-curvature="0"
         id="path20"
         style="fill:#bf00bf;stroke:#bf00bf;stroke-width:3;stroke-linecap:butt;stroke-linejoin:miter"
         d="m 305.0073,238.0478 c 0.88217,0 1.72833,-0.35049 2.35212,-0.97428 0.62379,-0.62378 0.97428,-1.46994 0.97428,-2.35212 0,-0.88217 -0.35049,-1.72833 -0.97428,-2.35212 -0.62379,-0.62378 -1.46995,-0.97428 -2.35212,-0.97428 -0.88217,0 -1.72833,0.3505 -2.35212,0.97428 -0.62379,0.62379 -0.97428,1.46995 -0.97428,2.35212 0,0.88218 0.35049,1.72834 0.97428,2.35212 0.62379,0.62379 1.46995,0.97428 2.35212,0.97428 z"
         clip-path="url(#p6d958be6c1)" />
    </g>
    <g
       style="stroke-linecap:butt;stroke-linejoin:round"
       id="patch_5"
       transform="translate(-122.41163,38.802012)">
      <path
         inkscape:connector-curvature="0"
         id="path23"
         style="opacity:0.2;fill:#0000ff;stroke:#0000ff;stroke-width:3;stroke-linecap:butt;stroke-linejoin:miter"
         d="m 305.0073,251.3534 c 4.41086,0 8.64165,-1.75245 11.7606,-4.8714 3.11895,-3.11894 4.8714,-7.34974 4.8714,-11.7606 0,-4.41085 -1.75245,-8.64165 -4.8714,-11.7606 -3.11895,-3.11894 -7.34974,-4.8714 -11.7606,-4.8714 -4.41086,0 -8.64165,1.75246 -11.7606,4.8714 -3.11895,3.11895 -4.8714,7.34975 -4.8714,11.7606 0,4.41086 1.75245,8.64166 4.8714,11.7606 3.11895,3.11895 7.34974,4.8714 11.7606,4.8714 z"
         clip-path="url(#p6d958be6c1)" />
    </g>
    <g
       style="stroke-linecap:butt;stroke-linejoin:round"
       id="patch_6"
       transform="translate(-122.41163,38.802012)">
      <path
         inkscape:connector-curvature="0"
         id="path26"
         style="fill:#bf00bf;stroke:#bf00bf;stroke-width:3;stroke-linecap:butt;stroke-linejoin:miter"
         d="m 263.65677,240.93663 c 0.88217,0 1.72833,-0.35049 2.35212,-0.97428 0.62379,-0.62379 0.97428,-1.46995 0.97428,-2.35212 0,-0.88217 -0.35049,-1.72833 -0.97428,-2.35212 -0.62379,-0.62379 -1.46995,-0.97428 -2.35212,-0.97428 -0.88217,0 -1.72833,0.35049 -2.35212,0.97428 -0.62379,0.62379 -0.97428,1.46995 -0.97428,2.35212 0,0.88217 0.35049,1.72833 0.97428,2.35212 0.62379,0.62379 1.46995,0.97428 2.35212,0.97428 z"
         clip-path="url(#p6d958be6c1)" />
    </g>
    <g
       style="stroke-linecap:butt;stroke-linejoin:round"
       id="patch_7"
       transform="translate(-122.41163,38.802012)">
      <path
         inkscape:connector-curvature="0"
         id="path29"
         style="opacity:0.2;fill:#0000ff;stroke:#0000ff;stroke-width:3;stroke-linecap:butt;stroke-linejoin:miter"
         d="m 263.65677,254.24223 c 4.41086,0 8.64166,-1.75245 11.7606,-4.8714 3.11895,-3.11895 4.8714,-7.34974 4.8714,-11.7606 0,-4.41086 -1.75245,-8.64165 -4.8714,-11.7606 -3.11894,-3.11895 -7.34974,-4.8714 -11.7606,-4.8714 -4.41085,0 -8.64165,1.75245 -11.7606,4.8714 -3.11894,3.11895 -4.8714,7.34974 -4.8714,11.7606 0,4.41086 1.75246,8.64165 4.8714,11.7606 3.11895,3.11895 7.34975,4.8714 11.7606,4.8714 z"
         clip-path="url(#p6d958be6c1)" />
    </g>
    <g
       style="stroke-linecap:butt;stroke-linejoin:round"
       id="patch_8"
       transform="translate(-122.41163,38.802012)">
      <path
         inkscape:connector-curvature="0"
         id="path32"
         style="fill:#bf00bf;stroke:#bf00bf;stroke-width:3;stroke-linecap:butt;stroke-linejoin:miter"
         d="m 280.69898,329.98359 c 0.88217,0 1.72833,-0.35049 2.35212,-0.97428 0.62379,-0.62379 0.97428,-1.46995 0.97428,-2.35212 0,-0.88217 -0.35049,-1.72833 -0.97428,-2.35212 -0.62379,-0.62379 -1.46995,-0.97428 -2.35212,-0.97428 -0.88217,0 -1.72833,0.35049 -2.35212,0.97428 -0.62379,0.62379 -0.97428,1.46995 -0.97428,2.35212 0,0.88217 0.35049,1.72833 0.97428,2.35212 0.62379,0.62379 1.46995,0.97428 2.35212,0.97428 z"
         clip-path="url(#p6d958be6c1)" />
    </g>
    <g
       style="stroke-linecap:butt;stroke-linejoin:round"
       id="patch_9"
       transform="translate(-122.41163,38.802012)">
      <path
         inkscape:connector-curvature="0"
         id="path35"
         style="opacity:0.2;fill:#0000ff;stroke:#0000ff;stroke-width:3;stroke-linecap:butt;stroke-linejoin:miter"
         d="m 280.69898,343.28919 c 4.41086,0 8.64165,-1.75245 11.7606,-4.8714 3.11895,-3.11895 4.8714,-7.34974 4.8714,-11.7606 0,-4.41086 -1.75245,-8.64165 -4.8714,-11.7606 -3.11895,-3.11895 -7.34974,-4.8714 -11.7606,-4.8714 -4.41086,0 -8.64165,1.75245 -11.7606,4.8714 -3.11895,3.11895 -4.8714,7.34974 -4.8714,11.7606 0,4.41086 1.75245,8.64165 4.8714,11.7606 3.11895,3.11895 7.34974,4.8714 11.7606,4.8714 z"
         clip-path="url(#p6d958be6c1)" />
    </g>
    <g
       style="stroke-linecap:butt;stroke-linejoin:round"
       id="patch_10"
       transform="translate(-122.41163,38.802012)">
      <path
         inkscape:connector-curvature="0"
         id="path38"
         style="fill:#bf00bf;stroke:#bf00bf;stroke-width:3;stroke-linecap:butt;stroke-linejoin:miter"
         d="m 185.94635,258.21365 c 0.88217,0 1.72833,-0.35049 2.35212,-0.97428 0.62379,-0.62379 0.97428,-1.46995 0.97428,-2.35212 0,-0.88217 -0.35049,-1.72833 -0.97428,-2.35212 -0.62379,-0.62379 -1.46995,-0.97428 -2.35212,-0.97428 -0.88217,0 -1.72833,0.35049 -2.35212,0.97428 -0.62379,0.62379 -0.97428,1.46995 -0.97428,2.35212 0,0.88217 0.35049,1.72833 0.97428,2.35212 0.62379,0.62379 1.46995,0.97428 2.35212,0.97428 z"
         clip-path="url(#p6d958be6c1)" />
    </g>
    <g
       style="stroke-linecap:butt;stroke-linejoin:round"
       id="patch_11"
       transform="translate(-122.41163,38.802012)">
      <path
         inkscape:connector-curvature="0"
         id="path41"
         style="opacity:0.2;fill:#0000ff;stroke:#0000ff;stroke-width:3;stroke-linecap:butt;stroke-linejoin:miter"
         d="m 185.94635,271.51925 c 4.41086,0 8.64165,-1.75245 11.7606,-4.8714 3.11895,-3.11895 4.8714,-7.34974 4.8714,-11.7606 0,-4.41086 -1.75245,-8.64165 -4.8714,-11.7606 -3.11895,-3.11895 -7.34974,-4.8714 -11.7606,-4.8714 -4.41086,0 -8.64165,1.75245 -11.7606,4.8714 -3.11895,3.11895 -4.8714,7.34974 -4.8714,11.7606 0,4.41086 1.75245,8.64165 4.8714,11.7606 3.11895,3.11895 7.34974,4.8714 11.7606,4.8714 z"
         clip-path="url(#p6d958be6c1)" />
    </g>
    <g
       style="stroke-linecap:butt;stroke-linejoin:round"
       id="line2d_1"
       transform="translate(-122.41163,38.802012)">
      <path
         inkscape:connector-curvature="0"
         id="path44"
         style="opacity:0.2;fill:none;stroke:#0000ff;stroke-width:1.5;stroke-linecap:butt;stroke-linejoin:round;stroke-dasharray:2.2, 2.2;stroke-dashoffset:0"
         d="M 334.07434,89.76411 305.0073,234.7214"
         clip-path="url(#p6d958be6c1)" />
    </g>
    <g
       style="stroke-linecap:butt;stroke-linejoin:round"
       id="line2d_2"
       transform="translate(-122.41163,38.802012)">
      <path
         inkscape:connector-curvature="0"
         id="path47"
         style="opacity:0.2;fill:none;stroke:#0000ff;stroke-width:1.5;stroke-linecap:butt;stroke-linejoin:round;stroke-dasharray:2.2, 2.2;stroke-dashoffset:0"
         d="M 305.0073,234.7214 334.07434,89.76411"
         clip-path="url(#p6d958be6c1)" />
    </g>
    <g
       style="stroke-linecap:butt;stroke-linejoin:round"
       id="line2d_3"
       transform="translate(-122.41163,38.802012)">
      <path
         inkscape:connector-curvature="0"
         id="path50"
         style="opacity:0.2;fill:none;stroke:#0000ff;stroke-width:1.5;stroke-linecap:butt;stroke-linejoin:round;stroke-dasharray:2.2, 2.2;stroke-dashoffset:0"
         d="M 334.07434,89.76411 185.94635,254.88725"
         clip-path="url(#p6d958be6c1)" />
    </g>
    <g
       style="stroke-linecap:butt;stroke-linejoin:round"
       id="line2d_4"
       transform="translate(-122.41163,38.802012)">
      <path
         inkscape:connector-curvature="0"
         id="path53"
         style="opacity:0.2;fill:none;stroke:#0000ff;stroke-width:1.5;stroke-linecap:butt;stroke-linejoin:round;stroke-dasharray:2.2, 2.2;stroke-dashoffset:0"
         d="M 185.94635,254.88725 334.07434,89.76411"
         clip-path="url(#p6d958be6c1)" />
    </g>
    <g
       style="stroke-linecap:butt;stroke-linejoin:round"
       id="line2d_5"
       transform="translate(-122.41163,38.802012)">
      <path
         inkscape:connector-curvature="0"
         id="path56"
         style="opacity:0.2;fill:none;stroke:#0000ff;stroke-width:1.5;stroke-linecap:butt;stroke-linejoin:round;stroke-dasharray:2.2, 2.2;stroke-dashoffset:0"
         d="m 305.0073,234.7214 -41.35053,2.88883"
         clip-path="url(#p6d958be6c1)" />
    </g>
    <g
       style="stroke-linecap:butt;stroke-linejoin:round"
       id="line2d_6"
       transform="translate(-122.41163,38.802012)">
      <path
         inkscape:connector-curvature="0"
         id="path59"
         style="opacity:0.2;fill:none;stroke:#0000ff;stroke-width:1.5;stroke-linecap:butt;stroke-linejoin:round;stroke-dasharray:2.2, 2.2;stroke-dashoffset:0"
         d="M 263.65677,237.61023 305.0073,234.7214"
         clip-path="url(#p6d958be6c1)" />
    </g>
    <g
       style="stroke-linecap:butt;stroke-linejoin:round"
       id="line2d_7"
       transform="translate(-122.41163,38.802012)">
      <path
         inkscape:connector-curvature="0"
         id="path62"
         style="opacity:0.2;fill:none;stroke:#0000ff;stroke-width:1.5;stroke-linecap:butt;stroke-linejoin:round;stroke-dasharray:2.2, 2.2;stroke-dashoffset:0"
         d="m 263.65677,237.61023 17.04221,89.04696"
         clip-path="url(#p6d958be6c1)" />
    </g>
    <g
       style="stroke-linecap:butt;stroke-linejoin:round"
       id="line2d_8"
       transform="translate(-122.41163,38.802012)">
      <path
         inkscape:connector-curvature="0"
         id="path65"
         style="opacity:0.2;fill:none;stroke:#0000ff;stroke-width:1.5;stroke-linecap:butt;stroke-linejoin:round;stroke-dasharray:2.2, 2.2;stroke-dashoffset:0"
         d="M 280.69898,326.65719 263.65677,237.61023"
         clip-path="url(#p6d958be6c1)" />
    </g>
    <g
       style="stroke-linecap:butt;stroke-linejoin:round"
       id="line2d_9"
       transform="translate(-122.41163,38.802012)">
      <path
         inkscape:connector-curvature="0"
         id="path68"
         style="opacity:0.2;fill:none;stroke:#0000ff;stroke-width:1.5;stroke-linecap:butt;stroke-linejoin:round;stroke-dasharray:2.2, 2.2;stroke-dashoffset:0"
         d="M 280.69898,326.65719 185.94635,254.88725"
         clip-path="url(#p6d958be6c1)" />
    </g>
    <g
       style="stroke-linecap:butt;stroke-linejoin:round"
       id="line2d_10"
       transform="translate(-122.41163,38.802012)">
      <path
         inkscape:connector-curvature="0"
         id="path71"
         style="opacity:0.2;fill:none;stroke:#0000ff;stroke-width:1.5;stroke-linecap:butt;stroke-linejoin:round;stroke-dasharray:2.2, 2.2;stroke-dashoffset:0"
         d="m 185.94635,254.88725 94.75263,71.76994"
         clip-path="url(#p6d958be6c1)" />
    </g>
  </g>
  <defs
     id="defs73">
    <clipPath
       id="p6d958be6c1"
       style="stroke-linecap:butt;stroke-linejoin:round">
      <rect
         height="332.64001"
         width="446.39999"
         x="72"
         y="51.84"
         id="rect76"
         style="stroke-linecap:butt;stroke-linejoin:round" />
    </clipPath>
  </defs>
</svg>
