<?xml version="1.0" encoding="UTF-8" standalone="no"?>
<!-- Created with Inkscape (http://www.inkscape.org/) -->

<svg
   xmlns:dc="http://purl.org/dc/elements/1.1/"
   xmlns:cc="http://creativecommons.org/ns#"
   xmlns:rdf="http://www.w3.org/1999/02/22-rdf-syntax-ns#"
   xmlns:svg="http://www.w3.org/2000/svg"
   xmlns="http://www.w3.org/2000/svg"
   xmlns:sodipodi="http://sodipodi.sourceforge.net/DTD/sodipodi-0.dtd"
   xmlns:inkscape="http://www.inkscape.org/namespaces/inkscape"
   id="svg2"
   version="1.1"
   inkscape:version="0.91 r13725"
   xml:space="preserve"
   width="3.25in"
   height="3in"
   viewBox="0 0 292.5 270"
   sodipodi:docname="floor_area_coverage_comparison.svg"><metadata
     id="metadata8"><rdf:RDF><cc:Work
         rdf:about=""><dc:format>image/svg+xml</dc:format><dc:type
           rdf:resource="http://purl.org/dc/dcmitype/StillImage" /><dc:title></dc:title></cc:Work></rdf:RDF></metadata><defs
     id="defs6"><clipPath
       clipPathUnits="userSpaceOnUse"
       id="clipPath82"><path
         d="m 9,130 39,0 0,63 -39,0 0,-63 z"
         id="path84"
         inkscape:connector-curvature="0" /></clipPath><mask
       maskUnits="userSpaceOnUse"
       x="0"
       y="0"
       width="1"
       height="1"
       id="mask86"><g
         id="g88"><g
           clip-path="url(#clipPath82)"
           id="g90"><path
             d="m 9,130 39,0 0,63 -39,0 0,-63 z"
             style="fill:#000000;fill-opacity:0.5;fill-rule:nonzero;stroke:none"
             id="path92"
             inkscape:connector-curvature="0" /></g></g></mask><clipPath
       clipPathUnits="userSpaceOnUse"
       id="clipPath98"><path
         d="m 9,130 39,0 0,63 -39,0 0,-63 z"
         id="path100"
         inkscape:connector-curvature="0" /></clipPath><clipPath
       clipPathUnits="userSpaceOnUse"
       id="clipPath102"><path
         d="m 9,130 39,0 0,63 -39,0 0,-63 z"
         id="path104"
         inkscape:connector-curvature="0" /></clipPath><clipPath
       clipPathUnits="userSpaceOnUse"
       id="clipPath126"><path
         d="m 47,152 76,0 0,41 -76,0 0,-41 z"
         id="path128"
         inkscape:connector-curvature="0" /></clipPath><mask
       maskUnits="userSpaceOnUse"
       x="0"
       y="0"
       width="1"
       height="1"
       id="mask130"><g
         id="g132"><g
           clip-path="url(#clipPath126)"
           id="g134"><path
             d="m 47,152 76,0 0,41 -76,0 0,-41 z"
             style="fill:#000000;fill-opacity:0.5;fill-rule:nonzero;stroke:none"
             id="path136"
             inkscape:connector-curvature="0" /></g></g></mask><clipPath
       clipPathUnits="userSpaceOnUse"
       id="clipPath142"><path
         d="m 47,152 76,0 0,41 -76,0 0,-41 z"
         id="path144"
         inkscape:connector-curvature="0" /></clipPath><clipPath
       clipPathUnits="userSpaceOnUse"
       id="clipPath146"><path
         d="m 47,152 76,0 0,41 -76,0 0,-41 z"
         id="path148"
         inkscape:connector-curvature="0" /></clipPath><clipPath
       clipPathUnits="userSpaceOnUse"
       id="clipPath170"><path
         d="m 11,110 111,0 0,61 -111,0 0,-61 z"
         id="path172"
         inkscape:connector-curvature="0" /></clipPath><mask
       maskUnits="userSpaceOnUse"
       x="0"
       y="0"
       width="1"
       height="1"
       id="mask174"><g
         id="g176"><g
           clip-path="url(#clipPath170)"
           id="g178"><path
             d="m 11,110 111,0 0,61 -111,0 0,-61 z"
             style="fill:#000000;fill-opacity:0.5;fill-rule:nonzero;stroke:none"
             id="path180"
             inkscape:connector-curvature="0" /></g></g></mask><clipPath
       clipPathUnits="userSpaceOnUse"
       id="clipPath186"><path
         d="m 11,110 111,0 0,61 -111,0 0,-61 z"
         id="path188"
         inkscape:connector-curvature="0" /></clipPath><clipPath
       clipPathUnits="userSpaceOnUse"
       id="clipPath190"><path
         d="m 11,110 111,0 0,61 -111,0 0,-61 z"
         id="path192"
         inkscape:connector-curvature="0" /></clipPath></defs><sodipodi:namedview
     pagecolor="#ffffff"
     bordercolor="#666666"
     borderopacity="1"
     objecttolerance="10"
     gridtolerance="10"
     guidetolerance="10"
     inkscape:pageopacity="0"
     inkscape:pageshadow="2"
     inkscape:window-width="1481"
     inkscape:window-height="945"
     id="namedview4"
     showgrid="false"
     units="in"
     inkscape:zoom="2.8407407"
     inkscape:cx="157.5"
     inkscape:cy="135"
     inkscape:window-x="55"
     inkscape:window-y="24"
     inkscape:window-maximized="0"
     inkscape:current-layer="g10" /><g
     id="g10"
     inkscape:groupmode="layer"
     inkscape:label="floor_area_coverage_comparison"
     transform="matrix(1.25,0,0,-1.25,0,270)"><g
       id="g12"
       transform="matrix(0.91047879,0,0,0.91047879,-1.6946933,11.109092)"><path
         d="m 111.445,201.773 140.164,0 0,-105.125 -140.164,0 0,105.125 z"
         style="fill:#ffffff;fill-opacity:1;fill-rule:nonzero;stroke:none"
         id="path14"
         inkscape:connector-curvature="0" /><path
         d="m 128.965,189.16 108.629,0 0,-80.945 -108.629,0 0,80.945 z"
         style="fill:#ffffff;fill-opacity:1;fill-rule:nonzero;stroke:none"
         id="path16"
         inkscape:connector-curvature="0" /><g
         id="g18"
         transform="matrix(1,0,0,-1,0,216)"><path
           d="m 133.902,104.105 0,-49.058 24.688,0 0,-24.527 74.066,0 0,73.585 -24.687,0 0,-49.058 -24.692,0 0,24.531 -24.687,0 0,24.527 -24.688,0"
           style="fill:none;stroke:#1f77b4;stroke-width:0.608365;stroke-linecap:square;stroke-linejoin:round;stroke-miterlimit:4;stroke-dasharray:none;stroke-opacity:1"
           id="path20"
           inkscape:connector-curvature="0" /></g><g
         id="g22"
         transform="matrix(1,0,0,-1,0,216)"><path
           d="m 164.516,48.637 -0.129,0.136 -1.094,0.989 -2.035,1.715 -0.379,0.464 -0.266,0.438 -0.304,0.644 -0.305,0.782 -0.184,0.476 -0.187,0.512 -0.238,0.727 -0.235,0.496 -0.379,0.617 -0.574,0.75 -0.801,0.883 -1.051,1.023 -1.304,1.149 -1.543,1.257 -2.36,1.821 -3.269,2.484 -1.34,1.094 -1.324,1.172 -1.289,1.246 -1.231,1.328 -1.156,1.402 -1.074,1.461 -0.985,1.516 -0.878,1.554 -0.778,1.586 -0.664,1.606 -0.547,1.621 -0.222,0.816 -0.188,0.817 -0.148,0.82 -0.114,0.82 -0.074,0.817 -0.035,0.812 0.008,0.813 0.043,0.804 0.082,0.797 0.121,0.786 0.156,0.773 0.196,0.762 0.23,0.746 0.266,0.73 0.3,0.711 0.332,0.688 0.364,0.668 0.394,0.64 0.426,0.621 0.449,0.59 0.477,0.567 0.5,0.539 0.523,0.515 1.106,0.938 1.168,0.828 1.207,0.719 1.238,0.613 1.242,0.508 1.235,0.414 1.207,0.324 1.156,0.238 1.101,0.164 1.024,0.102 0.949,0.039 1.254,-0.027 1.051,-0.114 0.847,-0.179 0.653,-0.215 0.468,-0.238 0.305,-0.243 0.168,-0.238 0.051,-0.219 -0.043,-0.199 -0.113,-0.172 -0.231,-0.179 -0.273,-0.133 -0.367,-0.098 -0.403,-0.039 -0.371,0.023 -0.121,0.063 0.031,0.027 0.18,0.032 0.441,0 0.684,-0.079 0.324,-0.062"
           style="fill:none;stroke:#ff7f0e;stroke-width:0.456274;stroke-linecap:square;stroke-linejoin:round;stroke-miterlimit:4;stroke-dasharray:none;stroke-opacity:1"
           id="path24"
           inkscape:connector-curvature="0" /></g><g
         id="g26"
         transform="matrix(1,0,0,-1,0,216)"><path
           d="m 170.879,49.488 0.035,0.035 0.699,0.575 1.258,0.879 1.371,0.875 1.656,0.984 2.485,1.453 0.855,0.582 0.672,0.531 0.512,0.485 0.476,0.535 0.454,0.617 0.5,0.785 0.003,0.129 -0.078,0.102 -0.215,0.117 -0.355,0.187 -0.062,0.106 0.031,0.144 0.027,0.219 -0.039,0.617 0.109,0.16 0.114,0.168 -0.008,0.09 -0.086,0.098 -0.238,0.137 -0.364,0.203 -0.007,0.066 0.086,0.059 0.269,0.078 0.57,0.078 0.016,-0.047 0.031,-0.18 0.125,-0.234 0.074,-0.203 0.083,-0.488 0.16,-2.121 -0.043,-0.934"
           style="fill:none;stroke:#2ca02c;stroke-width:0.456274;stroke-linecap:square;stroke-linejoin:round;stroke-miterlimit:4;stroke-dasharray:none;stroke-opacity:1"
           id="path28"
           inkscape:connector-curvature="0" /></g><g
         id="g30"
         transform="matrix(1,0,0,-1,0,216)"><path
           d="m 166.98,50.293 -0.046,0.062 -0.567,0.606 -0.801,0.781 -3.265,3.074 -2.188,2.11 -3.109,2.847 -1.453,1.336 -0.848,0.852 -2.82,3.016 -1.887,1.925 -2.84,2.84 -1.797,1.934 -0.832,0.98 -1.515,1.977 -1.375,1.976 -1.246,1.961 -1.086,1.93 -0.473,0.949 -0.43,0.938 -0.382,0.918 -0.332,0.902 -0.282,0.883 -0.238,0.859 -0.184,0.84 -0.136,0.813 -0.086,0.789 -0.035,0.757 0.015,0.731 0.063,0.699 0.117,0.668 0.16,0.641 0.211,0.605 0.258,0.57 0.297,0.54 0.343,0.507 0.379,0.473 0.418,0.441 0.45,0.407 0.484,0.379 0.512,0.343 0.535,0.317 0.558,0.285 1.18,0.484 1.234,0.379 1.274,0.278 1.285,0.191 1.281,0.109 1.254,0.039 1.211,-0.023 1.145,-0.07 1.562,-0.184 1.348,-0.246 1.109,-0.289 0.875,-0.305 0.641,-0.305 0.433,-0.292 0.243,-0.27 0.07,-0.164 0.004,-0.148 -0.051,-0.129 -0.102,-0.118 -0.234,-0.152 -0.422,-0.156 -0.625,-0.145 -1.746,-0.351 -0.09,-0.082 0,-0.075 0.078,-0.105 0.258,-0.184 0.656,-0.363 1.235,-0.683 0.699,-0.465 0.402,-0.34 0.032,-0.059 -0.071,0 -0.257,-0.219 -0.711,-0.671 -1.2,-1.243 -1.195,-1.336 -1.398,-1.675 -1.539,-1.989 -1.083,-1.48 -1.097,-1.586 -1.106,-1.68 -1.089,-1.75 -1.067,-1.804 -1.027,-1.84 -0.981,-1.848 -1.355,-2.738 -1.199,-2.598 -1.028,-2.379 -0.304,-0.73"
           style="fill:none;stroke:#d62728;stroke-width:0.456274;stroke-linecap:square;stroke-linejoin:round;stroke-miterlimit:4;stroke-dasharray:none;stroke-opacity:1"
           id="path32"
           inkscape:connector-curvature="0" /></g><g
         id="g34"
         transform="matrix(1,0,0,-1,0,216)"><path
           d="m 175.703,44.062 0.137,0.051 4.086,1.364 1.058,0.359 2.719,1.023 4.008,1.59 5.539,2.285 6.684,2.746 2.906,1.122 1.164,0.39 0.226,0.024 -0.031,-0.043 -0.242,-0.157 -0.742,-0.371 -0.777,-0.39 0.039,-0.282 0.101,-0.273 0.121,-0.195 0.188,-0.188 0.273,-0.144 0.387,-0.086 0.5,-0.024 0.621,0.051 0.742,0.133 0.86,0.211 0.964,0.297 1.059,0.383 1.145,0.464 1.207,0.547 1.265,0.625 1.301,0.703 1.32,0.778 1.336,0.863 1.34,0.969 1.34,1.093 1.32,1.231 1.297,1.375 1.246,1.512 0.602,0.804 0.582,0.836 0.562,0.871 0.535,0.899 0.516,0.926 0.488,0.949 0.461,0.972 0.434,0.989 0.402,1.008 0.371,1.019 0.336,1.031 0.301,1.036 0.262,1.035 0.222,1.035 0.184,1.031 0.141,1.02 0.097,1.011 0.055,0.992 0.012,0.973 -0.032,0.957 -0.074,0.93 -0.113,0.902 -0.156,0.879 -0.196,0.848 -0.23,0.812 -0.27,0.785 -0.3,0.75 -0.336,0.715 -0.368,0.68 -0.394,0.645 -0.422,0.605 -0.445,0.57 -0.469,0.535 -0.492,0.497 -0.508,0.464 -0.527,0.426 -0.543,0.391 -1.121,0.683 -1.153,0.551 -1.172,0.434 -1.172,0.32 -1.148,0.219 -1.117,0.133 -1.063,0.05 -0.996,-0.015 -0.929,-0.074 -0.848,-0.118 -0.766,-0.16 -0.984,-0.285 -0.797,-0.324 -0.609,-0.336 -0.442,-0.336 -0.289,-0.313 -0.16,-0.289 -0.047,-0.25 0.039,-0.211 0.102,-0.171 0.152,-0.129 0.25,-0.117 0.336,-0.071 0.488,-0.019 0.41,-0.02 0,-0.008"
           style="fill:none;stroke:#9467bd;stroke-width:0.456274;stroke-linecap:square;stroke-linejoin:round;stroke-miterlimit:4;stroke-dasharray:none;stroke-opacity:1"
           id="path36"
           inkscape:connector-curvature="0" /></g><g
         id="g38"
         transform="matrix(1,0,0,-1,0,216)"><path
           d="m 176.664,43.457 0.078,0.004 0.555,-0.027 1.656,-0.168 3.305,-0.411 13.101,-1.808 12.571,-1.797 7.703,-1.152 4.519,-0.743 2.864,-0.543 2.355,-0.531 1.277,-0.343 1.047,-0.34 0.825,-0.332 0.613,-0.321 0.418,-0.316 0.242,-0.301 0.082,-0.289 -0.063,-0.277 -0.179,-0.254 -0.281,-0.219 -0.368,-0.184 -0.437,-0.14 -0.488,-0.106 -0.809,-0.089 -0.855,-0.024 -1.153,0.047 -1.367,0.133 -2.184,0.304 -1.003,0.118 -0.473,0 -0.266,-0.051 -0.183,-0.094 -0.125,-0.129 -0.11,-0.203 -0.152,-0.324 -0.047,0.019 -0.152,0.18 -0.461,0.551 -0.367,0.344 -0.477,0.347 -0.59,0.317 -0.457,0.179 -0.508,0.149 -0.558,0.109 -0.602,0.067 -0.644,0.019 -1.024,-0.055 -1.074,-0.152 -1.445,-0.309 -2.082,-0.531 -3.274,-0.84 -1.59,-0.336 -1.015,-0.214 -0.117,-0.114 -0.188,-0.191 -0.148,-0.035 -0.371,-0.004 -2.008,0.051 -0.969,-0.059"
           style="fill:none;stroke:#8c564b;stroke-width:0.456274;stroke-linecap:square;stroke-linejoin:round;stroke-miterlimit:4;stroke-dasharray:none;stroke-opacity:1"
           id="path40"
           inkscape:connector-curvature="0" /></g><g
         id="g42"
         transform="matrix(1,0,0,-1,0,216)"><path
           d="m 169.066,54.195 0.004,0.059 -0.05,0.34 -0.161,0.636 -0.816,2.829 -0.559,2.093 -0.695,2.145 -0.555,1.43 -2.191,5.3 -0.691,1.485 -0.739,1.457 -0.777,1.426 -0.824,1.398 -0.864,1.367 -1.355,1.996 -1.875,2.582 -2.293,3.145 -1.262,1.84 -1.125,1.781 -0.652,1.144 -0.559,1.102 -0.465,1.051 -0.355,0.984 -0.246,0.922 -0.129,0.844 -0.016,0.769 0.094,0.688 0.195,0.605 0.293,0.524 0.375,0.445 0.446,0.371 0.504,0.297 0.547,0.234 0.57,0.168 0.582,0.118 0.867,0.082 0.82,-0.008 0.731,-0.078 0.613,-0.133 0.481,-0.164 0.343,-0.188 0.219,-0.195 0.074,-0.129 0,-0.133 -0.086,-0.16 -1.179,-1.519 -0.684,-1.114 -0.504,-0.926 -0.519,-1.062 -0.536,-1.191 -0.8,-2.004 -0.785,-2.211 -0.747,-2.371 -0.703,-2.473 -0.644,-2.52 -0.778,-3.347 -0.683,-3.25 -0.879,-4.528 -2.242,-11.828 -0.164,-0.539 -0.016,-0.008 -0.008,0.02 -0.004,0.184 0.051,0.363 0.098,0.222 0.113,0.11 0.145,0.031 0.164,-0.047 0.203,-0.129 0.285,-0.273 0.273,-0.359 0.11,-0.227"
           style="fill:none;stroke:#e377c2;stroke-width:0.456274;stroke-linecap:square;stroke-linejoin:round;stroke-miterlimit:4;stroke-dasharray:none;stroke-opacity:1"
           id="path44"
           inkscape:connector-curvature="0" /></g><g
         id="g46"
         transform="matrix(1,0,0,-1,0,216)"><path
           d="m 177.609,45.637 0.051,0.008 0.344,-0.032 1.051,-0.16 3.445,-0.613 10.449,-1.867 6.352,-1 8.304,-1.219 11.536,-1.676 3.007,-0.508 1.696,-0.332 1.437,-0.332 1.176,-0.336 0.93,-0.343 0.683,-0.344 0.461,-0.352 0.149,-0.179 0.101,-0.176 0.055,-0.18 0.012,-0.18 -0.036,-0.175 -0.175,-0.36 -0.309,-0.351 -0.422,-0.336 -0.515,-0.305 -0.59,-0.254 -0.653,-0.191 -0.707,-0.133 -0.757,-0.074 -0.797,-0.024 -1.274,0.051 -1.824,0.176 -3.512,0.367 -1.605,0.105 -1.649,0.04 -1.668,-0.04 -1.652,-0.113 -1.605,-0.183 -1.528,-0.25 -1.422,-0.293 -1.296,-0.328 -1.504,-0.461 -1.75,-0.637 -1.536,-0.555 -0.265,-0.054 -0.121,0.019 -0.082,0.082 -0.059,0.152 -0.09,0.528 -0.129,0.73 -0.164,0.621 -0.23,0.629 -0.297,0.606 -0.355,0.55 -0.411,0.473 -0.445,0.383 -0.465,0.281 -0.476,0.176 -0.473,0.07 -0.457,-0.031 -0.438,-0.129 -0.41,-0.219 -0.375,-0.304 -0.343,-0.379 -0.305,-0.438 -0.352,-0.644 -0.281,-0.672 -0.269,-0.824 -0.204,-0.875 -0.113,-0.793 -0.019,-0.567 0.054,-0.265 0.047,-0.02 0.051,0.067 0.051,0.199 0,0.176"
           style="fill:none;stroke:#7f7f7f;stroke-width:0.456274;stroke-linecap:square;stroke-linejoin:round;stroke-miterlimit:4;stroke-dasharray:none;stroke-opacity:1"
           id="path48"
           inkscape:connector-curvature="0" /></g><g
         id="g50"
         transform="matrix(1,0,0,-1,0,216)"><path
           d="m 174.695,51.996 0,0.039 -0.05,0.754 -0.247,2.434 -1.703,16.519 -0.816,7.774 -0.004,-0.004 -0.004,-0.41 -0.031,-2.625 -0.11,-3.348 -0.218,-4.504 -0.34,-5.383 -0.449,-5.828 -0.516,-5.773 -0.551,-5.301 -0.547,-4.555 -0.515,-3.68 -0.473,-2.773 -0.316,-1.512 -0.282,-1.074 -0.25,-0.684 -0.148,-0.269 -0.137,-0.148 -0.129,-0.047 -0.125,0.035 -0.183,0.168 -0.313,0.433 -0.402,0.555 -0.289,0.285 -0.223,0.149 -0.226,0.082 -0.223,0.019 -0.223,-0.039 -0.285,-0.133 -0.269,-0.207 -0.305,-0.324 -0.309,-0.43 -0.293,-0.527 -0.207,-0.508 -0.039,-0.234 0.024,0.004 0.011,0.008 0.071,0.132 0.011,0.106 -0.074,1.758 -0.191,2.531 -0.289,2.785 -0.324,2.477 -0.434,2.746 -0.344,1.941"
           style="fill:none;stroke:#bcbd22;stroke-width:0.456274;stroke-linecap:square;stroke-linejoin:round;stroke-miterlimit:4;stroke-dasharray:none;stroke-opacity:1"
           id="path52"
           inkscape:connector-curvature="0" /></g><g
         id="g54"
         transform="matrix(1,0,0,-1,0,216)"><path
           d="m 181.531,47.805 0.039,0.035 2.555,2.152 0.59,0.363 0.723,0.301 0.421,0.121 0.465,0.094 0.692,-0.031 3.621,-0.574 1.75,-0.254 1.918,-0.34 2.129,-0.438 2.324,-0.539 3.777,-0.953 4.016,-1.094 4.109,-1.191 4.004,-1.242 2.516,-0.844 2.332,-0.844 2.109,-0.839 1.871,-0.829 1.613,-0.808 1.352,-0.785 1.094,-0.754 0.84,-0.719 0.332,-0.348 0.273,-0.336 0.219,-0.328 0.164,-0.32 0.117,-0.305 0.066,-0.297 0.024,-0.289 -0.024,-0.273 -0.058,-0.266 -0.098,-0.254 -0.129,-0.238 -0.164,-0.219 -0.406,-0.379 -0.504,-0.296 -0.582,-0.211 -0.648,-0.137 -0.703,-0.067 -0.743,-0.011 -1.175,0.054 -1.614,0.153 -4.168,0.437 -1.258,0.067 -1.07,-0.008 -0.883,-0.074 -0.699,-0.141 -0.535,-0.187 -0.395,-0.227 -0.277,-0.254 -0.512,-0.57 -0.148,-0.004 -0.418,0.094 -0.559,0.109 -0.464,0.027 -0.461,-0.039 -0.426,-0.101 -0.375,-0.16 -0.465,-0.215 -0.27,-0.028 -0.543,0.043 -0.839,0.051 -0.606,-0.023 -0.555,-0.086 -0.48,-0.141 -0.551,-0.184 -0.453,-0.042 -0.453,-0.008 -0.277,0.054 -0.653,0.223 -2.011,0.828 -4.34,1.77 -6.41,2.609 -1.239,0.524"
           style="fill:none;stroke:#17becf;stroke-width:0.456274;stroke-linecap:square;stroke-linejoin:round;stroke-miterlimit:4;stroke-dasharray:none;stroke-opacity:1"
           id="path56"
           inkscape:connector-curvature="0" /></g><g
         id="g58"
         transform="matrix(1,0,0,-1,0,216)"><path
           d="m 181.348,45.074 0.031,0.008 2.004,0.57 3.058,0.942 19.426,6.14 6.746,2.188 5.043,1.699 2.278,0.828 2.058,0.844 0.934,0.437 0.867,0.461 0.789,0.481 0.719,0.512 0.637,0.539 0.562,0.574 0.477,0.609 0.402,0.645 0.32,0.683 0.242,0.723 0.161,0.762 0.089,0.797 0.012,0.836 -0.058,0.875 -0.129,0.906 -0.196,0.937 -0.258,0.973 -0.32,0.996 -0.375,1.023 -0.429,1.047 -0.481,1.063 -1.086,2.172 -1.223,2.203 -1.324,2.207 -1.386,2.187 -2.106,3.176 -6.531,9.668 -1.207,1.93 -0.922,1.597 -0.656,1.286 -0.411,0.984 -0.148,0.5 -0.062,0.391 0.031,0.281 0.058,0.094 0.09,0.066 0.117,0.027 0.157,-0.011 0.187,-0.051 0.465,-0.238 0.566,-0.442 0.649,-0.668 0.695,-0.89 0.723,-1.118 0.734,-1.328 0.715,-1.519 0.684,-1.684 0.632,-1.816 0.571,-1.926 0.496,-2 0.414,-2.039 0.324,-2.055 0.231,-2.035 0.132,-1.996 0.036,-1.93 -0.063,-1.84 -0.156,-1.738 -0.246,-1.625 -0.332,-1.492 -0.403,-1.359 -0.468,-1.219 -0.524,-1.082 -0.562,-0.942 -0.59,-0.804 -0.61,-0.676 -0.605,-0.551 -0.598,-0.437 -0.574,-0.336 -0.543,-0.235 -0.504,-0.152 -0.457,-0.074 -0.414,-0.012 -0.359,0.047 -0.313,0.09 -0.265,0.125 -0.305,0.242 -0.211,0.277 -0.117,0.297 -0.047,0.297 0.016,0.281 0.093,0.336 0.149,0.282 0.222,0.261 0.231,0.164 0.262,0.106 0.144,0.008 -0.004,-0.008 -0.113,-0.039 -0.352,-0.047 -0.351,0.015 -0.031,0.016"
           style="fill:none;stroke:#1f77b4;stroke-width:0.456274;stroke-linecap:square;stroke-linejoin:round;stroke-miterlimit:4;stroke-dasharray:none;stroke-opacity:1"
           id="path60"
           inkscape:connector-curvature="0" /></g><g
         id="g62"
         transform="matrix(1,0,0,-1,0,216)"><path
           d="m 128.965,107.785 0,-80.945"
           style="fill:none;stroke:#000000;stroke-width:0.24334601;stroke-linecap:square;stroke-linejoin:miter;stroke-miterlimit:4;stroke-dasharray:none;stroke-opacity:1"
           id="path64"
           inkscape:connector-curvature="0" /></g><g
         id="g66"
         transform="matrix(1,0,0,-1,0,216)"><path
           d="m 237.594,107.785 0,-80.945"
           style="fill:none;stroke:#000000;stroke-width:0.24334601;stroke-linecap:square;stroke-linejoin:miter;stroke-miterlimit:4;stroke-dasharray:none;stroke-opacity:1"
           id="path68"
           inkscape:connector-curvature="0" /></g><g
         id="g70"
         transform="matrix(1,0,0,-1,0,216)"><path
           d="m 128.965,107.785 108.629,0"
           style="fill:none;stroke:#000000;stroke-width:0.24334601;stroke-linecap:square;stroke-linejoin:miter;stroke-miterlimit:4;stroke-dasharray:none;stroke-opacity:1"
           id="path72"
           inkscape:connector-curvature="0" /></g><g
         id="g74"
         transform="matrix(1,0,0,-1,0,216)"><path
           d="m 128.965,26.84 108.629,0"
           style="fill:none;stroke:#000000;stroke-width:0.24334601;stroke-linecap:square;stroke-linejoin:miter;stroke-miterlimit:4;stroke-dasharray:none;stroke-opacity:1"
           id="path76"
           inkscape:connector-curvature="0" /></g><g
         id="g78"><g
           id="g80" /><g
           id="g94"
           mask="url(#mask86)"><g
             id="g96" /><g
             id="g106"><g
               clip-path="url(#clipPath98)"
               id="g108"><g
                 id="g110"><g
                   id="g112"><g
                     clip-path="url(#clipPath102)"
                     id="g114"><g
                       id="g116"><g
                         transform="matrix(1,0,0,-1,0,216)"
                         id="g118"><path
                           d="M 11.547,85.312 47.824,46.121 47.16,23.93 9.5,63.023"
                           style="fill:#f2f2f2;fill-opacity:1;fill-rule:nonzero;stroke:#f2f2f2;stroke-width:0.32866001;stroke-linecap:butt;stroke-linejoin:miter;stroke-miterlimit:4;stroke-dasharray:none;stroke-opacity:1"
                           id="path120"
                           inkscape:connector-curvature="0" /></g></g></g></g></g></g></g></g></g><g
         id="g122"><g
           id="g124" /><g
           id="g138"
           mask="url(#mask130)"><g
             id="g140" /><g
             id="g150"><g
               clip-path="url(#clipPath142)"
               id="g152"><g
                 id="g154"><g
                   id="g156"><g
                     clip-path="url(#clipPath146)"
                     id="g158"><g
                       id="g160"><g
                         transform="matrix(1,0,0,-1,0,216)"
                         id="g162"><path
                           d="M 47.824,46.121 120.793,63.48 122.695,41.223 47.16,23.93"
                           style="fill:#e6e6e6;fill-opacity:1;fill-rule:nonzero;stroke:#e6e6e6;stroke-width:0.32866001;stroke-linecap:butt;stroke-linejoin:miter;stroke-miterlimit:4;stroke-dasharray:none;stroke-opacity:1"
                           id="path164"
                           inkscape:connector-curvature="0" /></g></g></g></g></g></g></g></g></g><g
         id="g166"><g
           id="g168" /><g
           id="g182"
           mask="url(#mask174)"><g
             id="g184" /><g
             id="g194"><g
               clip-path="url(#clipPath186)"
               id="g196"><g
                 id="g198"><g
                   id="g200"><g
                     clip-path="url(#clipPath190)"
                     id="g202"><g
                       id="g204"><g
                         transform="matrix(1,0,0,-1,0,216)"
                         id="g206"><path
                           d="M 11.547,85.312 88.414,105.121 120.793,63.48 47.824,46.121"
                           style="fill:#ececec;fill-opacity:1;fill-rule:nonzero;stroke:#ececec;stroke-width:0.32866001;stroke-linecap:butt;stroke-linejoin:miter;stroke-miterlimit:4;stroke-dasharray:none;stroke-opacity:1"
                           id="path208"
                           inkscape:connector-curvature="0" /></g></g></g></g></g></g></g></g></g><g
         id="g210"
         transform="matrix(1,0,0,-1,0,216)"><path
           d="m 11.547,85.312 76.867,19.809"
           style="fill:none;stroke:#000000;stroke-width:0.26292801;stroke-linecap:square;stroke-linejoin:round;stroke-miterlimit:4;stroke-dasharray:none;stroke-opacity:1"
           id="path212"
           inkscape:connector-curvature="0" /></g><g
         id="g214"
         transform="matrix(1,0,0,-1,0,216)"><path
           d="M 120.793,63.48 88.414,105.121"
           style="fill:none;stroke:#000000;stroke-width:0.26292801;stroke-linecap:square;stroke-linejoin:round;stroke-miterlimit:4;stroke-dasharray:none;stroke-opacity:1"
           id="path216"
           inkscape:connector-curvature="0" /></g><g
         id="g218"
         transform="matrix(1,0,0,-1,0,216)"><path
           d="m 120.793,63.48 1.902,-22.257"
           style="fill:none;stroke:#000000;stroke-width:0.26292801;stroke-linecap:square;stroke-linejoin:round;stroke-miterlimit:4;stroke-dasharray:none;stroke-opacity:1"
           id="path220"
           inkscape:connector-curvature="0" /></g><g
         id="g222"
         transform="matrix(1,0,0,-1,0,216)"><path
           d="m 22.93,77.293 16.183,-17.648 16.024,3.96 7.578,-8.566 48.797,11.859 L 89.828,94.434 72.762,90.059 87.824,71.688 71.371,67.621 63.762,76.551 47.34,72.418 39.316,81.492 22.93,77.293"
           style="fill:none;stroke:#1f77b4;stroke-width:0.65731901;stroke-linecap:square;stroke-linejoin:round;stroke-miterlimit:4;stroke-dasharray:none;stroke-opacity:1"
           id="path224"
           inkscape:connector-curvature="0" /></g><g
         id="g226"
         transform="matrix(1,0,0,-1,0,216)"><path
           d="M 39.84,80.137 39.332,70.363"
           style="fill:none;stroke:#ff0000;stroke-width:0.32866001;stroke-linecap:butt;stroke-linejoin:round;stroke-miterlimit:4;stroke-dasharray:1.21604, 0.525855;stroke-dashoffset:0;stroke-opacity:1"
           id="path228"
           inkscape:connector-curvature="0" /></g><g
         id="g230"
         transform="matrix(1,0,0,-1,0,216)"><path
           d="m 61.008,62.293 -0.324,0.062 -1.153,0.184 -1.621,0.254 -0.558,0.172 -0.668,0.301 -0.786,0.418 -0.578,0.308 -0.554,0.207 -0.856,0.231 -1.207,0.254 -2.023,0.328 -2.528,0.328 -4.707,0.594 -1.863,0.316 -1.852,0.398 -1.804,0.481 -1.719,0.562 -1.602,0.633 -0.996,0.453 -0.925,0.485 -0.852,0.508 -0.762,0.535 -0.664,0.562 -0.558,0.586 -0.45,0.602 -0.339,0.617 -0.223,0.621 -0.109,0.621 0.007,0.613 0.114,0.602 0.222,0.582 0.325,0.559 0.414,0.535 0.492,0.504 0.562,0.468 0.614,0.438 0.992,0.586 1.035,0.5 1.027,0.418 0.985,0.332 1.191,0.32 1.012,0.195 0.804,0.094 0.715,0.004 0.36,-0.055 0.199,-0.089 0.062,-0.11 -0.035,-0.109 -0.14,-0.129 -0.289,-0.145 -0.43,-0.125 -0.184,-0.007 0.016,0.011 0.183,0.067 0.614,0.125 0.226,0.035"
           style="fill:none;stroke:#1f77b4;stroke-width:0.492989;stroke-linecap:square;stroke-linejoin:round;stroke-miterlimit:4;stroke-dasharray:none;stroke-opacity:1"
           id="path232"
           inkscape:connector-curvature="0" /></g><g
         id="g234"
         transform="matrix(1,0,0,-1,0,216)"><path
           d="M 69.832,68.312 69.809,58.543"
           style="fill:none;stroke:#ff0000;stroke-width:0.32866001;stroke-linecap:butt;stroke-linejoin:round;stroke-miterlimit:4;stroke-dasharray:1.21604, 0.525855;stroke-dashoffset:0;stroke-opacity:1"
           id="path236"
           inkscape:connector-curvature="0" /></g><g
         id="g238"
         transform="matrix(1,0,0,-1,0,216)"><path
           d="m 64.906,63.621 0.035,0.043 0.375,0.402 0.844,0.746 1.16,0.918 1.157,0.911 0.5,0.484 0.289,0.387 0.168,0.347 0.144,0.489 -0.023,0.074 -0.098,0.031 -0.398,0.008 -0.153,0.047 -0.129,0.18 -0.148,0.144 0.012,0.086 0.015,0.109 -0.086,0.032 -0.324,0.011 -0.226,0.032 0,0.007 0.05,0.039 0.293,0.122 0.239,0.046 0.121,-0.078 0.285,-0.152 0.355,-0.32 0.403,-0.383"
           style="fill:none;stroke:#ff7f0e;stroke-width:0.492989;stroke-linecap:square;stroke-linejoin:round;stroke-miterlimit:4;stroke-dasharray:none;stroke-opacity:1"
           id="path240"
           inkscape:connector-curvature="0" /></g><g
         id="g242"
         transform="matrix(1,0,0,-1,0,216)"><path
           d="m 39.75,65.809 -0.5,-9.77"
           style="fill:none;stroke:#ff0000;stroke-width:0.32866001;stroke-linecap:butt;stroke-linejoin:round;stroke-miterlimit:4;stroke-dasharray:1.21604, 0.525855;stroke-dashoffset:0;stroke-opacity:1"
           id="path244"
           inkscape:connector-curvature="0" /></g><g
         id="g246"
         transform="matrix(1,0,0,-1,0,216)"><path
           d="m 62.105,63.277 -0.125,0.032 -1.25,0.253 -9.488,1.704 -1.758,0.375 -3.718,0.789 -3.676,0.75 -1.754,0.418 -2.414,0.699 -2.215,0.746 -1.344,0.519 -1.211,0.532 -1.07,0.543 -0.914,0.547 -0.758,0.546 -0.594,0.543 -0.425,0.536 -0.254,0.523 -0.063,0.258 -0.023,0.25 0.015,0.25 0.055,0.242 0.223,0.469 0.351,0.445 0.469,0.418 0.57,0.391 0.657,0.363 0.718,0.332 1.168,0.441 1.223,0.375 1.219,0.305 1.527,0.309 1.332,0.191 1.305,0.109 0.883,-0.003 0.418,-0.067 0.203,-0.098 0.031,-0.082 -0.059,-0.093 -0.183,-0.129 -0.414,-0.192 -1.153,-0.504 0.039,-0.035 0.211,-0.035 0.832,-0.035 1.313,-0.078 0.582,-0.09 -0.008,-0.004 -0.074,-0.047 -0.316,-0.453 -0.391,-0.66 -0.477,-0.961 -0.379,-0.894 -0.359,-1.028 -0.316,-1.129 -0.258,-1.195 -0.18,-1.238 -0.101,-1.246 -0.02,-1.223 0.023,-0.777"
           style="fill:none;stroke:#2ca02c;stroke-width:0.492989;stroke-linecap:square;stroke-linejoin:round;stroke-miterlimit:4;stroke-dasharray:none;stroke-opacity:1"
           id="path248"
           inkscape:connector-curvature="0" /></g><g
         id="g250"
         transform="matrix(1,0,0,-1,0,216)"><path
           d="m 77.316,86.582 0.098,-9.77"
           style="fill:none;stroke:#ff0000;stroke-width:0.32866001;stroke-linecap:butt;stroke-linejoin:round;stroke-miterlimit:4;stroke-dasharray:1.21604, 0.525855;stroke-dashoffset:0;stroke-opacity:1"
           id="path252"
           inkscape:connector-curvature="0" /></g><g
         id="g254"
         transform="matrix(1,0,0,-1,0,216)"><path
           d="m 69.73,62.48 0.106,0.055 3.984,2.051 2.868,1.609 8.16,4.653 0.484,0.203 -0.055,-0.059 -0.39,-0.269 -0.477,-0.301 0.02,-0.024 0.191,-0.136 0.281,-0.102 0.325,-0.019 0.445,0.062 0.578,0.164 0.707,0.274 0.82,0.382 0.907,0.489 0.968,0.586 0.996,0.668 0.993,0.746 0.957,0.824 0.601,0.602 0.555,0.648 0.5,0.703 0.437,0.746 0.36,0.793 0.269,0.824 0.176,0.86 0.074,0.879 -0.027,0.89 -0.129,0.891 -0.23,0.879 -0.34,0.851 -0.446,0.809 -0.546,0.758 -0.641,0.699 -0.727,0.633 -0.796,0.562 -0.86,0.485 -0.906,0.414 -0.945,0.336 -0.969,0.265 -0.985,0.192 -0.988,0.129 -0.984,0.062 -0.965,0.012 -1.398,-0.074 -1.309,-0.164 -1.188,-0.227 -1.046,-0.266 -0.895,-0.289 -0.949,-0.386 -0.688,-0.364 -0.441,-0.32 -0.242,-0.266 -0.078,-0.203 0.027,-0.117 0.113,-0.102 0.219,-0.066 0.305,-0.004 0.429,0.078 0.36,0.09"
           style="fill:none;stroke:#d62728;stroke-width:0.492989;stroke-linecap:square;stroke-linejoin:round;stroke-miterlimit:4;stroke-dasharray:none;stroke-opacity:1"
           id="path256"
           inkscape:connector-curvature="0" /></g><g
         id="g258"
         transform="matrix(1,0,0,-1,0,216)"><path
           d="m 89.176,62.133 0.277,-9.77"
           style="fill:none;stroke:#ff0000;stroke-width:0.32866001;stroke-linecap:butt;stroke-linejoin:round;stroke-miterlimit:4;stroke-dasharray:1.21604, 0.525855;stroke-dashoffset:0;stroke-opacity:1"
           id="path260"
           inkscape:connector-curvature="0" /></g><g
         id="g262"
         transform="matrix(1,0,0,-1,0,216)"><path
           d="m 70.547,62.422 0.07,0.019 0.879,0.172 2.906,0.496 15.274,2.442 9.941,1.531 3.633,0.496 2.23,0.242 1.602,0.102 0.809,-0.012 0.511,-0.074 0.188,-0.082 0.086,-0.102 -0.004,-0.113 -0.09,-0.125 -0.27,-0.187 -0.394,-0.184 -0.672,-0.223 -0.957,-0.234 -1.348,-0.258 -2.66,-0.476 -0.183,-0.11 -0.047,-0.105 -0.024,-0.18 -0.175,0.043 -0.688,0.164 -0.695,0.074 -0.688,0 -0.785,-0.082 -0.855,-0.172 -0.891,-0.257 -1.105,-0.415 -2.004,-0.855 -2.098,-0.875 -0.875,-0.367 -0.113,-0.133 -0.293,-0.078 -1.508,-0.348"
           style="fill:none;stroke:#9467bd;stroke-width:0.492989;stroke-linecap:square;stroke-linejoin:round;stroke-miterlimit:4;stroke-dasharray:none;stroke-opacity:1"
           id="path264"
           inkscape:connector-curvature="0" /></g><g
         id="g266"
         transform="matrix(1,0,0,-1,0,216)"><path
           d="m 47.426,61.969 -0.375,-9.77"
           style="fill:none;stroke:#ff0000;stroke-width:0.32866001;stroke-linecap:butt;stroke-linejoin:round;stroke-miterlimit:4;stroke-dasharray:1.21604, 0.525855;stroke-dashoffset:0;stroke-opacity:1"
           id="path268"
           inkscape:connector-curvature="0" /></g><g
         id="g270"
         transform="matrix(1,0,0,-1,0,216)"><path
           d="m 62.266,65 -0.028,0.031 -0.258,0.196 -3.425,2.121 -1.125,0.597 -3.578,1.762 -1.899,0.813 -1.976,0.738 -2.043,0.676 -7.364,2.324 -1.183,0.469 -1.008,0.461 -0.805,0.453 -0.414,0.293 -0.316,0.285 -0.215,0.277 -0.117,0.262 -0.024,0.25 0.063,0.238 0.137,0.219 0.207,0.207 0.41,0.273 0.492,0.231 0.726,0.246 0.723,0.172 0.785,0.113 0.582,0.02 0.344,-0.059 0.09,-0.07 -0.008,-0.075 -0.281,-0.761 -0.09,-0.532 -0.031,-0.66 0.043,-0.777 0.125,-0.871 0.207,-0.942 0.281,-0.992 0.469,-1.359 0.55,-1.356 0.743,-1.636 1.035,-2.082 2.359,-4.676 0.02,-0.106 -0.028,0.012 -0.117,0.16 -0.023,0.129 0.054,0.067 0.137,0.031 0.289,-0.02 0.469,-0.113 0.172,-0.07"
           style="fill:none;stroke:#8c564b;stroke-width:0.492989;stroke-linecap:square;stroke-linejoin:round;stroke-miterlimit:4;stroke-dasharray:none;stroke-opacity:1"
           id="path272"
           inkscape:connector-curvature="0" /></g><g
         id="g274"
         transform="matrix(1,0,0,-1,0,216)"><path
           d="m 84.77,60.605 0.207,-9.769"
           style="fill:none;stroke:#ff0000;stroke-width:0.32866001;stroke-linecap:butt;stroke-linejoin:round;stroke-miterlimit:4;stroke-dasharray:1.21604, 0.525855;stroke-dashoffset:0;stroke-opacity:1"
           id="path276"
           inkscape:connector-curvature="0" /></g><g
         id="g278"
         transform="matrix(1,0,0,-1,0,216)"><path
           d="m 70.504,63.344 0.055,0.015 0.574,0.098 3.558,0.492 8.461,1.188 7.668,1.179 10.664,1.657 2.465,0.316 1.395,0.125 1.023,0.031 0.668,-0.062 0.27,-0.09 0.144,-0.117 0.035,-0.145 -0.066,-0.168 -0.148,-0.183 -0.364,-0.289 -0.508,-0.278 -0.632,-0.25 -0.746,-0.218 -1.137,-0.258 -2.293,-0.414 -2.16,-0.407 -1.852,-0.425 -1.797,-0.5 -1.648,-0.547 -1.43,-0.559 -1.164,-0.523 -1.414,-0.739 -0.77,-0.371 -0.121,-0.007 -0.125,0.058 -1.136,0.785 -0.508,0.215 -0.539,0.16 -0.543,0.094 -0.516,0.023 -0.469,-0.046 -0.402,-0.106 -0.324,-0.16 -0.242,-0.207 -0.16,-0.25 -0.09,-0.273 -0.024,-0.356 0.063,-0.406 0.14,-0.406 0.203,-0.36 0.196,-0.207 0.074,-0.004 -0.008,0.074 -0.054,0.079"
           style="fill:none;stroke:#e377c2;stroke-width:0.492989;stroke-linecap:square;stroke-linejoin:round;stroke-miterlimit:4;stroke-dasharray:none;stroke-opacity:1"
           id="path280"
           inkscape:connector-curvature="0" /></g><g
         id="g282"
         transform="matrix(1,0,0,-1,0,216)"><path
           d="M 61.922,59.145 61.773,49.379"
           style="fill:none;stroke:#ff0000;stroke-width:0.32866001;stroke-linecap:butt;stroke-linejoin:round;stroke-miterlimit:4;stroke-dasharray:1.21604, 0.525855;stroke-dashoffset:0;stroke-opacity:1"
           id="path284"
           inkscape:connector-curvature="0" /></g><g
         id="g286"
         transform="matrix(1,0,0,-1,0,216)"><path
           d="m 66.645,65.129 -0.02,0.023 -0.5,0.477 -9.953,8.984 0.07,-0.086 1.086,-1.3 1.379,-1.762 1.754,-2.363 1.894,-2.684 1.786,-2.656 1.484,-2.332 1.098,-1.868 0.707,-1.351 0.312,-0.734 0.121,-0.457 -0.008,-0.196 -0.078,-0.094 -0.129,-0.023 -0.296,0.063 -0.911,0.25 -0.359,0.007 -0.242,-0.058 -0.188,-0.11 -0.156,-0.175 -0.105,-0.231 -0.047,-0.297 0.027,-0.238 0.047,-0.055 0.008,0.012 0,0.074 -0.098,0.106 -0.805,0.804 -1.343,1.227 -0.914,0.777"
           style="fill:none;stroke:#7f7f7f;stroke-width:0.492989;stroke-linecap:square;stroke-linejoin:round;stroke-miterlimit:4;stroke-dasharray:none;stroke-opacity:1"
           id="path288"
           inkscape:connector-curvature="0" /></g><g
         id="g290"
         transform="matrix(1,0,0,-1,0,216)"><path
           d="m 85.469,62.641 0.219,-9.77"
           style="fill:none;stroke:#ff0000;stroke-width:0.32866001;stroke-linecap:butt;stroke-linejoin:round;stroke-miterlimit:4;stroke-dasharray:1.21604, 0.525855;stroke-dashoffset:0;stroke-opacity:1"
           id="path292"
           inkscape:connector-curvature="0" /></g><g
         id="g294"
         transform="matrix(1,0,0,-1,0,216)"><path
           d="m 72.426,64.746 0.015,0.02 1.161,1.296 0.328,0.227 0.453,0.223 0.277,0.109 0.469,0.102 6.73,0.965 3.547,0.371 4.992,0.441 5.114,0.371 3.738,0.188 2.43,0.054 2.043,-0.027 1.632,-0.102 1.227,-0.172 0.602,-0.148 0.441,-0.168 0.297,-0.187 0.16,-0.204 0.043,-0.21 -0.066,-0.211 -0.168,-0.204 -0.254,-0.187 -0.332,-0.172 -0.617,-0.226 -0.985,-0.254 -1.668,-0.321 -3.566,-0.66 -1.219,-0.305 -0.691,-0.246 -0.411,-0.23 -0.179,-0.172 -0.11,-0.242 -0.086,-0.078 -0.199,-0.039 -0.871,-0.125 -0.48,-0.149 -0.325,-0.172 -0.308,-0.175 -0.43,-0.094 -0.91,-0.199 -0.539,-0.192 -0.899,-0.359 -0.39,-0.074 -0.727,-0.032 -5.457,-0.117"
           style="fill:none;stroke:#bcbd22;stroke-width:0.492989;stroke-linecap:square;stroke-linejoin:round;stroke-miterlimit:4;stroke-dasharray:none;stroke-opacity:1"
           id="path296"
           inkscape:connector-curvature="0" /></g><g
         id="g298"
         transform="matrix(1,0,0,-1,0,216)"><path
           d="M 84.555,76.309 84.77,66.535"
           style="fill:none;stroke:#ff0000;stroke-width:0.32866001;stroke-linecap:butt;stroke-linejoin:round;stroke-miterlimit:4;stroke-dasharray:1.21604, 0.525855;stroke-dashoffset:0;stroke-opacity:1"
           id="path300"
           inkscape:connector-curvature="0" /></g><g
         id="g302"
         transform="matrix(1,0,0,-1,0,216)"><path
           d="m 73.133,63.75 0.031,0.012 1.902,0.883 9.743,4.734 7.66,3.777 2.699,1.403 1.144,0.656 0.954,0.633 0.73,0.617 0.277,0.308 0.211,0.305 0.145,0.309 0.082,0.308 0.019,0.305 -0.05,0.309 -0.114,0.312 -0.175,0.313 -0.239,0.312 -0.297,0.316 -0.769,0.633 -0.981,0.637 -1.167,0.641 -1.325,0.632 -1.449,0.625 -2.336,0.915 -3.223,1.152 -10.097,3.512 -1.324,0.554 -0.844,0.426 -0.356,0.238 -0.117,0.125 -0.012,0.102 0.118,0.074 0.254,0.035 0.394,-0.011 0.527,-0.071 0.653,-0.14 0.761,-0.223 0.848,-0.305 0.914,-0.383 0.965,-0.457 0.992,-0.523 1,-0.586 0.985,-0.637 0.957,-0.672 0.91,-0.707 0.851,-0.722 0.782,-0.731 0.699,-0.73 0.609,-0.719 0.516,-0.703 0.422,-0.68 0.32,-0.648 0.227,-0.613 0.136,-0.579 0.047,-0.531 L 88.715,78 88.613,77.559 88.457,77.16 88.25,76.809 88.004,76.5 87.59,76.125 87.148,75.84 l -0.437,-0.195 -0.418,-0.122 -0.496,-0.066 -0.406,0.023 -0.313,0.086 -0.215,0.122 -0.129,0.14 -0.062,0.176 0.027,0.156 0.102,0.149 0.195,0.129 0.109,0.035 -0.464,-0.157 -0.082,-0.007"
           style="fill:none;stroke:#17becf;stroke-width:0.492989;stroke-linecap:square;stroke-linejoin:round;stroke-miterlimit:4;stroke-dasharray:none;stroke-opacity:1"
           id="path304"
           inkscape:connector-curvature="0" /></g><g
         id="g306"
         transform="matrix(1,0,0,-1,0,216)"><path
           d="m 37.324,69.859 4.016,1.008"
           style="fill:none;stroke:#000000;stroke-width:0.32866001;stroke-linecap:square;stroke-linejoin:round;stroke-miterlimit:4;stroke-dasharray:none;stroke-opacity:1"
           id="path308"
           inkscape:connector-curvature="0" /></g><g
         id="g310"
         transform="matrix(1,0,0,-1,0,216)"><path
           d="M 38.336,71.465 40.32,69.266"
           style="fill:none;stroke:#000000;stroke-width:0.32866001;stroke-linecap:square;stroke-linejoin:round;stroke-miterlimit:4;stroke-dasharray:none;stroke-opacity:1"
           id="path312"
           inkscape:connector-curvature="0" /></g><g
         id="g314"
         transform="matrix(1,0,0,-1,0,216)"><path
           d="m 67.816,58.062 3.985,0.961"
           style="fill:none;stroke:#000000;stroke-width:0.32866001;stroke-linecap:square;stroke-linejoin:round;stroke-miterlimit:4;stroke-dasharray:none;stroke-opacity:1"
           id="path316"
           inkscape:connector-curvature="0" /></g><g
         id="g318"
         transform="matrix(1,0,0,-1,0,216)"><path
           d="M 68.887,59.59 70.723,57.5"
           style="fill:none;stroke:#000000;stroke-width:0.32866001;stroke-linecap:square;stroke-linejoin:round;stroke-miterlimit:4;stroke-dasharray:none;stroke-opacity:1"
           id="path320"
           inkscape:connector-curvature="0" /></g><g
         id="g322"
         transform="matrix(1,0,0,-1,0,216)"><path
           d="m 37.254,55.574 3.996,0.93"
           style="fill:none;stroke:#000000;stroke-width:0.32866001;stroke-linecap:square;stroke-linejoin:round;stroke-miterlimit:4;stroke-dasharray:none;stroke-opacity:1"
           id="path324"
           inkscape:connector-curvature="0" /></g><g
         id="g326"
         transform="matrix(1,0,0,-1,0,216)"><path
           d="m 38.359,57.137 1.782,-2.196"
           style="fill:none;stroke:#000000;stroke-width:0.32866001;stroke-linecap:square;stroke-linejoin:round;stroke-miterlimit:4;stroke-dasharray:none;stroke-opacity:1"
           id="path328"
           inkscape:connector-curvature="0" /></g><g
         id="g330"
         transform="matrix(1,0,0,-1,0,216)"><path
           d="m 75.355,76.301 4.122,1.023"
           style="fill:none;stroke:#000000;stroke-width:0.32866001;stroke-linecap:square;stroke-linejoin:round;stroke-miterlimit:4;stroke-dasharray:none;stroke-opacity:1"
           id="path332"
           inkscape:connector-curvature="0" /></g><g
         id="g334"
         transform="matrix(1,0,0,-1,0,216)"><path
           d="m 76.48,77.938 1.864,-2.247"
           style="fill:none;stroke:#000000;stroke-width:0.32866001;stroke-linecap:square;stroke-linejoin:round;stroke-miterlimit:4;stroke-dasharray:none;stroke-opacity:1"
           id="path336"
           inkscape:connector-curvature="0" /></g><g
         id="g338"
         transform="matrix(1,0,0,-1,0,216)"><path
           d="m 87.469,51.887 3.976,0.957"
           style="fill:none;stroke:#000000;stroke-width:0.32866001;stroke-linecap:square;stroke-linejoin:round;stroke-miterlimit:4;stroke-dasharray:none;stroke-opacity:1"
           id="path340"
           inkscape:connector-curvature="0" /></g><g
         id="g342"
         transform="matrix(1,0,0,-1,0,216)"><path
           d="m 88.578,53.402 1.75,-2.07"
           style="fill:none;stroke:#000000;stroke-width:0.32866001;stroke-linecap:square;stroke-linejoin:round;stroke-miterlimit:4;stroke-dasharray:none;stroke-opacity:1"
           id="path344"
           inkscape:connector-curvature="0" /></g><g
         id="g346"
         transform="matrix(1,0,0,-1,0,216)"><path
           d="m 45.098,51.727 3.906,0.949"
           style="fill:none;stroke:#000000;stroke-width:0.32866001;stroke-linecap:square;stroke-linejoin:round;stroke-miterlimit:4;stroke-dasharray:none;stroke-opacity:1"
           id="path348"
           inkscape:connector-curvature="0" /></g><g
         id="g350"
         transform="matrix(1,0,0,-1,0,216)"><path
           d="m 46.098,53.238 1.898,-2.074"
           style="fill:none;stroke:#000000;stroke-width:0.32866001;stroke-linecap:square;stroke-linejoin:round;stroke-miterlimit:4;stroke-dasharray:none;stroke-opacity:1"
           id="path352"
           inkscape:connector-curvature="0" /></g><g
         id="g354"
         transform="matrix(1,0,0,-1,0,216)"><path
           d="m 83,50.363 3.961,0.946"
           style="fill:none;stroke:#000000;stroke-width:0.32866001;stroke-linecap:square;stroke-linejoin:round;stroke-miterlimit:4;stroke-dasharray:none;stroke-opacity:1"
           id="path356"
           inkscape:connector-curvature="0" /></g><g
         id="g358"
         transform="matrix(1,0,0,-1,0,216)"><path
           d="m 84.098,51.867 1.757,-2.058"
           style="fill:none;stroke:#000000;stroke-width:0.32866001;stroke-linecap:square;stroke-linejoin:round;stroke-miterlimit:4;stroke-dasharray:none;stroke-opacity:1"
           id="path360"
           inkscape:connector-curvature="0" /></g><g
         id="g362"
         transform="matrix(1,0,0,-1,0,216)"><path
           d="m 59.82,48.922 3.91,0.914"
           style="fill:none;stroke:#000000;stroke-width:0.32866001;stroke-linecap:square;stroke-linejoin:round;stroke-miterlimit:4;stroke-dasharray:none;stroke-opacity:1"
           id="path364"
           inkscape:connector-curvature="0" /></g><g
         id="g366"
         transform="matrix(1,0,0,-1,0,216)"><path
           d="m 60.855,50.445 1.836,-2.133"
           style="fill:none;stroke:#000000;stroke-width:0.32866001;stroke-linecap:square;stroke-linejoin:round;stroke-miterlimit:4;stroke-dasharray:none;stroke-opacity:1"
           id="path368"
           inkscape:connector-curvature="0" /></g><g
         id="g370"
         transform="matrix(1,0,0,-1,0,216)"><path
           d="m 83.73,52.438 3.918,0.871"
           style="fill:none;stroke:#000000;stroke-width:0.32866001;stroke-linecap:square;stroke-linejoin:round;stroke-miterlimit:4;stroke-dasharray:none;stroke-opacity:1"
           id="path372"
           inkscape:connector-curvature="0" /></g><g
         id="g374"
         transform="matrix(1,0,0,-1,0,216)"><path
           d="m 84.738,53.93 1.895,-2.114"
           style="fill:none;stroke:#000000;stroke-width:0.32866001;stroke-linecap:square;stroke-linejoin:round;stroke-miterlimit:4;stroke-dasharray:none;stroke-opacity:1"
           id="path376"
           inkscape:connector-curvature="0" /></g><g
         id="g378"
         transform="matrix(1,0,0,-1,0,216)"><path
           d="m 82.738,66.035 4.063,1"
           style="fill:none;stroke:#000000;stroke-width:0.32866001;stroke-linecap:square;stroke-linejoin:round;stroke-miterlimit:4;stroke-dasharray:none;stroke-opacity:1"
           id="path380"
           inkscape:connector-curvature="0" /></g><g
         id="g382"
         transform="matrix(1,0,0,-1,0,216)"><path
           d="m 83.863,67.621 1.805,-2.172"
           style="fill:none;stroke:#000000;stroke-width:0.32866001;stroke-linecap:square;stroke-linejoin:round;stroke-miterlimit:4;stroke-dasharray:none;stroke-opacity:1"
           id="path384"
           inkscape:connector-curvature="0" /></g><path
         d="m 15.402,96.617 232.766,0 0,-78.379 -232.766,0 0,78.379 z"
         style="fill:#ffffff;fill-opacity:1;fill-rule:nonzero;stroke:none"
         id="path386"
         inkscape:connector-curvature="0" /><path
         d="m 44.5,87.211 180.391,0 0,-60.352 -180.391,0 0,60.352 z"
         style="fill:#ffffff;fill-opacity:1;fill-rule:nonzero;stroke:none"
         id="path388"
         inkscape:connector-curvature="0" /><g
         id="g390"
         transform="matrix(1,0,0,-1,0,216)"><path
           d="m 51.566,189.141 0,-60.352"
           style="fill:none;stroke:#b0b0b0;stroke-width:0.52780598;stroke-linecap:square;stroke-linejoin:round;stroke-miterlimit:4;stroke-dasharray:none;stroke-opacity:1"
           id="path392"
           inkscape:connector-curvature="0" /></g><g
         id="g394"
         transform="matrix(1,0,0,-1,0,216)"><path
           d="m 51.566,189.141 0,2.308"
           style="fill:none;stroke:#000000;stroke-width:0.52780598;stroke-linecap:butt;stroke-linejoin:round;stroke-miterlimit:4;stroke-dasharray:none;stroke-opacity:1"
           id="path396"
           inkscape:connector-curvature="0" /></g><path
         d="m 51.566,21.609 c -0.336,0 -0.586,-0.164 -0.757,-0.492 -0.168,-0.332 -0.25,-0.828 -0.25,-1.488 0,-0.66 0.082,-1.152 0.25,-1.484 0.171,-0.329 0.421,-0.493 0.757,-0.493 0.336,0 0.59,0.164 0.758,0.493 0.168,0.332 0.254,0.824 0.254,1.484 0,0.66 -0.086,1.156 -0.254,1.488 -0.168,0.328 -0.422,0.492 -0.758,0.492 z m 0,0.516 c 0.539,0 0.95,-0.211 1.235,-0.641 0.285,-0.425 0.429,-1.043 0.429,-1.855 0,-0.809 -0.144,-1.426 -0.429,-1.856 -0.285,-0.425 -0.696,-0.636 -1.235,-0.636 -0.539,0 -0.949,0.211 -1.234,0.636 -0.285,0.43 -0.43,1.047 -0.43,1.856 0,0.812 0.145,1.43 0.43,1.855 0.285,0.43 0.695,0.641 1.234,0.641 z"
         style="fill:#000000;fill-opacity:1;fill-rule:nonzero;stroke:none"
         id="path398"
         inkscape:connector-curvature="0" /><g
         id="g400"
         transform="matrix(1,0,0,-1,0,216)"><path
           d="m 74.188,189.141 0,-60.352"
           style="fill:none;stroke:#b0b0b0;stroke-width:0.52780598;stroke-linecap:square;stroke-linejoin:round;stroke-miterlimit:4;stroke-dasharray:none;stroke-opacity:1"
           id="path402"
           inkscape:connector-curvature="0" /></g><g
         id="g404"
         transform="matrix(1,0,0,-1,0,216)"><path
           d="m 74.188,189.141 0,2.308"
           style="fill:none;stroke:#000000;stroke-width:0.52780598;stroke-linecap:butt;stroke-linejoin:round;stroke-miterlimit:4;stroke-dasharray:none;stroke-opacity:1"
           id="path406"
           inkscape:connector-curvature="0" /></g><path
         d="m 73.355,17.777 2.27,0 0,-0.547 -3.055,0 0,0.547 c 0.25,0.254 0.586,0.598 1.012,1.028 0.426,0.429 0.695,0.711 0.805,0.836 0.207,0.23 0.351,0.429 0.433,0.593 0.086,0.161 0.125,0.321 0.125,0.477 0,0.258 -0.09,0.465 -0.269,0.625 -0.18,0.16 -0.41,0.242 -0.699,0.242 -0.204,0 -0.418,-0.035 -0.649,-0.105 -0.223,-0.071 -0.465,-0.18 -0.723,-0.325 l 0,0.661 c 0.262,0.105 0.504,0.183 0.735,0.238 0.226,0.051 0.433,0.078 0.625,0.078 0.496,0 0.894,-0.125 1.191,-0.375 0.297,-0.246 0.446,-0.578 0.446,-0.996 0,-0.199 -0.04,-0.387 -0.114,-0.563 -0.074,-0.175 -0.207,-0.386 -0.402,-0.625 -0.055,-0.062 -0.227,-0.242 -0.516,-0.543 -0.285,-0.296 -0.691,-0.711 -1.215,-1.246 z"
         style="fill:#000000;fill-opacity:1;fill-rule:nonzero;stroke:none"
         id="path408"
         inkscape:connector-curvature="0" /><g
         id="g410"
         transform="matrix(1,0,0,-1,0,216)"><path
           d="m 96.809,189.141 0,-60.352"
           style="fill:none;stroke:#b0b0b0;stroke-width:0.52780598;stroke-linecap:square;stroke-linejoin:round;stroke-miterlimit:4;stroke-dasharray:none;stroke-opacity:1"
           id="path412"
           inkscape:connector-curvature="0" /></g><g
         id="g414"
         transform="matrix(1,0,0,-1,0,216)"><path
           d="m 96.809,189.141 0,2.308"
           style="fill:none;stroke:#000000;stroke-width:0.52780598;stroke-linecap:butt;stroke-linejoin:round;stroke-miterlimit:4;stroke-dasharray:none;stroke-opacity:1"
           id="path416"
           inkscape:connector-curvature="0" /></g><path
         d="m 97.203,21.473 -1.644,-2.567 1.644,0 0,2.567 z m -0.172,0.566 0.817,0 0,-3.133 0.687,0 0,-0.543 -0.687,0 0,-1.133 -0.645,0 0,1.133 -2.172,0 0,0.629 2,3.047 z"
         style="fill:#000000;fill-opacity:1;fill-rule:nonzero;stroke:none"
         id="path418"
         inkscape:connector-curvature="0" /><g
         id="g420"
         transform="matrix(1,0,0,-1,0,216)"><path
           d="m 119.426,189.141 0,-60.352"
           style="fill:none;stroke:#b0b0b0;stroke-width:0.52780598;stroke-linecap:square;stroke-linejoin:round;stroke-miterlimit:4;stroke-dasharray:none;stroke-opacity:1"
           id="path422"
           inkscape:connector-curvature="0" /></g><g
         id="g424"
         transform="matrix(1,0,0,-1,0,216)"><path
           d="m 119.426,189.141 0,2.308"
           style="fill:none;stroke:#000000;stroke-width:0.52780598;stroke-linecap:butt;stroke-linejoin:round;stroke-miterlimit:4;stroke-dasharray:none;stroke-opacity:1"
           id="path426"
           inkscape:connector-curvature="0" /></g><path
         d="m 119.508,19.895 c -0.293,0 -0.528,-0.102 -0.696,-0.301 -0.171,-0.199 -0.257,-0.473 -0.257,-0.821 0,-0.347 0.086,-0.621 0.257,-0.82 0.168,-0.203 0.403,-0.301 0.696,-0.301 0.289,0 0.523,0.098 0.691,0.301 0.172,0.199 0.258,0.473 0.258,0.82 0,0.348 -0.086,0.622 -0.258,0.821 -0.168,0.199 -0.402,0.301 -0.691,0.301 z m 1.289,2.039 0,-0.594 c -0.164,0.078 -0.328,0.137 -0.492,0.176 -0.168,0.043 -0.332,0.062 -0.496,0.062 -0.43,0 -0.758,-0.144 -0.985,-0.433 -0.226,-0.293 -0.355,-0.731 -0.386,-1.317 0.124,0.188 0.285,0.332 0.476,0.43 0.191,0.101 0.402,0.152 0.629,0.152 0.484,0 0.867,-0.148 1.148,-0.441 0.278,-0.293 0.418,-0.692 0.418,-1.196 0,-0.496 -0.144,-0.89 -0.437,-1.191 -0.293,-0.297 -0.68,-0.445 -1.164,-0.445 -0.559,0 -0.985,0.211 -1.278,0.636 -0.292,0.43 -0.441,1.047 -0.441,1.856 0,0.762 0.18,1.367 0.539,1.82 0.363,0.449 0.848,0.676 1.453,0.676 0.164,0 0.328,-0.016 0.496,-0.047 0.168,-0.031 0.34,-0.082 0.52,-0.144 z"
         style="fill:#000000;fill-opacity:1;fill-rule:nonzero;stroke:none"
         id="path428"
         inkscape:connector-curvature="0" /><g
         id="g430"
         transform="matrix(1,0,0,-1,0,216)"><path
           d="m 142.047,189.141 0,-60.352"
           style="fill:none;stroke:#b0b0b0;stroke-width:0.52780598;stroke-linecap:square;stroke-linejoin:round;stroke-miterlimit:4;stroke-dasharray:none;stroke-opacity:1"
           id="path432"
           inkscape:connector-curvature="0" /></g><g
         id="g434"
         transform="matrix(1,0,0,-1,0,216)"><path
           d="m 142.047,189.141 0,2.308"
           style="fill:none;stroke:#000000;stroke-width:0.52780598;stroke-linecap:butt;stroke-linejoin:round;stroke-miterlimit:4;stroke-dasharray:none;stroke-opacity:1"
           id="path436"
           inkscape:connector-curvature="0" /></g><path
         d="m 142.043,19.512 c -0.309,0 -0.551,-0.082 -0.731,-0.246 -0.175,-0.168 -0.261,-0.395 -0.261,-0.684 0,-0.289 0.086,-0.516 0.261,-0.684 0.18,-0.164 0.422,-0.246 0.731,-0.246 0.309,0 0.555,0.082 0.73,0.246 0.18,0.168 0.27,0.395 0.27,0.684 0,0.289 -0.09,0.516 -0.266,0.684 -0.175,0.164 -0.422,0.246 -0.734,0.246 z m -0.648,0.277 c -0.282,0.07 -0.497,0.199 -0.653,0.391 -0.156,0.191 -0.234,0.425 -0.234,0.699 0,0.383 0.137,0.687 0.41,0.91 0.273,0.227 0.648,0.336 1.125,0.336 0.48,0 0.855,-0.109 1.129,-0.336 0.273,-0.223 0.41,-0.527 0.41,-0.91 0,-0.274 -0.078,-0.508 -0.234,-0.699 -0.157,-0.192 -0.371,-0.321 -0.649,-0.391 0.313,-0.07 0.559,-0.215 0.731,-0.43 0.175,-0.211 0.265,-0.468 0.265,-0.777 0,-0.465 -0.144,-0.824 -0.429,-1.074 -0.286,-0.25 -0.692,-0.371 -1.223,-0.371 -0.527,0 -0.938,0.121 -1.223,0.371 -0.285,0.25 -0.425,0.609 -0.425,1.074 0,0.309 0.089,0.566 0.265,0.777 0.176,0.215 0.422,0.36 0.735,0.43 z m -0.239,1.027 c 0,-0.246 0.078,-0.441 0.231,-0.582 0.156,-0.14 0.375,-0.207 0.656,-0.207 0.281,0 0.5,0.067 0.656,0.207 0.16,0.141 0.239,0.336 0.239,0.582 0,0.25 -0.079,0.446 -0.239,0.586 -0.156,0.137 -0.375,0.207 -0.656,0.207 -0.281,0 -0.5,-0.07 -0.656,-0.207 -0.153,-0.14 -0.231,-0.336 -0.231,-0.586 z"
         style="fill:#000000;fill-opacity:1;fill-rule:nonzero;stroke:none"
         id="path438"
         inkscape:connector-curvature="0" /><g
         id="g440"
         transform="matrix(1,0,0,-1,0,216)"><path
           d="m 164.664,189.141 0,-60.352"
           style="fill:none;stroke:#b0b0b0;stroke-width:0.52780598;stroke-linecap:square;stroke-linejoin:round;stroke-miterlimit:4;stroke-dasharray:none;stroke-opacity:1"
           id="path442"
           inkscape:connector-curvature="0" /></g><g
         id="g444"
         transform="matrix(1,0,0,-1,0,216)"><path
           d="m 164.664,189.141 0,2.308"
           style="fill:none;stroke:#000000;stroke-width:0.52780598;stroke-linecap:butt;stroke-linejoin:round;stroke-miterlimit:4;stroke-dasharray:none;stroke-opacity:1"
           id="path446"
           inkscape:connector-curvature="0" /></g><path
         d="m 161.285,17.777 1.063,0 0,3.668 -1.157,-0.23 0,0.594 1.153,0.23 0.648,0 0,-4.262 1.063,0 0,-0.547 -2.77,0 0,0.547 z"
         style="fill:#000000;fill-opacity:1;fill-rule:nonzero;stroke:none"
         id="path448"
         inkscape:connector-curvature="0" /><path
         d="m 166.762,21.609 c -0.336,0 -0.586,-0.164 -0.754,-0.492 -0.168,-0.332 -0.254,-0.828 -0.254,-1.488 0,-0.66 0.086,-1.152 0.254,-1.484 0.168,-0.329 0.418,-0.493 0.754,-0.493 0.34,0 0.59,0.164 0.758,0.493 0.171,0.332 0.253,0.824 0.253,1.484 0,0.66 -0.082,1.156 -0.253,1.488 -0.168,0.328 -0.418,0.492 -0.758,0.492 z m 0,0.516 c 0.539,0 0.953,-0.211 1.238,-0.641 0.281,-0.425 0.426,-1.043 0.426,-1.855 0,-0.809 -0.145,-1.426 -0.426,-1.856 -0.285,-0.425 -0.699,-0.636 -1.238,-0.636 -0.539,0 -0.95,0.211 -1.235,0.636 -0.285,0.43 -0.425,1.047 -0.425,1.856 0,0.812 0.14,1.43 0.425,1.855 0.285,0.43 0.696,0.641 1.235,0.641 z"
         style="fill:#000000;fill-opacity:1;fill-rule:nonzero;stroke:none"
         id="path450"
         inkscape:connector-curvature="0" /><g
         id="g452"
         transform="matrix(1,0,0,-1,0,216)"><path
           d="m 187.285,189.141 0,-60.352"
           style="fill:none;stroke:#b0b0b0;stroke-width:0.52780598;stroke-linecap:square;stroke-linejoin:round;stroke-miterlimit:4;stroke-dasharray:none;stroke-opacity:1"
           id="path454"
           inkscape:connector-curvature="0" /></g><g
         id="g456"
         transform="matrix(1,0,0,-1,0,216)"><path
           d="m 187.285,189.141 0,2.308"
           style="fill:none;stroke:#000000;stroke-width:0.52780598;stroke-linecap:butt;stroke-linejoin:round;stroke-miterlimit:4;stroke-dasharray:none;stroke-opacity:1"
           id="path458"
           inkscape:connector-curvature="0" /></g><path
         d="m 183.906,17.777 1.063,0 0,3.668 -1.157,-0.23 0,0.594 1.149,0.23 0.652,0 0,-4.262 1.063,0 0,-0.547 -2.77,0 0,0.547 z"
         style="fill:#000000;fill-opacity:1;fill-rule:nonzero;stroke:none"
         id="path460"
         inkscape:connector-curvature="0" /><path
         d="m 188.551,17.777 2.269,0 0,-0.547 -3.05,0 0,0.547 c 0.246,0.254 0.582,0.598 1.007,1.028 0.426,0.429 0.696,0.711 0.805,0.836 0.207,0.23 0.352,0.429 0.438,0.593 0.082,0.161 0.125,0.321 0.125,0.477 0,0.258 -0.09,0.465 -0.27,0.625 -0.18,0.16 -0.414,0.242 -0.703,0.242 -0.203,0 -0.418,-0.035 -0.645,-0.105 -0.226,-0.071 -0.468,-0.18 -0.726,-0.325 l 0,0.661 c 0.261,0.105 0.508,0.183 0.734,0.238 0.227,0.051 0.438,0.078 0.625,0.078 0.5,0 0.895,-0.125 1.192,-0.375 0.296,-0.246 0.445,-0.578 0.445,-0.996 0,-0.199 -0.039,-0.387 -0.113,-0.563 -0.071,-0.175 -0.207,-0.386 -0.403,-0.625 -0.054,-0.062 -0.226,-0.242 -0.511,-0.543 -0.29,-0.296 -0.696,-0.711 -1.219,-1.246 z"
         style="fill:#000000;fill-opacity:1;fill-rule:nonzero;stroke:none"
         id="path462"
         inkscape:connector-curvature="0" /><g
         id="g464"
         transform="matrix(1,0,0,-1,0,216)"><path
           d="m 209.906,189.141 0,-60.352"
           style="fill:none;stroke:#b0b0b0;stroke-width:0.52780598;stroke-linecap:square;stroke-linejoin:round;stroke-miterlimit:4;stroke-dasharray:none;stroke-opacity:1"
           id="path466"
           inkscape:connector-curvature="0" /></g><g
         id="g468"
         transform="matrix(1,0,0,-1,0,216)"><path
           d="m 209.906,189.141 0,2.308"
           style="fill:none;stroke:#000000;stroke-width:0.52780598;stroke-linecap:butt;stroke-linejoin:round;stroke-miterlimit:4;stroke-dasharray:none;stroke-opacity:1"
           id="path470"
           inkscape:connector-curvature="0" /></g><path
         d="m 206.527,17.777 1.063,0 0,3.668 -1.156,-0.23 0,0.594 1.148,0.23 0.652,0 0,-4.262 1.063,0 0,-0.547 -2.77,0 0,0.547 z"
         style="fill:#000000;fill-opacity:1;fill-rule:nonzero;stroke:none"
         id="path472"
         inkscape:connector-curvature="0" /><path
         d="m 212.398,21.473 -1.644,-2.567 1.644,0 0,2.567 z m -0.171,0.566 0.82,0 0,-3.133 0.683,0 0,-0.543 -0.683,0 0,-1.133 -0.649,0 0,1.133 -2.171,0 0,0.629 2,3.047 z"
         style="fill:#000000;fill-opacity:1;fill-rule:nonzero;stroke:none"
         id="path474"
         inkscape:connector-curvature="0" /><g
         id="g476"
         transform="matrix(1,0,0,-1,0,216)"><path
           d="m 44.5,173.922 180.391,0"
           style="fill:none;stroke:#b0b0b0;stroke-width:0.52780598;stroke-linecap:square;stroke-linejoin:round;stroke-miterlimit:4;stroke-dasharray:none;stroke-opacity:1"
           id="path478"
           inkscape:connector-curvature="0" /></g><g
         id="g480"
         transform="matrix(1,0,0,-1,0,216)"><path
           d="m 44.5,173.922 -2.309,0"
           style="fill:none;stroke:#000000;stroke-width:0.52780598;stroke-linecap:butt;stroke-linejoin:round;stroke-miterlimit:4;stroke-dasharray:none;stroke-opacity:1"
           id="path482"
           inkscape:connector-curvature="0" /></g><path
         d="m 31.484,43.953 c -0.332,0 -0.586,-0.164 -0.754,-0.496 -0.168,-0.328 -0.253,-0.824 -0.253,-1.484 0,-0.661 0.085,-1.157 0.253,-1.485 0.168,-0.332 0.422,-0.496 0.754,-0.496 0.34,0 0.59,0.164 0.762,0.496 0.168,0.328 0.25,0.824 0.25,1.485 0,0.66 -0.082,1.156 -0.25,1.484 -0.172,0.332 -0.422,0.496 -0.762,0.496 z m 0,0.516 c 0.539,0 0.954,-0.215 1.239,-0.641 0.285,-0.426 0.425,-1.047 0.425,-1.855 0,-0.813 -0.14,-1.43 -0.425,-1.856 -0.285,-0.426 -0.7,-0.64 -1.239,-0.64 -0.539,0 -0.949,0.214 -1.234,0.64 -0.285,0.426 -0.426,1.043 -0.426,1.856 0,0.808 0.141,1.429 0.426,1.855 0.285,0.426 0.695,0.641 1.234,0.641 z"
         style="fill:#000000;fill-opacity:1;fill-rule:nonzero;stroke:none"
         id="path484"
         inkscape:connector-curvature="0" /><path
         d="m 34.293,40.391 0.68,0 0,-0.82 -0.68,0 0,0.82 z"
         style="fill:#000000;fill-opacity:1;fill-rule:nonzero;stroke:none"
         id="path486"
         inkscape:connector-curvature="0" /><path
         d="m 36.395,44.383 2.554,0 0,-0.551 -1.957,0 0,-1.176 c 0.094,0.032 0.188,0.055 0.281,0.071 0.094,0.015 0.192,0.023 0.286,0.023 0.535,0 0.961,-0.148 1.273,-0.441 0.316,-0.293 0.473,-0.692 0.473,-1.196 0,-0.515 -0.16,-0.918 -0.485,-1.207 -0.32,-0.285 -0.773,-0.429 -1.363,-0.429 -0.199,0 -0.406,0.019 -0.617,0.05 -0.207,0.035 -0.422,0.086 -0.649,0.157 l 0,0.656 c 0.196,-0.106 0.395,-0.184 0.602,-0.238 0.203,-0.051 0.422,-0.075 0.652,-0.075 0.371,0 0.668,0.098 0.883,0.293 0.219,0.192 0.324,0.457 0.324,0.793 0,0.336 -0.105,0.602 -0.324,0.797 -0.215,0.195 -0.512,0.293 -0.883,0.293 -0.172,0 -0.347,-0.019 -0.519,-0.058 -0.172,-0.04 -0.352,-0.098 -0.531,-0.18 l 0,2.418 z"
         style="fill:#000000;fill-opacity:1;fill-rule:nonzero;stroke:none"
         id="path488"
         inkscape:connector-curvature="0" /><g
         id="g490"
         transform="matrix(1,0,0,-1,0,216)"><path
           d="m 44.5,157.434 180.391,0"
           style="fill:none;stroke:#b0b0b0;stroke-width:0.52780598;stroke-linecap:square;stroke-linejoin:round;stroke-miterlimit:4;stroke-dasharray:none;stroke-opacity:1"
           id="path492"
           inkscape:connector-curvature="0" /></g><g
         id="g494"
         transform="matrix(1,0,0,-1,0,216)"><path
           d="m 44.5,157.434 -2.309,0"
           style="fill:none;stroke:#000000;stroke-width:0.52780598;stroke-linecap:butt;stroke-linejoin:round;stroke-miterlimit:4;stroke-dasharray:none;stroke-opacity:1"
           id="path496"
           inkscape:connector-curvature="0" /></g><path
         d="m 30.207,56.605 1.063,0 0,3.672 -1.157,-0.234 0,0.594 1.153,0.23 0.648,0 0,-4.262 1.063,0 0,-0.546 -2.77,0 0,0.546 z"
         style="fill:#000000;fill-opacity:1;fill-rule:nonzero;stroke:none"
         id="path498"
         inkscape:connector-curvature="0" /><path
         d="m 34.293,56.879 0.68,0 0,-0.82 -0.68,0 0,0.82 z"
         style="fill:#000000;fill-opacity:1;fill-rule:nonzero;stroke:none"
         id="path500"
         inkscape:connector-curvature="0" /><path
         d="m 37.781,60.441 c -0.336,0 -0.586,-0.168 -0.758,-0.496 -0.168,-0.328 -0.25,-0.824 -0.25,-1.488 0,-0.656 0.082,-1.152 0.25,-1.48 0.172,-0.332 0.422,-0.497 0.758,-0.497 0.336,0 0.59,0.165 0.758,0.497 0.168,0.328 0.254,0.824 0.254,1.48 0,0.664 -0.086,1.16 -0.254,1.488 -0.168,0.328 -0.422,0.496 -0.758,0.496 z m 0,0.516 c 0.539,0 0.949,-0.215 1.235,-0.641 0.285,-0.425 0.425,-1.046 0.425,-1.859 0,-0.809 -0.14,-1.426 -0.425,-1.852 -0.286,-0.425 -0.696,-0.64 -1.235,-0.64 -0.539,0 -0.953,0.215 -1.234,0.64 -0.285,0.426 -0.43,1.043 -0.43,1.852 0,0.813 0.145,1.434 0.43,1.859 0.281,0.426 0.695,0.641 1.234,0.641 z"
         style="fill:#000000;fill-opacity:1;fill-rule:nonzero;stroke:none"
         id="path502"
         inkscape:connector-curvature="0" /><g
         id="g504"
         transform="matrix(1,0,0,-1,0,216)"><path
           d="m 44.5,140.945 180.391,0"
           style="fill:none;stroke:#b0b0b0;stroke-width:0.52780598;stroke-linecap:square;stroke-linejoin:round;stroke-miterlimit:4;stroke-dasharray:none;stroke-opacity:1"
           id="path506"
           inkscape:connector-curvature="0" /></g><g
         id="g508"
         transform="matrix(1,0,0,-1,0,216)"><path
           d="m 44.5,140.945 -2.309,0"
           style="fill:none;stroke:#000000;stroke-width:0.52780598;stroke-linecap:butt;stroke-linejoin:round;stroke-miterlimit:4;stroke-dasharray:none;stroke-opacity:1"
           id="path510"
           inkscape:connector-curvature="0" /></g><path
         d="m 30.207,73.094 1.063,0 0,3.672 -1.157,-0.235 0,0.594 1.153,0.23 0.648,0 0,-4.261 1.063,0 0,-0.547 -2.77,0 0,0.547 z"
         style="fill:#000000;fill-opacity:1;fill-rule:nonzero;stroke:none"
         id="path512"
         inkscape:connector-curvature="0" /><path
         d="m 34.293,73.367 0.68,0 0,-0.82 -0.68,0 0,0.82 z"
         style="fill:#000000;fill-opacity:1;fill-rule:nonzero;stroke:none"
         id="path514"
         inkscape:connector-curvature="0" /><path
         d="m 36.395,77.355 2.554,0 0,-0.546 -1.957,0 0,-1.18 c 0.094,0.035 0.188,0.059 0.281,0.074 0.094,0.016 0.192,0.024 0.286,0.024 0.535,0 0.961,-0.149 1.273,-0.442 0.316,-0.293 0.473,-0.691 0.473,-1.195 0,-0.516 -0.16,-0.918 -0.485,-1.207 -0.32,-0.285 -0.773,-0.43 -1.363,-0.43 -0.199,0 -0.406,0.016 -0.617,0.051 -0.207,0.035 -0.422,0.086 -0.649,0.156 l 0,0.652 c 0.196,-0.105 0.395,-0.183 0.602,-0.234 C 36.996,73.027 37.215,73 37.445,73 c 0.371,0 0.668,0.098 0.883,0.293 0.219,0.195 0.324,0.461 0.324,0.797 0,0.336 -0.105,0.601 -0.324,0.797 -0.215,0.195 -0.512,0.293 -0.883,0.293 -0.172,0 -0.347,-0.02 -0.519,-0.059 -0.172,-0.039 -0.352,-0.098 -0.531,-0.18 l 0,2.414 z"
         style="fill:#000000;fill-opacity:1;fill-rule:nonzero;stroke:none"
         id="path516"
         inkscape:connector-curvature="0" /><g
         id="g518"
         transform="matrix(1,0,0,-1,0,216)"><path
           d="m 52.699,142.703 5.656,0.18 5.653,1.332 5.656,4.211 5.656,6.808 5.653,7.586 5.656,6.352 5.652,4.457 5.657,2.933 5.656,1.926 5.652,1.192 5.656,0.824 5.657,0.781 5.652,0.746 5.656,0.61 5.656,0.468 5.653,0.36 5.656,0.289 5.656,0.269 5.653,0.301 5.656,0.301 5.656,0.281 5.652,0.254 5.657,0.234 5.656,0.219 5.652,0.195 5.657,0.176 5.656,0.153 5.652,0.136 5.656,0.118"
           style="fill:none;stroke:#000000;stroke-width:0.989636;stroke-linecap:square;stroke-linejoin:round;stroke-miterlimit:4;stroke-dasharray:none;stroke-opacity:1"
           id="path520"
           inkscape:connector-curvature="0" /></g><g
         id="g522"
         transform="matrix(1,0,0,-1,0,216)"><path
           d="m 52.699,133.43 5.656,0.078 5.653,0.496 5.656,0.894 5.656,1.247 5.653,1.277 5.656,1.121 5.652,0.949 5.657,0.801 5.656,0.758 5.652,0.922 5.656,1.558 5.657,2.477 5.652,2.804 5.656,2.579 5.656,2.609 5.653,2.336 5.656,1.434 5.656,0.968 5.653,1.063 5.656,1.043 5.656,0.715 5.652,0.269 5.657,-0.152 5.656,-0.485 5.652,-0.711 5.657,-0.847 5.656,-0.926 5.652,-0.961 5.656,-0.984"
           style="fill:none;stroke:#ff0000;stroke-width:0.989636;stroke-linecap:square;stroke-linejoin:round;stroke-miterlimit:4;stroke-dasharray:none;stroke-opacity:1"
           id="path524"
           inkscape:connector-curvature="0" /></g><g
         id="g526"
         transform="matrix(1,0,0,-1,0,216)"><path
           d="m 52.699,133.223 5.656,0.14 5.653,0.332 5.656,0.938 5.656,1.847 5.653,2.649 5.656,2.676 5.652,2.187 5.657,1.633 5.656,1.164 5.652,0.75 5.656,0.438 5.657,0.265 5.652,0.176 5.656,0.113 5.656,0.067 5.653,0.043 5.656,0.023 5.656,-0.016 5.653,-0.05 5.656,-0.071 5.656,-0.074 5.652,-0.07 11.313,-0.11 5.652,-0.058 5.657,-0.063 5.656,-0.058 5.652,-0.055 5.656,-0.047"
           style="fill:none;stroke:#ff0000;stroke-width:0.989636;stroke-linecap:square;stroke-linejoin:round;stroke-miterlimit:4;stroke-dasharray:none;stroke-opacity:1"
           id="path528"
           inkscape:connector-curvature="0" /></g><g
         id="g530"
         transform="matrix(1,0,0,-1,0,216)"><path
           d="m 52.699,133.863 5.656,0.078 5.653,1.235 5.656,4.476 5.656,6.789 5.653,6.125 5.656,2.84 5.652,0.699 5.657,-2.285 5.656,-3.043 5.652,-1.273 5.656,0.058 5.657,0.075 5.652,-0.504 5.656,-1.113 5.656,-1.512 5.653,-1.641 5.656,-1.574 5.656,-1.383 5.653,-1.164 5.656,-0.957 5.656,-0.789 5.652,-0.668 5.657,-0.609 5.656,-0.575 5.652,-0.566 5.657,-0.559 5.656,-0.449 5.652,0.102 5.656,1.121"
           style="fill:none;stroke:#ff0000;stroke-width:0.989636;stroke-linecap:square;stroke-linejoin:round;stroke-miterlimit:4;stroke-dasharray:none;stroke-opacity:1"
           id="path532"
           inkscape:connector-curvature="0" /></g><g
         id="g534"
         transform="matrix(1,0,0,-1,0,216)"><path
           d="m 52.699,131.531 5.656,0.078 5.653,1.289 5.656,2.965 5.656,4.891 5.653,5.777 5.656,4.942 5.652,3.511 5.657,2.082 5.656,0.914 5.652,0.122 5.656,-0.34 5.657,-0.559 5.652,-0.641 5.656,-0.652 5.656,-0.48 5.653,0.16 5.656,1.18 5.656,1.91 5.653,1.957 5.656,1.945 5.656,1.906 5.652,1.547 5.657,1.301 5.656,1.172 5.652,0.969 5.657,0.671 5.656,0.379 5.652,0.125 5.656,-0.078"
           style="fill:none;stroke:#ff0000;stroke-width:0.989636;stroke-linecap:square;stroke-linejoin:round;stroke-miterlimit:4;stroke-dasharray:none;stroke-opacity:1"
           id="path536"
           inkscape:connector-curvature="0" /></g><g
         id="g538"
         transform="matrix(1,0,0,-1,0,216)"><path
           d="m 52.699,132.352 5.656,0.054 5.653,0.508 5.656,1.91 5.656,5.039 5.653,6.672 5.656,8.512 5.652,6.469 5.657,1.914 5.656,-0.922 5.652,-2.156 5.656,-2.461 5.657,-2.289 5.652,-1.993 5.656,-1.738 5.656,-1.547 5.653,-1.386 5.656,-1.258 5.656,-1.024 5.653,-0.554 5.656,0.078 5.656,0.625 5.652,0.918 5.657,0.968 5.656,0.871 5.652,0.727 5.657,0.594 5.656,0.492 5.652,0.426 5.656,0.402"
           style="fill:none;stroke:#ff0000;stroke-width:0.989636;stroke-linecap:square;stroke-linejoin:round;stroke-miterlimit:4;stroke-dasharray:none;stroke-opacity:1"
           id="path540"
           inkscape:connector-curvature="0" /></g><g
         id="g542"
         transform="matrix(1,0,0,-1,0,216)"><path
           d="m 52.699,136.637 5.656,0.019 5.653,0.324 5.656,0.52 5.656,1.668 5.653,4.043 5.656,5.996 5.652,5.641 5.657,3.168 5.656,0.601 5.652,-0.742 5.656,-1.176 5.657,-1.402 5.652,-1.656 5.656,-1.782 5.656,-1.199 5.653,0.141 5.656,1.371 5.656,1.969 5.653,2.066 5.656,1.844 5.656,1.465 5.652,1.054 5.657,0.688 5.656,0.406 5.652,0.207 5.657,0.074 5.656,-0.019 5.652,-0.09 5.656,-0.156"
           style="fill:none;stroke:#ff0000;stroke-width:0.989636;stroke-linecap:square;stroke-linejoin:round;stroke-miterlimit:4;stroke-dasharray:none;stroke-opacity:1"
           id="path544"
           inkscape:connector-curvature="0" /></g><g
         id="g546"
         transform="matrix(1,0,0,-1,0,216)"><path
           d="m 52.699,135.707 5.656,0.09 5.653,0.828 5.656,3.828 5.656,6.016 5.653,8.648 5.656,6.821 5.652,1.324 5.657,-1.879 5.656,-2.836 5.652,-2.57 5.656,-1.543 5.657,-0.266 5.652,0.625 5.656,0.945 5.656,0.86 5.653,0.566 5.656,0.195 5.656,-0.035 5.653,-0.117 5.656,-0.117 5.656,-0.098 5.652,-0.051 5.657,-0.003 5.656,0.019 5.652,-0.004 5.657,-0.051 5.656,-0.105 5.652,-0.156 5.656,-0.196"
           style="fill:none;stroke:#ff0000;stroke-width:0.989636;stroke-linecap:square;stroke-linejoin:round;stroke-miterlimit:4;stroke-dasharray:none;stroke-opacity:1"
           id="path548"
           inkscape:connector-curvature="0" /></g><g
         id="g550"
         transform="matrix(1,0,0,-1,0,216)"><path
           d="m 52.699,139.449 5.656,0.024 5.653,0.289 5.656,1.383 5.656,1.8 5.653,2.274 5.656,2.605 5.652,2.207 5.657,1.223 5.656,-0.41 5.652,-1.703 5.656,1.203 5.657,4.183 5.652,4.262 5.656,3.258 5.656,2.18 5.653,1.335 5.656,0.79 5.656,0.464 5.653,0.274 5.656,0.137 5.656,0.019 5.652,-0.09 5.657,-0.187 5.656,-0.27 5.652,-0.332 5.657,-0.379 5.656,-0.41 5.652,-0.441 5.656,-0.571"
           style="fill:none;stroke:#ff0000;stroke-width:0.989636;stroke-linecap:square;stroke-linejoin:round;stroke-miterlimit:4;stroke-dasharray:none;stroke-opacity:1"
           id="path552"
           inkscape:connector-curvature="0" /></g><g
         id="g554"
         transform="matrix(1,0,0,-1,0,216)"><path
           d="m 52.699,141.77 5.656,0.21 5.653,0.231 5.656,1.004 5.656,1.664 5.653,3.309 5.656,7.207 5.652,6.605 5.657,2.039 5.656,-0.777 5.652,-1.922 5.656,-2.082 5.657,-1.645 5.652,-1.109 5.656,-0.746 5.656,-0.555 5.653,-0.473 5.656,-0.437 5.656,-0.379 5.653,-0.301 5.656,-0.23 5.656,-0.172 5.652,-0.145 5.657,-0.113 5.656,-0.074 5.652,-0.043 5.657,-0.02 5.656,-0.015 5.652,0 5.656,0.086"
           style="fill:none;stroke:#ff0000;stroke-width:0.989636;stroke-linecap:square;stroke-linejoin:round;stroke-miterlimit:4;stroke-dasharray:none;stroke-opacity:1"
           id="path556"
           inkscape:connector-curvature="0" /></g><g
         id="g558"
         transform="matrix(1,0,0,-1,0,216)"><path
           d="m 52.699,138.672 5.656,0.039 5.653,0.453 5.656,2.25 5.656,5.129 5.653,9.176 5.656,7.265 5.652,1.559 5.657,-0.465 5.656,1.945 5.652,2.809 5.656,1.324 5.657,-0.238 5.652,-1.309 5.656,-1.765 5.656,-1.418 5.653,-0.653 5.656,-0.003 5.656,0.378 5.653,0.461 5.656,0.344 5.656,0.141 5.652,-0.059 5.657,-0.211 5.656,-0.308 5.652,-0.368 5.657,-0.386 5.656,-0.407 5.652,-0.414 5.656,-0.421"
           style="fill:none;stroke:#ff0000;stroke-width:0.989636;stroke-linecap:square;stroke-linejoin:round;stroke-miterlimit:4;stroke-dasharray:none;stroke-opacity:1"
           id="path560"
           inkscape:connector-curvature="0" /></g><g
         id="g562"
         transform="matrix(1,0,0,-1,0,216)"><path
           d="m 44.5,189.141 0,-60.352"
           style="fill:none;stroke:#000000;stroke-width:0.52780598;stroke-linecap:square;stroke-linejoin:miter;stroke-miterlimit:4;stroke-dasharray:none;stroke-opacity:1"
           id="path564"
           inkscape:connector-curvature="0" /></g><g
         id="g566"
         transform="matrix(1,0,0,-1,0,216)"><path
           d="m 224.891,189.141 0,-60.352"
           style="fill:none;stroke:#000000;stroke-width:0.52780598;stroke-linecap:square;stroke-linejoin:miter;stroke-miterlimit:4;stroke-dasharray:none;stroke-opacity:1"
           id="path568"
           inkscape:connector-curvature="0" /></g><g
         id="g570"
         transform="matrix(1,0,0,-1,0,216)"><path
           d="m 44.5,189.141 180.391,0"
           style="fill:none;stroke:#000000;stroke-width:0.52780598;stroke-linecap:square;stroke-linejoin:miter;stroke-miterlimit:4;stroke-dasharray:none;stroke-opacity:1"
           id="path572"
           inkscape:connector-curvature="0" /></g><g
         id="g574"
         transform="matrix(1,0,0,-1,0,216)"><path
           d="m 44.5,128.789 180.391,0"
           style="fill:none;stroke:#000000;stroke-width:0.52780598;stroke-linecap:square;stroke-linejoin:miter;stroke-miterlimit:4;stroke-dasharray:none;stroke-opacity:1"
           id="path576"
           inkscape:connector-curvature="0" /></g></g></g></svg>