<?xml version="1.0" encoding="UTF-8" standalone="no"?>
<!-- Created with matplotlib (http://matplotlib.org/) -->

<svg
   xmlns:dc="http://purl.org/dc/elements/1.1/"
   xmlns:cc="http://creativecommons.org/ns#"
   xmlns:rdf="http://www.w3.org/1999/02/22-rdf-syntax-ns#"
   xmlns:svg="http://www.w3.org/2000/svg"
   xmlns="http://www.w3.org/2000/svg"
   xmlns:xlink="http://www.w3.org/1999/xlink"
   xmlns:sodipodi="http://sodipodi.sourceforge.net/DTD/sodipodi-0.dtd"
   xmlns:inkscape="http://www.inkscape.org/namespaces/inkscape"
   height="2in"
   version="1.1"
   viewBox="0 0 233.99999 144.00001"
   width="3.25in"
   id="svg2"
   inkscape:version="0.91 r13725"
   sodipodi:docname="localization_convergence.svg">
  <metadata
     id="metadata833">
    <rdf:RDF>
      <cc:Work
         rdf:about="">
        <dc:format>image/svg+xml</dc:format>
        <dc:type
           rdf:resource="http://purl.org/dc/dcmitype/StillImage" />
        <dc:title></dc:title>
      </cc:Work>
    </rdf:RDF>
  </metadata>
  <sodipodi:namedview
     pagecolor="#ffffff"
     bordercolor="#666666"
     borderopacity="1"
     objecttolerance="10"
     gridtolerance="10"
     guidetolerance="10"
     inkscape:pageopacity="0"
     inkscape:pageshadow="2"
     inkscape:window-width="1865"
     inkscape:window-height="1056"
     id="namedview831"
     showgrid="false"
     inkscape:zoom="2.4556945"
     inkscape:cx="147.4776"
     inkscape:cy="103.1454"
     inkscape:window-x="55"
     inkscape:window-y="24"
     inkscape:window-maximized="1"
     inkscape:current-layer="figure_1"
     units="in" />
  <defs
     id="defs4"
     style="stroke-linecap:butt;stroke-linejoin:round">
    <style
       type="text/css"
       id="style6">
*{stroke-linecap:butt;stroke-linejoin:round;}
  </style>
  </defs>
  <g
     id="figure_1"
     style="stroke-linecap:butt;stroke-linejoin:round"
     transform="translate(0,-96.000031)">
    <g
       id="patch_1"
       style="stroke-linecap:butt;stroke-linejoin:round"
       transform="matrix(0.47953957,0,0,0.56529848,3.6104093,98.846303)">
      <path
         d="m 0,240.48 465.12,0 L 465.12,0 0,0 Z"
         style="fill:#ffffff;stroke-linecap:butt;stroke-linejoin:round"
         id="path10"
         inkscape:connector-curvature="0" />
    </g>
    <g
       id="line2d_37"
       style="stroke-linecap:butt;stroke-linejoin:round" />
    <g
       id="line2d_39"
       style="stroke-linecap:butt;stroke-linejoin:round" />
    <g
       id="line2d_41"
       style="stroke-linecap:butt;stroke-linejoin:round" />
    <g
       id="g4191"
       transform="matrix(0.51489017,0,0,0.51489017,-0.81704873,106.81389)"
       style="stroke-linecap:butt;stroke-linejoin:round">
      <g
         id="patch_2"
         style="stroke-linecap:butt;stroke-linejoin:round"
         transform="translate(0,-9.6000012)">
        <path
           d="m 58.14,214.0272 360.468,0 0,-185.1696 -360.468,0 z"
           style="fill:#ffffff;stroke-linecap:butt;stroke-linejoin:round"
           id="path14"
           inkscape:connector-curvature="0" />
      </g>
      <g
         id="matplotlib.axis_1"
         style="stroke-linecap:butt;stroke-linejoin:round"
         transform="translate(0,-9.6000012)">
        <g
           id="xtick_1"
           style="stroke-linecap:butt;stroke-linejoin:round">
          <g
             id="line2d_1"
             style="stroke-linecap:butt;stroke-linejoin:round">
            <path
               clip-path="url(#p5e06e8ea07)"
               d="m 58.14,214.0272 0,-185.1696"
               style="fill:none;stroke:#b0b0b0;stroke-width:0.80000001;stroke-linecap:square;stroke-linejoin:round"
               id="path19"
               inkscape:connector-curvature="0" />
          </g>
          <g
             id="line2d_2"
             style="stroke-linecap:butt;stroke-linejoin:round">
            <defs
               id="defs22">
              <path
                 d="M 0,0 0,3.5"
                 id="m10022e643a"
                 style="stroke:#000000;stroke-width:0.80000001;stroke-linecap:butt;stroke-linejoin:round"
                 inkscape:connector-curvature="0" />
            </defs>
            <g
               id="g25"
               style="stroke-linecap:butt;stroke-linejoin:round">
              <use
                 style="stroke:#000000;stroke-width:0.80000001;stroke-linecap:butt;stroke-linejoin:round"
                 x="58.139999"
                 xlink:href="#m10022e643a"
                 y="214.02721"
                 id="use27"
                 width="100%"
                 height="100%" />
            </g>
          </g>
          <g
             id="text_1"
             style="stroke-linecap:butt;stroke-linejoin:round">
            <!-- 0 -->
            <defs
               id="defs30">
              <path
                 d="m 31.78125,66.40625 q -7.609375,0 -11.453125,-7.5 Q 16.5,51.421875 16.5,36.375 q 0,-14.984375 3.828125,-22.484375 3.84375,-7.5 11.453125,-7.5 7.671875,0 11.5,7.5 3.84375,7.5 3.84375,22.484375 0,15.046875 -3.84375,22.53125 -3.828125,7.5 -11.5,7.5 m 0,7.8125 q 12.265625,0 18.734375,-9.703125 6.46875,-9.6875 6.46875,-28.140625 0,-18.40625 -6.46875,-28.109375 -6.46875,-9.6875 -18.734375,-9.6875 -12.25,0 -18.71875,9.6875 Q 6.59375,17.96875 6.59375,36.375 q 0,18.453125 6.46875,28.140625 6.46875,9.703125 18.71875,9.703125"
                 id="DejaVuSans-30"
                 inkscape:connector-curvature="0"
                 style="stroke-linecap:butt;stroke-linejoin:round" />
            </defs>
            <g
               transform="matrix(0.1,0,0,-0.1,54.95875,228.62564)"
               id="g33"
               style="stroke-linecap:butt;stroke-linejoin:round">
              <use
                 xlink:href="#DejaVuSans-30"
                 id="use35"
                 style="stroke-linecap:butt;stroke-linejoin:round"
                 x="0"
                 y="0"
                 width="100%"
                 height="100%" />
            </g>
          </g>
        </g>
        <g
           id="xtick_2"
           style="stroke-linecap:butt;stroke-linejoin:round">
          <g
             id="line2d_4"
             style="stroke-linecap:butt;stroke-linejoin:round">
            <g
               id="g42"
               style="stroke-linecap:butt;stroke-linejoin:round">
              <use
                 style="stroke:#000000;stroke-width:0.80000001;stroke-linecap:butt;stroke-linejoin:round"
                 x="130.2336"
                 xlink:href="#m10022e643a"
                 y="214.02721"
                 id="use44"
                 width="100%"
                 height="100%" />
            </g>
          </g>
          <g
             id="text_2"
             style="stroke-linecap:butt;stroke-linejoin:round">
            <!-- 2 -->
            <defs
               id="defs47">
              <path
                 d="m 19.1875,8.296875 34.421875,0 0,-8.296875 -46.28125,0 0,8.296875 q 5.609375,5.8125 15.296875,15.59375 9.703125,9.796875 12.1875,12.640625 4.734375,5.3125 6.609375,9 1.890625,3.6875 1.890625,7.25 0,5.8125 -4.078125,9.46875 -4.078125,3.671875 -10.625,3.671875 -4.640625,0 -9.796875,-1.609375 -5.140625,-1.609375 -11,-4.890625 l 0,9.96875 Q 13.765625,71.78125 18.9375,73 q 5.1875,1.21875 9.484375,1.21875 11.328125,0 18.0625,-5.671875 6.734375,-5.65625 6.734375,-15.125 0,-4.5 -1.6875,-8.53125 Q 49.859375,40.875 45.40625,35.40625 44.1875,33.984375 37.640625,27.21875 31.109375,20.453125 19.1875,8.296875"
                 id="DejaVuSans-32"
                 inkscape:connector-curvature="0"
                 style="stroke-linecap:butt;stroke-linejoin:round" />
            </defs>
            <g
               transform="matrix(0.1,0,0,-0.1,127.05235,228.62564)"
               id="g50"
               style="stroke-linecap:butt;stroke-linejoin:round">
              <use
                 xlink:href="#DejaVuSans-32"
                 id="use52"
                 style="stroke-linecap:butt;stroke-linejoin:round"
                 x="0"
                 y="0"
                 width="100%"
                 height="100%" />
            </g>
          </g>
        </g>
        <g
           id="xtick_3"
           style="stroke-linecap:butt;stroke-linejoin:round">
          <g
             id="line2d_6"
             style="stroke-linecap:butt;stroke-linejoin:round">
            <g
               id="g59"
               style="stroke-linecap:butt;stroke-linejoin:round">
              <use
                 style="stroke:#000000;stroke-width:0.80000001;stroke-linecap:butt;stroke-linejoin:round"
                 x="202.32719"
                 xlink:href="#m10022e643a"
                 y="214.02721"
                 id="use61"
                 width="100%"
                 height="100%" />
            </g>
          </g>
          <g
             id="text_3"
             style="stroke-linecap:butt;stroke-linejoin:round">
            <!-- 4 -->
            <defs
               id="defs64">
              <path
                 d="m 37.796875,64.3125 -24.90625,-38.921875 24.90625,0 z m -2.59375,8.59375 12.40625,0 0,-47.515625 10.40625,0 0,-8.203125 -10.40625,0 0,-17.1875 -9.8125,0 0,17.1875 -32.90625,0 0,9.515625 z"
                 id="DejaVuSans-34"
                 inkscape:connector-curvature="0"
                 style="stroke-linecap:butt;stroke-linejoin:round" />
            </defs>
            <g
               transform="matrix(0.1,0,0,-0.1,199.14595,228.62564)"
               id="g67"
               style="stroke-linecap:butt;stroke-linejoin:round">
              <use
                 xlink:href="#DejaVuSans-34"
                 id="use69"
                 style="stroke-linecap:butt;stroke-linejoin:round"
                 x="0"
                 y="0"
                 width="100%"
                 height="100%" />
            </g>
          </g>
        </g>
        <g
           id="xtick_4"
           style="stroke-linecap:butt;stroke-linejoin:round">
          <g
             id="line2d_8"
             style="stroke-linecap:butt;stroke-linejoin:round">
            <g
               id="g76"
               style="stroke-linecap:butt;stroke-linejoin:round">
              <use
                 style="stroke:#000000;stroke-width:0.80000001;stroke-linecap:butt;stroke-linejoin:round"
                 x="274.42081"
                 xlink:href="#m10022e643a"
                 y="214.02721"
                 id="use78"
                 width="100%"
                 height="100%" />
            </g>
          </g>
          <g
             id="text_4"
             style="stroke-linecap:butt;stroke-linejoin:round">
            <!-- 6 -->
            <defs
               id="defs81">
              <path
                 d="m 33.015625,40.375 q -6.640625,0 -10.53125,-4.546875 -3.875,-4.53125 -3.875,-12.4375 0,-7.859375 3.875,-12.4375 3.890625,-4.5625 10.53125,-4.5625 6.640625,0 10.515625,4.5625 3.875,4.578125 3.875,12.4375 0,7.90625 -3.875,12.4375 Q 39.65625,40.375 33.015625,40.375 m 19.578125,30.921875 0,-8.984375 q -3.71875,1.75 -7.5,2.671875 -3.78125,0.9375 -7.5,0.9375 -9.765625,0 -14.921875,-6.59375 -5.140625,-6.59375 -5.875,-19.921875 2.875,4.25 7.21875,6.515625 4.359375,2.265625 9.578125,2.265625 10.984375,0 17.359375,-6.671875 6.375,-6.65625 6.375,-18.125 0,-11.234375 -6.640625,-18.03125 -6.640625,-6.78125 -17.671875,-6.78125 -12.65625,0 -19.34375,9.6875 -6.6875,9.703125 -6.6875,28.109375 0,17.28125 8.203125,27.5625 8.203125,10.28125 22.015625,10.28125 3.71875,0 7.5,-0.734375 3.78125,-0.734375 7.890625,-2.1875"
                 id="DejaVuSans-36"
                 inkscape:connector-curvature="0"
                 style="stroke-linecap:butt;stroke-linejoin:round" />
            </defs>
            <g
               transform="matrix(0.1,0,0,-0.1,271.23955,228.62564)"
               id="g84"
               style="stroke-linecap:butt;stroke-linejoin:round">
              <use
                 xlink:href="#DejaVuSans-36"
                 id="use86"
                 style="stroke-linecap:butt;stroke-linejoin:round"
                 x="0"
                 y="0"
                 width="100%"
                 height="100%" />
            </g>
          </g>
        </g>
        <g
           id="xtick_5"
           style="stroke-linecap:butt;stroke-linejoin:round">
          <g
             id="line2d_10"
             style="stroke-linecap:butt;stroke-linejoin:round">
            <g
               id="g93"
               style="stroke-linecap:butt;stroke-linejoin:round">
              <use
                 style="stroke:#000000;stroke-width:0.80000001;stroke-linecap:butt;stroke-linejoin:round"
                 x="346.5144"
                 xlink:href="#m10022e643a"
                 y="214.02721"
                 id="use95"
                 width="100%"
                 height="100%" />
            </g>
          </g>
          <g
             id="text_5"
             style="stroke-linecap:butt;stroke-linejoin:round">
            <!-- 8 -->
            <defs
               id="defs98">
              <path
                 d="m 31.78125,34.625 q -7.03125,0 -11.0625,-3.765625 -4.015625,-3.765625 -4.015625,-10.34375 0,-6.59375 4.015625,-10.359375 4.03125,-3.765625 11.0625,-3.765625 7.03125,0 11.078125,3.78125 4.0625,3.796875 4.0625,10.34375 0,6.578125 -4.03125,10.34375 Q 38.875,34.625 31.78125,34.625 m -9.859375,4.1875 Q 15.578125,40.375 12.03125,44.71875 8.5,49.078125 8.5,55.328125 q 0,8.734375 6.21875,13.8125 6.234375,5.078125 17.0625,5.078125 10.890625,0 17.09375,-5.078125 6.203125,-5.078125 6.203125,-13.8125 0,-6.25 -3.546875,-10.609375 Q 48,40.375 41.703125,38.8125 q 7.125,-1.65625 11.09375,-6.5 3.984375,-4.828125 3.984375,-11.796875 0,-10.609375 -6.46875,-16.28125 -6.46875,-5.65625 -18.53125,-5.65625 -12.046875,0 -18.53125,5.65625 -6.46875,5.671875 -6.46875,16.28125 0,6.96875 4,11.796875 4.015625,4.84375 11.140625,6.5 M 18.3125,54.390625 q 0,-5.65625 3.53125,-8.828125 3.546875,-3.171875 9.9375,-3.171875 6.359375,0 9.9375,3.171875 3.59375,3.171875 3.59375,8.828125 0,5.671875 -3.59375,8.84375 -3.578125,3.171875 -9.9375,3.171875 -6.390625,0 -9.9375,-3.171875 Q 18.3125,60.0625 18.3125,54.390625"
                 id="DejaVuSans-38"
                 inkscape:connector-curvature="0"
                 style="stroke-linecap:butt;stroke-linejoin:round" />
            </defs>
            <g
               transform="matrix(0.1,0,0,-0.1,343.33315,228.62564)"
               id="g101"
               style="stroke-linecap:butt;stroke-linejoin:round">
              <use
                 xlink:href="#DejaVuSans-38"
                 id="use103"
                 style="stroke-linecap:butt;stroke-linejoin:round"
                 x="0"
                 y="0"
                 width="100%"
                 height="100%" />
            </g>
          </g>
        </g>
        <g
           id="xtick_6"
           style="stroke-linecap:butt;stroke-linejoin:round">
          <g
             id="line2d_11"
             style="stroke-linecap:butt;stroke-linejoin:round">
            <path
               clip-path="url(#p5e06e8ea07)"
               d="m 418.608,214.0272 0,-185.1696"
               style="fill:none;stroke:#b0b0b0;stroke-width:0.80000001;stroke-linecap:square;stroke-linejoin:round"
               id="path107"
               inkscape:connector-curvature="0" />
          </g>
          <g
             id="line2d_12"
             style="stroke-linecap:butt;stroke-linejoin:round">
            <g
               id="g110"
               style="stroke-linecap:butt;stroke-linejoin:round">
              <use
                 style="stroke:#000000;stroke-width:0.80000001;stroke-linecap:butt;stroke-linejoin:round"
                 x="418.608"
                 xlink:href="#m10022e643a"
                 y="214.02721"
                 id="use112"
                 width="100%"
                 height="100%" />
            </g>
          </g>
          <g
             id="text_6"
             style="stroke-linecap:butt;stroke-linejoin:round">
            <!-- 10 -->
            <defs
               id="defs115">
              <path
                 d="m 12.40625,8.296875 16.109375,0 0,55.625 -17.53125,-3.515625 0,8.984375 17.4375,3.515625 9.859375,0 0,-64.609375 16.109375,0 0,-8.296875 -41.984375,0 z"
                 id="DejaVuSans-31"
                 inkscape:connector-curvature="0"
                 style="stroke-linecap:butt;stroke-linejoin:round" />
            </defs>
            <g
               transform="matrix(0.1,0,0,-0.1,412.2455,228.62564)"
               id="g118"
               style="stroke-linecap:butt;stroke-linejoin:round">
              <use
                 xlink:href="#DejaVuSans-31"
                 id="use120"
                 style="stroke-linecap:butt;stroke-linejoin:round"
                 x="0"
                 y="0"
                 width="100%"
                 height="100%" />
              <use
                 x="63.623047"
                 xlink:href="#DejaVuSans-30"
                 id="use122"
                 style="stroke-linecap:butt;stroke-linejoin:round"
                 y="0"
                 width="100%"
                 height="100%" />
            </g>
          </g>
        </g>
      </g>
      <g
         id="matplotlib.axis_2"
         style="stroke-linecap:butt;stroke-linejoin:round"
         transform="translate(0,-9.6000012)">
        <g
           id="ytick_1"
           style="stroke-linecap:butt;stroke-linejoin:round">
          <g
             id="line2d_14"
             style="stroke-linecap:butt;stroke-linejoin:round">
            <defs
               id="defs159">
              <path
                 d="M 0,0 -3.5,0"
                 id="m2a5ceb7e9c"
                 style="stroke:#000000;stroke-width:0.80000001;stroke-linecap:butt;stroke-linejoin:round"
                 inkscape:connector-curvature="0" />
            </defs>
            <g
               id="g162"
               style="stroke-linecap:butt;stroke-linejoin:round">
              <use
                 style="stroke:#000000;stroke-width:0.80000001;stroke-linecap:butt;stroke-linejoin:round"
                 x="58.139999"
                 xlink:href="#m2a5ceb7e9c"
                 y="210.85776"
                 id="use164"
                 width="100%"
                 height="100%" />
            </g>
          </g>
          <g
             id="text_8"
             style="stroke-linecap:butt;stroke-linejoin:round">
            <!-- 0 -->
            <g
               transform="matrix(0.1,0,0,-0.1,44.7775,214.65697)"
               id="g167"
               style="stroke-linecap:butt;stroke-linejoin:round">
              <use
                 xlink:href="#DejaVuSans-30"
                 id="use169"
                 style="stroke-linecap:butt;stroke-linejoin:round"
                 x="0"
                 y="0"
                 width="100%"
                 height="100%" />
            </g>
          </g>
        </g>
        <g
           id="ytick_2"
           style="stroke-linecap:butt;stroke-linejoin:round">
          <g
             id="line2d_16"
             style="stroke-linecap:butt;stroke-linejoin:round">
            <g
               id="g176"
               style="stroke-linecap:butt;stroke-linejoin:round">
              <use
                 style="stroke:#000000;stroke-width:0.80000001;stroke-linecap:butt;stroke-linejoin:round"
                 x="58.139999"
                 xlink:href="#m2a5ceb7e9c"
                 y="186.14003"
                 id="use178"
                 width="100%"
                 height="100%" />
            </g>
          </g>
          <g
             id="text_9"
             style="stroke-linecap:butt;stroke-linejoin:round">
            <!-- 5 -->
            <defs
               id="defs181">
              <path
                 d="m 10.796875,72.90625 38.71875,0 0,-8.3125 -29.6875,0 0,-17.859375 q 2.140625,0.734375 4.28125,1.09375 2.15625,0.359375 4.3125,0.359375 Q 40.625,48.1875 47.75,41.5 54.890625,34.8125 54.890625,23.390625 54.890625,11.625 47.5625,5.09375 40.234375,-1.421875 26.90625,-1.421875 q -4.59375,0 -9.359375,0.78125 -4.75,0.78125 -9.828125,2.34375 l 0,9.921875 q 4.390625,-2.390625 9.078125,-3.5625 4.6875,-1.171875 9.90625,-1.171875 8.453125,0 13.375,4.4375 4.9375,4.4375 4.9375,12.0625 0,7.609375 -4.9375,12.046875 -4.921875,4.453125 -13.375,4.453125 -3.953125,0 -7.890625,-0.875 -3.921875,-0.875 -8.015625,-2.734375 z"
                 id="DejaVuSans-35"
                 inkscape:connector-curvature="0"
                 style="stroke-linecap:butt;stroke-linejoin:round" />
            </defs>
            <g
               transform="matrix(0.1,0,0,-0.1,44.7775,189.93925)"
               id="g184"
               style="stroke-linecap:butt;stroke-linejoin:round">
              <use
                 xlink:href="#DejaVuSans-35"
                 id="use186"
                 style="stroke-linecap:butt;stroke-linejoin:round"
                 x="0"
                 y="0"
                 width="100%"
                 height="100%" />
            </g>
          </g>
        </g>
        <g
           id="ytick_3"
           style="stroke-linecap:butt;stroke-linejoin:round">
          <g
             id="line2d_18"
             style="stroke-linecap:butt;stroke-linejoin:round">
            <g
               id="g193"
               style="stroke-linecap:butt;stroke-linejoin:round">
              <use
                 style="stroke:#000000;stroke-width:0.80000001;stroke-linecap:butt;stroke-linejoin:round"
                 x="58.139999"
                 xlink:href="#m2a5ceb7e9c"
                 y="161.4223"
                 id="use195"
                 width="100%"
                 height="100%" />
            </g>
          </g>
          <g
             id="text_10"
             style="stroke-linecap:butt;stroke-linejoin:round">
            <!-- 10 -->
            <g
               transform="matrix(0.1,0,0,-0.1,38.415,165.22153)"
               id="g198"
               style="stroke-linecap:butt;stroke-linejoin:round">
              <use
                 xlink:href="#DejaVuSans-31"
                 id="use200"
                 style="stroke-linecap:butt;stroke-linejoin:round"
                 x="0"
                 y="0"
                 width="100%"
                 height="100%" />
              <use
                 x="63.623047"
                 xlink:href="#DejaVuSans-30"
                 id="use202"
                 style="stroke-linecap:butt;stroke-linejoin:round"
                 y="0"
                 width="100%"
                 height="100%" />
            </g>
          </g>
        </g>
        <g
           id="ytick_4"
           style="stroke-linecap:butt;stroke-linejoin:round">
          <g
             id="line2d_20"
             style="stroke-linecap:butt;stroke-linejoin:round">
            <g
               id="g209"
               style="stroke-linecap:butt;stroke-linejoin:round">
              <use
                 style="stroke:#000000;stroke-width:0.80000001;stroke-linecap:butt;stroke-linejoin:round"
                 x="58.139999"
                 xlink:href="#m2a5ceb7e9c"
                 y="136.70459"
                 id="use211"
                 width="100%"
                 height="100%" />
            </g>
          </g>
          <g
             id="text_11"
             style="stroke-linecap:butt;stroke-linejoin:round">
            <!-- 15 -->
            <g
               transform="matrix(0.1,0,0,-0.1,38.415,140.5038)"
               id="g214"
               style="stroke-linecap:butt;stroke-linejoin:round">
              <use
                 xlink:href="#DejaVuSans-31"
                 id="use216"
                 style="stroke-linecap:butt;stroke-linejoin:round"
                 x="0"
                 y="0"
                 width="100%"
                 height="100%" />
              <use
                 x="63.623047"
                 xlink:href="#DejaVuSans-35"
                 id="use218"
                 style="stroke-linecap:butt;stroke-linejoin:round"
                 y="0"
                 width="100%"
                 height="100%" />
            </g>
          </g>
        </g>
        <g
           id="ytick_5"
           style="stroke-linecap:butt;stroke-linejoin:round">
          <g
             id="line2d_22"
             style="stroke-linecap:butt;stroke-linejoin:round">
            <g
               id="g225"
               style="stroke-linecap:butt;stroke-linejoin:round">
              <use
                 style="stroke:#000000;stroke-width:0.80000001;stroke-linecap:butt;stroke-linejoin:round"
                 x="58.139999"
                 xlink:href="#m2a5ceb7e9c"
                 y="111.98686"
                 id="use227"
                 width="100%"
                 height="100%" />
            </g>
          </g>
          <g
             id="text_12"
             style="stroke-linecap:butt;stroke-linejoin:round">
            <!-- 20 -->
            <g
               transform="matrix(0.1,0,0,-0.1,38.415,115.78608)"
               id="g230"
               style="stroke-linecap:butt;stroke-linejoin:round">
              <use
                 xlink:href="#DejaVuSans-32"
                 id="use232"
                 style="stroke-linecap:butt;stroke-linejoin:round"
                 x="0"
                 y="0"
                 width="100%"
                 height="100%" />
              <use
                 x="63.623047"
                 xlink:href="#DejaVuSans-30"
                 id="use234"
                 style="stroke-linecap:butt;stroke-linejoin:round"
                 y="0"
                 width="100%"
                 height="100%" />
            </g>
          </g>
        </g>
        <g
           id="ytick_6"
           style="stroke-linecap:butt;stroke-linejoin:round">
          <g
             id="line2d_24"
             style="stroke-linecap:butt;stroke-linejoin:round">
            <g
               id="g241"
               style="stroke-linecap:butt;stroke-linejoin:round">
              <use
                 style="stroke:#000000;stroke-width:0.80000001;stroke-linecap:butt;stroke-linejoin:round"
                 x="58.139999"
                 xlink:href="#m2a5ceb7e9c"
                 y="87.269142"
                 id="use243"
                 width="100%"
                 height="100%" />
            </g>
          </g>
          <g
             id="text_13"
             style="stroke-linecap:butt;stroke-linejoin:round">
            <!-- 25 -->
            <g
               transform="matrix(0.1,0,0,-0.1,38.415,91.068361)"
               id="g246"
               style="stroke-linecap:butt;stroke-linejoin:round">
              <use
                 xlink:href="#DejaVuSans-32"
                 id="use248"
                 style="stroke-linecap:butt;stroke-linejoin:round"
                 x="0"
                 y="0"
                 width="100%"
                 height="100%" />
              <use
                 x="63.623047"
                 xlink:href="#DejaVuSans-35"
                 id="use250"
                 style="stroke-linecap:butt;stroke-linejoin:round"
                 y="0"
                 width="100%"
                 height="100%" />
            </g>
          </g>
        </g>
        <g
           id="ytick_7"
           style="stroke-linecap:butt;stroke-linejoin:round">
          <g
             id="line2d_26"
             style="stroke-linecap:butt;stroke-linejoin:round">
            <g
               id="g257"
               style="stroke-linecap:butt;stroke-linejoin:round">
              <use
                 style="stroke:#000000;stroke-width:0.80000001;stroke-linecap:butt;stroke-linejoin:round"
                 x="58.139999"
                 xlink:href="#m2a5ceb7e9c"
                 y="62.551418"
                 id="use259"
                 width="100%"
                 height="100%" />
            </g>
          </g>
          <g
             id="text_14"
             style="stroke-linecap:butt;stroke-linejoin:round">
            <!-- 30 -->
            <defs
               id="defs262">
              <path
                 d="M 40.578125,39.3125 Q 47.65625,37.796875 51.625,33 q 3.984375,-4.78125 3.984375,-11.8125 0,-10.78125 -7.421875,-16.703125 -7.421875,-5.90625 -21.09375,-5.90625 -4.578125,0 -9.4375,0.90625 -4.859375,0.90625 -10.03125,2.71875 l 0,9.515625 q 4.09375,-2.390625 8.96875,-3.609375 4.890625,-1.21875 10.21875,-1.21875 9.265625,0 14.125,3.65625 4.859375,3.65625 4.859375,10.640625 0,6.453125 -4.515625,10.078125 -4.515625,3.640625 -12.5625,3.640625 l -8.5,0 0,8.109375 8.890625,0 q 7.265625,0 11.125,2.90625 3.859375,2.90625 3.859375,8.375 0,5.609375 -3.984375,8.609375 -3.96875,3.015625 -11.390625,3.015625 -4.0625,0 -8.703125,-0.890625 Q 15.375,64.15625 9.8125,62.3125 l 0,8.78125 q 5.625,1.5625 10.53125,2.34375 4.90625,0.78125 9.25,0.78125 11.234375,0 17.765625,-5.109375 6.546875,-5.09375 6.546875,-13.78125 0,-6.0625 -3.46875,-10.234375 -3.46875,-4.171875 -9.859375,-5.78125"
                 id="DejaVuSans-33"
                 inkscape:connector-curvature="0"
                 style="stroke-linecap:butt;stroke-linejoin:round" />
            </defs>
            <g
               transform="matrix(0.1,0,0,-0.1,38.415,66.350639)"
               id="g265"
               style="stroke-linecap:butt;stroke-linejoin:round">
              <use
                 xlink:href="#DejaVuSans-33"
                 id="use267"
                 style="stroke-linecap:butt;stroke-linejoin:round"
                 x="0"
                 y="0"
                 width="100%"
                 height="100%" />
              <use
                 x="63.623047"
                 xlink:href="#DejaVuSans-30"
                 id="use269"
                 style="stroke-linecap:butt;stroke-linejoin:round"
                 y="0"
                 width="100%"
                 height="100%" />
            </g>
          </g>
        </g>
        <g
           id="ytick_8"
           style="stroke-linecap:butt;stroke-linejoin:round">
          <g
             id="line2d_28"
             style="stroke-linecap:butt;stroke-linejoin:round">
            <g
               id="g276"
               style="stroke-linecap:butt;stroke-linejoin:round">
              <use
                 style="stroke:#000000;stroke-width:0.80000001;stroke-linecap:butt;stroke-linejoin:round"
                 x="58.139999"
                 xlink:href="#m2a5ceb7e9c"
                 y="37.833698"
                 id="use278"
                 width="100%"
                 height="100%" />
            </g>
          </g>
          <g
             id="text_15"
             style="stroke-linecap:butt;stroke-linejoin:round">
            <!-- 35 -->
            <g
               transform="matrix(0.1,0,0,-0.1,38.415,41.632917)"
               id="g281"
               style="stroke-linecap:butt;stroke-linejoin:round">
              <use
                 xlink:href="#DejaVuSans-33"
                 id="use283"
                 style="stroke-linecap:butt;stroke-linejoin:round"
                 x="0"
                 y="0"
                 width="100%"
                 height="100%" />
              <use
                 x="63.623047"
                 xlink:href="#DejaVuSans-35"
                 id="use285"
                 style="stroke-linecap:butt;stroke-linejoin:round"
                 y="0"
                 width="100%"
                 height="100%" />
            </g>
          </g>
        </g>
      </g>
      <g
         id="line2d_29"
         style="stroke-linecap:butt;stroke-linejoin:round"
         transform="translate(0,-9.6000012)">
        <path
           clip-path="url(#p5e06e8ea07)"
           d="m 61.74468,73.921355 3.60468,19.192742 3.60468,21.934953 3.60468,14.04502 3.60468,12.55007 3.60468,10.76964 3.60468,8.3752 3.60468,7.47989 3.60468,3.52621 3.60468,-0.62779 3.60468,-2.92148 3.60468,-3.12905 3.60468,-1.75709 3.60468,0.76668 3.60468,3.52415 3.60468,3.93724 7.20936,6.4077 3.60468,2.95938 3.60468,2.45254 3.60468,1.70865 3.60468,1.50321 3.60468,1.71865 7.20936,3.77818 3.60468,1.75808 3.60468,1.314 3.60468,0.84135 3.60468,0.44308 3.60468,0.0797 3.60468,-0.16166 3.60468,0.0716 3.60468,0.61543 3.60468,0.8405 3.60468,0.70526 3.60468,0.36684 3.60468,0.0556 7.20936,-0.29128 3.60468,0.0661 7.20936,0.33746 7.20936,0.10723 10.81404,-0.0441 14.41872,0.51636 3.60468,-0.0895 7.20936,-0.5884 3.60468,-0.32287 3.60468,-0.0869 10.81404,0.48165 3.60468,-0.0368 14.41872,-0.5343 10.81404,0.16993 7.20936,0.73519 10.81404,1.18076 3.60468,0.14697 7.20936,0.0456 3.60468,0.31316 3.60468,0.44334 3.60468,0.31461 7.20936,0.1446 14.41872,0.16207 7.20936,0.36788 7.20936,0.0447 7.20936,0.0594 7.20936,0.15463 18.0234,-0.23198 7.20936,-0.0362 18.0234,0.3001 10.81404,0.52096 22.27924,-0.0932 0,0"
           style="fill:none;stroke:#bf00bf;stroke-width:1.5;stroke-linecap:square;stroke-linejoin:round"
           id="path329"
           inkscape:connector-curvature="0" />
      </g>
      <g
         id="line2d_30"
         style="stroke-linecap:butt;stroke-linejoin:round"
         transform="translate(0,-9.6000012)">
        <path
           clip-path="url(#p5e06e8ea07)"
           d="m 61.74468,148.8815 3.60468,18.11914 3.60468,11.29918 3.60468,6.25685 3.60468,4.52307 3.60468,3.75146 3.60468,2.85926 3.60468,1.78001 3.60468,1.38828 3.60468,1.29106 3.60468,1.01535 3.60468,0.58002 3.60468,0.23373 3.60468,0.21465 3.60468,0.36634 3.60468,0.43616 3.60468,0.35173 3.60468,0.35032 3.60468,0.362 3.60468,0.20158 3.60468,-0.004 3.60468,-0.13801 3.60468,-0.15231 3.60468,-0.096 3.60468,-0.0384 3.60468,0.0621 3.60468,0.0765 3.60468,0.12065 3.60468,0.1415 3.60468,0.11737 3.60468,0.12012 3.60468,0.11467 3.60468,0.0759 3.60468,0.051 3.60468,0.0934 3.60468,0.12256 3.60468,0.10265 3.60468,0.0607 3.60468,0.0211 3.60468,0.0404 3.60468,0.0597 3.60468,0.0277 3.60468,-0.009 3.60468,-0.0736 3.60468,-0.15895 3.60468,-0.20707 3.60468,-0.15857 3.60468,-0.0103 3.60468,0.0836 3.60468,0.0486 3.60468,-0.0259 3.60468,-0.0536 3.60468,-0.0103 3.60468,0.0603 3.60468,0.10058 3.60468,0.0831 3.60468,0.017 3.60468,-0.049 3.60468,-0.0576 3.60468,0.0158 3.60468,0.10643 3.60468,0.12806 3.60468,0.0842 3.60468,0.0224 3.60468,-0.0145 3.60468,-0.0108 3.60468,0.0268 3.60468,0.0604 3.60468,0.0773 3.60468,0.0693 3.60468,0.0506 3.60468,0.0241 3.60468,-0.003 3.60468,-0.0267 3.60468,-0.0357 3.60468,-0.0243 3.60468,-0.0267 3.60468,-0.0392 3.60468,-0.047 3.60468,-0.0353 3.60468,-0.009 3.60468,0.014 3.60468,0.0298 3.60468,0.0478 3.60468,0.0629 3.60468,0.08 3.60468,0.0854 3.60468,0.059 3.60468,0.0181 3.60468,-0.0139 3.60468,-0.032 3.60468,-0.0426 3.60468,-0.0546 3.60468,-0.062 3.60468,-0.0541 3.60468,-0.0278 3.60468,0.009 3.60468,0.0318 3.60468,0.0402 3.60468,0.0192"
           style="fill:none;stroke:#0000ff;stroke-width:1.5;stroke-linecap:square;stroke-linejoin:round"
           id="path332"
           inkscape:connector-curvature="0" />
      </g>
      <g
         id="line2d_31"
         style="stroke-linecap:butt;stroke-linejoin:round"
         transform="translate(0,-9.6000012)">
        <path
           clip-path="url(#p5e06e8ea07)"
           d="m 61.74468,60.31003 3.60468,10.08889 3.60468,20.3296 3.60468,13.64749 3.60468,13.72236 3.60468,15.21635 3.60468,12.07207 3.60468,3.52775 3.60468,-2.92678 3.60468,-5.10073 3.60468,-2.2523 3.60468,3.63428 3.60468,7.08773 3.60468,7.49033 3.60468,5.8859 3.60468,4.67319 3.60468,4.05767 3.60468,3.53523 3.60468,3.13175 3.60468,2.14697 3.60468,0.99735 3.60468,0.21561 3.60468,0.0253 3.60468,0.57343 3.60468,1.60724 3.60468,1.76769 3.60468,1.34153 3.60468,1.32416 3.60468,1.30863 3.60468,0.95975 3.60468,0.73642 3.60468,0.74014 3.60468,0.91084 3.60468,1.01263 3.60468,0.64626 3.60468,0.0941 3.60468,-0.30571 3.60468,-0.13482 3.60468,0.3541 3.60468,0.67903 3.60468,0.63285 3.60468,0.41657 3.60468,0.20563 3.60468,-0.10953 3.60468,-0.4841 3.60468,-0.54998 3.60468,-0.26887 3.60468,0.11347 3.60468,0.31893 3.60468,0.12511 3.60468,-0.25491 3.60468,-0.62116 3.60468,-0.60737 3.60468,-0.2452 3.60468,0.15898 3.60468,0.36803 3.60468,0.35122 3.60468,0.26013 3.60468,0.19374 3.60468,0.2327 3.60468,0.26787 3.60468,0.15644 3.60468,-0.0581 3.60468,-0.19617 3.60468,-0.0891 3.60468,0.12364 3.60468,0.14058 3.60468,-0.0713 3.60468,-0.33065 3.60468,-0.39231 3.60468,-0.24159 3.60468,0.0171 3.60468,0.15718 3.60468,0.0316 3.60468,-0.21163 3.60468,-0.39297 3.60468,-0.39233 3.60468,-0.18561 3.60468,0.0833 3.60468,0.22176 3.60468,0.18907 3.60468,0.15129 3.60468,0.14296 3.60468,0.13453 3.60468,0.10681 3.60468,0.0959 3.60468,0.14308 3.60468,0.27161 3.60468,0.3031 3.60468,0.1903 3.60468,0.0443 3.60468,-0.0312 3.60468,-0.0198 3.60468,0.0346 3.60468,0.0394 3.60468,0.082 3.60468,0.22702 3.60468,0.36577 3.60468,0.3595 3.60468,0.26578"
           style="fill:none;stroke:#000000;stroke-width:1.5;stroke-linecap:square;stroke-linejoin:round"
           id="path335"
           inkscape:connector-curvature="0" />
      </g>
      <g
         id="line2d_32"
         style="stroke-linecap:butt;stroke-linejoin:round"
         transform="translate(0,-9.6000012)">
        <path
           clip-path="url(#p5e06e8ea07)"
           d="m 61.74468,53.932221 3.60468,4.154654 3.60468,12.618632 3.60468,24.126461 3.60468,16.464192 3.60468,12.80928 3.60468,9.52014 3.60468,6.79385 3.60468,6.97886 3.60468,9.27429 3.60468,9.69435 3.60468,7.58117 3.60468,4.52676 3.60468,1.95996 3.60468,0.80563 3.60468,0.58234 3.60468,1.58813 3.60468,2.26329 3.60468,2.46437 3.60468,1.87961 3.60468,1.26922 3.60468,1.06737 3.60468,0.89659 3.60468,0.80472 3.60468,0.84963 3.60468,0.91472 3.60468,1.00757 3.60468,0.82598 3.60468,0.56938 3.60468,0.51625 3.60468,0.6226 3.60468,0.49553 3.60468,0.0845 3.60468,-0.47056 3.60468,-0.87072 3.60468,-0.97234 3.60468,-0.76956 3.60468,-0.53122 3.60468,-0.18031 3.60468,0.35495 3.60468,0.62623 3.60468,0.40432 3.60468,0.11101 3.60468,-0.0653 3.60468,-6.5e-4 3.60468,0.38389 3.60468,0.61886 3.60468,0.5549 3.60468,0.40502 3.60468,0.32888 3.60468,0.34436 3.60468,0.43618 3.60468,0.45263 3.60468,0.34719 3.60468,0.13321 3.60468,-0.11802 3.60468,-0.13252 3.60468,0.0672 3.60468,0.19604 3.60468,0.13937 3.60468,-0.0137 3.60468,-0.0896 3.60468,-0.10266 3.60468,-0.0841 3.60468,0.0275 3.60468,0.16781 3.60468,0.19045 3.60468,0.1318 3.60468,0.13182 3.60468,0.15944 3.60468,0.0919 3.60468,-0.0249 3.60468,-0.11367 3.60468,-0.16464 3.60468,-0.1827 3.60468,-0.11022 3.60468,0.0313 3.60468,0.16101 3.60468,0.25353 3.60468,0.25443 3.60468,0.22007 3.60468,0.19601 3.60468,0.16266 3.60468,0.11003 3.60468,0.0904 3.60468,0.0659 3.60468,0.008 3.60468,-0.0403 3.60468,-0.0236 3.60468,0.0283 3.60468,0.0145 3.60468,-0.0652 3.60468,-0.0751 3.60468,-0.018 3.60468,0.0381 3.60468,-0.0125 3.60468,-0.12037 3.60468,-0.14327 3.60468,-0.0944 3.60468,-0.15209"
           style="fill:none;stroke:#000000;stroke-width:1.5;stroke-linecap:square;stroke-linejoin:round"
           id="path338"
           inkscape:connector-curvature="0" />
      </g>
      <g
         id="line2d_33"
         style="stroke-linecap:butt;stroke-linejoin:round"
         transform="translate(0,-9.6000012)">
        <path
           clip-path="url(#p5e06e8ea07)"
           d="m 61.74468,63.493565 3.60468,0.414748 3.60468,17.884353 3.60468,20.234714 3.60468,18.68116 3.60468,14.99345 3.60468,8.85156 3.60468,6.50636 3.60468,6.89681 3.60468,7.45543 3.60468,7.18187 3.60468,5.77753 3.60468,3.8783 3.60468,2.07454 3.60468,1.10032 3.60468,1.52191 3.60468,1.86019 3.60468,1.65004 3.60468,1.04373 3.60468,0.0205 3.60468,-0.97954 3.60468,-1.36714 3.60468,-0.66505 3.60468,0.82246 3.60468,1.57702 3.60468,1.42252 3.60468,0.93416 3.60468,0.89061 3.60468,1.0242 3.60468,0.83721 3.60468,0.68663 3.60468,0.7549 3.60468,0.81691 3.60468,0.79848 3.60468,0.57986 3.60468,0.39612 3.60468,0.3077 3.60468,0.3048 3.60468,0.27882 3.60468,0.0256 3.60468,-0.27933 3.60468,-0.37935 3.60468,-0.333 3.60468,0.0475 3.60468,0.4563 3.60468,0.3669 3.60468,0.20202 3.60468,0.18056 3.60468,0.27414 3.60468,0.30134 3.60468,0.14072 3.60468,-0.0817 3.60468,-0.20185 3.60468,-0.0737 3.60468,0.20896 3.60468,0.20524 3.60468,-0.0541 3.60468,-0.33068 3.60468,-0.34342 3.60468,-0.0731 3.60468,0.20265 3.60468,0.27652 3.60468,0.17419 3.60468,0.0207 3.60468,-0.0121 3.60468,0.0531 3.60468,0.0871 3.60468,0.0633 3.60468,0.10467 3.60468,0.16591 3.60468,0.13997 3.60468,0.0758 3.60468,0.0614 3.60468,0.087 3.60468,0.0739 3.60468,0.0362 3.60468,-0.005 3.60468,-0.0357 3.60468,-0.0776 3.60468,-0.13265 3.60468,-0.13119 3.60468,-0.0142 3.60468,0.13508 3.60468,0.21959 3.60468,0.24238 3.60468,0.20558 3.60468,0.13044 3.60468,0.0192 3.60468,-0.0303 3.60468,-0.0243 3.60468,-0.0169 3.60468,-0.0428 3.60468,-0.0768 3.60468,-0.0988 3.60468,-0.0985 3.60468,-0.0499 3.60468,0.0274 3.60468,0.11906 3.60468,0.12808 3.60468,0.0647"
           style="fill:none;stroke:#000000;stroke-width:1.5;stroke-linecap:square;stroke-linejoin:round"
           id="path341"
           inkscape:connector-curvature="0" />
      </g>
      <g
         id="line2d_34"
         style="stroke-linecap:butt;stroke-linejoin:round"
         transform="translate(0,-9.6000012)">
        <path
           clip-path="url(#p5e06e8ea07)"
           d="m 61.74468,71.219587 3.60468,4.900611 3.60468,2.642661 3.60468,-1.606239 3.60468,9.787571 3.60468,13.608009 3.60468,15.82559 3.60468,13.45185 3.60468,8.02465 3.60468,5.58551 3.60468,5.37196 3.60468,6.64746 3.60468,8.11068 3.60468,7.36292 3.60468,5.2326 3.60468,3.06042 3.60468,1.82749 3.60468,1.13977 3.60468,1.47657 3.60468,2.07502 3.60468,2.21513 3.60468,1.79879 3.60468,1.2881 3.60468,1.11745 3.60468,1.03927 3.60468,1.11826 3.60468,0.78377 3.60468,0.28073 3.60468,-0.21597 3.60468,-0.38815 3.60468,-0.007 3.60468,0.31364 3.60468,0.30516 3.60468,-0.0304 3.60468,-0.28965 3.60468,-0.18108 3.60468,0.11521 3.60468,0.3683 3.60468,0.36453 3.60468,0.13169 3.60468,-0.10676 3.60468,-0.29602 3.60468,-0.41891 3.60468,-0.39498 3.60468,-0.18764 3.60468,0.1386 3.60468,0.45629 3.60468,0.57981 3.60468,0.54033 3.60468,0.47709 3.60468,0.48836 3.60468,0.36757 3.60468,0.17753 3.60468,0.0412 3.60468,-0.0458 3.60468,-0.14961 3.60468,-0.25442 3.60468,-0.23257 3.60468,-0.12119 3.60468,0.0309 3.60468,0.068 3.60468,0.018 3.60468,-0.0452 3.60468,-0.14163 3.60468,-0.24728 3.60468,-0.25333 3.60468,-0.21194 3.60468,-0.24598 3.60468,-0.17518 3.60468,-0.0131 3.60468,0.0961 3.60468,0.1575 3.60468,0.13274 3.60468,0.10575 3.60468,0.14721 3.60468,0.16088 3.60468,0.0884 3.60468,0.0214 3.60468,0.0769 3.60468,0.26442 3.60468,0.41774 3.60468,0.42346 3.60468,0.39917 3.60468,0.382 3.60468,0.35858 3.60468,0.36761 3.60468,0.35399 3.60468,0.29713 3.60468,0.20234 3.60468,0.0651 3.60468,-0.0494 3.60468,-0.0675 3.60468,-0.0642 3.60468,-0.088 3.60468,-0.0511 3.60468,0.12225 3.60468,0.26702 3.60468,0.21654 3.60468,0.0777 3.60468,-0.0101"
           style="fill:none;stroke:#000000;stroke-width:1.5;stroke-linecap:square;stroke-linejoin:round"
           id="path344"
           inkscape:connector-curvature="0" />
      </g>
      <g
         id="line2d_35"
         style="stroke-linecap:butt;stroke-linejoin:round"
         transform="translate(0,-9.6000012)">
        <path
           clip-path="url(#p5e06e8ea07)"
           d="m 61.74468,37.2744 3.60468,12.795272 3.60468,8.85821 3.60468,14.581056 3.60468,22.185085 3.60468,23.229797 3.60468,19.42821 3.60468,12.2399 3.60468,8.08717 3.60468,4.16872 3.60468,0.31335 3.60468,-1.38593 3.60468,-1.33348 3.60468,0.74377 3.60468,4.00674 3.60468,5.26714 3.60468,4.42702 3.60468,3.02693 3.60468,2.60527 3.60468,1.621 3.60468,0.48062 3.60468,0.0459 3.60468,0.0753 3.60468,0.84212 3.60468,1.46195 3.60468,1.08609 3.60468,1.03002 3.60468,1.60834 3.60468,1.77953 3.60468,1.11798 3.60468,0.0869 3.60468,-0.35925 3.60468,0.30699 3.60468,1.20833 3.60468,1.4469 3.60468,1.12701 3.60468,0.81933 3.60468,0.74453 3.60468,0.56079 3.60468,-0.0471 3.60468,-0.54786 3.60468,-0.53585 3.60468,-0.22184 3.60468,0.0613 3.60468,0.0352 3.60468,-0.19055 3.60468,-0.33477 3.60468,-0.10442 3.60468,0.0626 3.60468,-0.24418 3.60468,-0.56153 3.60468,-0.47176 3.60468,-0.1171 3.60468,0.002 3.60468,-0.11576 3.60468,-0.28119 3.60468,-0.308 3.60468,-0.17856 3.60468,0.16495 3.60468,0.58865 3.60468,0.74879 3.60468,0.68164 3.60468,0.56812 3.60468,0.29494 3.60468,-0.10607 3.60468,-0.43342 3.60468,-0.37941 3.60468,0.0749 3.60468,0.51157 3.60468,0.56119 3.60468,0.4671 3.60468,0.37994 3.60468,0.31603 3.60468,0.27695 3.60468,0.23438 3.60468,0.17135 3.60468,0.022 3.60468,-0.2315 3.60468,-0.3042 3.60468,-0.0659 3.60468,0.25585 3.60468,0.43041 3.60468,0.42399 3.60468,0.40124 3.60468,0.29535 3.60468,0.15 3.60468,0.0431 3.60468,-0.0429 3.60468,-0.14578 3.60468,-0.30425 3.60468,-0.33226 3.60468,-0.13483 3.60468,0.12129 3.60468,0.2039 3.60468,0.14877 3.60468,0.0866 3.60468,0.0555 3.60468,0.0307 3.60468,0.0399 3.60468,0.0798"
           style="fill:none;stroke:#000000;stroke-width:1.5;stroke-linecap:square;stroke-linejoin:round"
           id="path347"
           inkscape:connector-curvature="0" />
      </g>
      <g
         id="patch_3"
         style="stroke-linecap:butt;stroke-linejoin:round"
         transform="translate(0,-9.6000012)">
        <path
           d="m 58.14,214.0272 0,-185.1696"
           style="fill:none;stroke:#000000;stroke-width:0.80000001;stroke-linecap:square;stroke-linejoin:miter"
           id="path350"
           inkscape:connector-curvature="0" />
      </g>
      <g
         id="patch_4"
         style="stroke-linecap:butt;stroke-linejoin:round"
         transform="translate(0,-9.6000012)">
        <path
           d="m 418.608,214.0272 0,-185.1696"
           style="fill:none;stroke:#000000;stroke-width:0.80000001;stroke-linecap:square;stroke-linejoin:miter"
           id="path353"
           inkscape:connector-curvature="0" />
      </g>
      <g
         id="patch_5"
         style="stroke-linecap:butt;stroke-linejoin:round"
         transform="translate(0,-9.6000012)">
        <path
           d="m 58.14,214.0272 360.468,0"
           style="fill:none;stroke:#000000;stroke-width:0.80000001;stroke-linecap:square;stroke-linejoin:miter"
           id="path356"
           inkscape:connector-curvature="0" />
      </g>
      <g
         id="patch_6"
         style="stroke-linecap:butt;stroke-linejoin:round"
         transform="translate(0,-9.6000012)">
        <path
           d="m 58.14,28.8576 360.468,0"
           style="fill:none;stroke:#000000;stroke-width:0.80000001;stroke-linecap:square;stroke-linejoin:miter"
           id="path359"
           inkscape:connector-curvature="0" />
      </g>
      <g
         style="stroke-linecap:butt;stroke-linejoin:round"
         transform="matrix(1.0014217,0,0,0.49779318,-0.44106682,7.2565406)"
         id="patch_7">
        <path
           inkscape:connector-curvature="0"
           id="path363"
           style="opacity:0.8;fill:#ffffff;stroke:#cccccc;stroke-linecap:butt;stroke-linejoin:miter"
           d="m 208.85175,139.60447 202.75625,0 q 2,0 2,-2 l 0,-101.74687 q 0,-2 -2,-2 l -202.75625,0 q -2,0 -2,2 l 0,101.74687 q 0,2 2,2 z" />
      </g>
      <g
         transform="translate(0,-9.6000012)"
         style="stroke-linecap:butt;stroke-linejoin:round"
         id="line2d_36">
        <path
           inkscape:connector-curvature="0"
           id="path366"
           style="fill:none;stroke:#bf00bf;stroke-width:1.5;stroke-linecap:square;stroke-linejoin:round"
           d="m 210.85175,41.956038 20,0" />
      </g>
      <g
         transform="translate(0,-9.6000012)"
         style="stroke-linecap:butt;stroke-linejoin:round"
         id="text_17">
        <!-- Single Agent -->
        <defs
           id="defs370">
          <path
             style="stroke-linecap:butt;stroke-linejoin:round"
             inkscape:connector-curvature="0"
             id="DejaVuSans-53"
             d="m 53.515625,70.515625 0,-9.625 q -5.609375,2.6875 -10.59375,4 -4.984375,1.328125 -9.625,1.328125 -8.046875,0 -12.421875,-3.125 -4.375,-3.125 -4.375,-8.890625 0,-4.84375 2.90625,-7.3125 2.90625,-2.453125 11.015625,-3.96875 L 36.375,41.703125 Q 47.40625,39.59375 52.65625,34.296875 57.90625,29 57.90625,20.125 q 0,-10.609375 -7.109375,-16.078125 -7.09375,-5.46875 -20.8125,-5.46875 -5.171875,0 -11.015625,1.171875 -5.828125,1.171875 -12.078125,3.46875 l 0,10.15625 q 6,-3.359375 11.765625,-5.078125 5.765625,-1.703125 11.328125,-1.703125 8.4375,0 13.03125,3.3125 4.59375,3.328125 4.59375,9.484375 0,5.359375 -3.296875,8.390625 Q 41.015625,30.8125 33.5,32.328125 L 27.484375,33.5 q -11.03125,2.1875 -15.96875,6.875 -4.921875,4.6875 -4.921875,13.046875 0,9.671875 6.8125,15.234375 6.8125,5.5625 18.765625,5.5625 5.140625,0 10.453125,-0.9375 5.328125,-0.921875 10.890625,-2.765625" />
          <path
             style="stroke-linecap:butt;stroke-linejoin:round"
             inkscape:connector-curvature="0"
             id="DejaVuSans-6e"
             d="m 54.890625,33.015625 0,-33.015625 -8.984375,0 0,32.71875 q 0,7.765625 -3.03125,11.609375 -3.03125,3.859375 -9.078125,3.859375 -7.28125,0 -11.484375,-4.640625 -4.203125,-4.625 -4.203125,-12.640625 l 0,-30.90625 -9.03125,0 0,54.6875 9.03125,0 0,-8.5 q 3.234375,4.9375 7.59375,7.375 4.375,2.4375 10.09375,2.4375 9.421875,0 14.25,-5.828125 4.84375,-5.828125 4.84375,-17.15625" />
          <path
             style="stroke-linecap:butt;stroke-linejoin:round"
             inkscape:connector-curvature="0"
             id="DejaVuSans-6c"
             d="m 9.421875,75.984375 8.984375,0 L 18.40625,0 9.421875,0 Z" />
          <path
             style="stroke-linecap:butt;stroke-linejoin:round"
             inkscape:connector-curvature="0"
             id="DejaVuSans-41"
             d="m 34.1875,63.1875 -13.390625,-36.28125 26.8125,0 z m -5.578125,9.71875 11.1875,0 L 67.578125,0 l -10.25,0 -6.640625,18.703125 -32.859375,0 L 11.1875,0 0.78125,0 Z" />
        </defs>
        <g
           style="stroke-linecap:butt;stroke-linejoin:round"
           id="g376"
           transform="matrix(0.1,0,0,-0.1,238.85175,45.456038)">
          <use
             height="100%"
             width="100%"
             y="0"
             x="0"
             style="stroke-linecap:butt;stroke-linejoin:round"
             id="use378"
             xlink:href="#DejaVuSans-53" />
          <path
             d="m 72.898437,54.6875 8.984375,0 0,-54.6875 -8.984375,0 z m 0,21.296875 8.984375,0 0,-11.390625 -8.984375,0 z"
             id="use380"
             inkscape:connector-curvature="0"
             style="stroke-linecap:butt;stroke-linejoin:round" />
          <use
             height="100%"
             width="100%"
             y="0"
             style="stroke-linecap:butt;stroke-linejoin:round"
             id="use382"
             xlink:href="#DejaVuSans-6e"
             x="91.259766" />
          <path
             d="m 200.04492,27.984375 q 0,9.765625 -4.03125,15.125 -4.01562,5.375 -11.29687,5.375 -7.21875,0 -11.25,-5.375 -4.03125,-5.359375 -4.03125,-15.125 0,-9.71875 4.03125,-15.09375 4.03125,-5.375 11.25,-5.375 7.28125,0 11.29687,5.375 4.03125,5.375 4.03125,15.09375 M 209.0293,6.78125 q 0,-13.953125 -6.20313,-20.765625 -6.1875,-6.8125 -18.98437,-6.8125 -4.73438,0 -8.9375,0.703125 -4.20313,0.703125 -8.15625,2.171875 l 0,8.734375 q 3.95312,-2.140625 7.8125,-3.15625 3.85937,-1.03125 7.85937,-1.03125 8.84375,0 13.23438,4.609375 4.39062,4.609375 4.39062,13.9375 l 0,4.453125 Q 197.26367,4.78125 192.91992,2.390625 188.57617,0 182.51367,0 172.4668,0 166.31055,7.65625 q -6.15625,7.671875 -6.15625,20.328125 0,12.6875 6.15625,20.34375 Q 172.4668,56 182.51367,56 q 6.0625,0 10.40625,-2.390625 4.34375,-2.390625 7.125,-7.21875 l 0,8.296875 8.98438,0 z"
             id="use384"
             inkscape:connector-curvature="0"
             style="stroke-linecap:butt;stroke-linejoin:round" />
          <use
             height="100%"
             width="100%"
             y="0"
             style="stroke-linecap:butt;stroke-linejoin:round"
             id="use386"
             xlink:href="#DejaVuSans-6c"
             x="218.11523" />
          <path
             d="m 302.10156,29.59375 0,-4.390625 -41.3125,0 q 0.59375,-9.28125 5.59375,-14.140625 5,-4.859375 13.9375,-4.859375 5.17188,0 10.03125,1.265625 4.85938,1.265625 9.65625,3.8125 l 0,-8.5 q -4.84375,-2.046875 -9.92187,-3.125 -5.07813,-1.078125 -10.29688,-1.078125 -13.09375,0 -20.73437,7.609375 -7.64063,7.625 -7.64063,20.625 0,13.421875 7.25,21.296875 Q 265.91406,56 278.22656,56 q 11.03125,0 17.45313,-7.109375 6.42187,-7.09375 6.42187,-19.296875 m -8.98437,2.640625 q -0.0937,7.359375 -4.125,11.75 -4.03125,4.40625 -10.67188,4.40625 -7.51562,0 -12.03125,-4.25 -4.51562,-4.25 -5.20312,-11.96875 z"
             id="use388"
             inkscape:connector-curvature="0"
             style="stroke-linecap:butt;stroke-linejoin:round" />
          <path
             id="use390"
             d=""
             inkscape:connector-curvature="0"
             style="stroke-linecap:butt;stroke-linejoin:round" />
          <use
             height="100%"
             width="100%"
             y="0"
             style="stroke-linecap:butt;stroke-linejoin:round"
             id="use392"
             xlink:href="#DejaVuSans-41"
             x="339.20898" />
          <path
             d="m 453.02344,27.984375 q 0,9.765625 -4.03125,15.125 -4.01563,5.375 -11.29688,5.375 -7.21875,0 -11.25,-5.375 -4.03125,-5.359375 -4.03125,-15.125 0,-9.71875 4.03125,-15.09375 4.03125,-5.375 11.25,-5.375 7.28125,0 11.29688,5.375 4.03125,5.375 4.03125,15.09375 M 462.00781,6.78125 q 0,-13.953125 -6.20312,-20.765625 -6.1875,-6.8125 -18.98438,-6.8125 -4.73437,0 -8.9375,0.703125 -4.20312,0.703125 -8.15625,2.171875 l 0,8.734375 q 3.95313,-2.140625 7.8125,-3.15625 3.85938,-1.03125 7.85938,-1.03125 8.84375,0 13.23437,4.609375 4.39063,4.609375 4.39063,13.9375 l 0,4.453125 Q 450.24219,4.78125 445.89844,2.390625 441.55469,0 435.49219,0 q -10.04688,0 -16.20313,7.65625 -6.15625,7.671875 -6.15625,20.328125 0,12.6875 6.15625,20.34375 Q 425.44531,56 435.49219,56 q 6.0625,0 10.40625,-2.390625 4.34375,-2.390625 7.125,-7.21875 l 0,8.296875 8.98437,0 z"
             id="use394"
             inkscape:connector-curvature="0"
             style="stroke-linecap:butt;stroke-linejoin:round" />
          <path
             d="m 527.29687,29.59375 0,-4.390625 -41.3125,0 q 0.59375,-9.28125 5.59375,-14.140625 5,-4.859375 13.9375,-4.859375 5.17188,0 10.03125,1.265625 4.85938,1.265625 9.65625,3.8125 l 0,-8.5 q -4.84375,-2.046875 -9.92187,-3.125 -5.07813,-1.078125 -10.29688,-1.078125 -13.09375,0 -20.73437,7.609375 -7.64063,7.625 -7.64063,20.625 0,13.421875 7.25,21.296875 Q 491.10937,56 503.42187,56 q 11.03125,0 17.45313,-7.109375 6.42187,-7.09375 6.42187,-19.296875 m -8.98437,2.640625 q -0.0937,7.359375 -4.125,11.75 -4.03125,4.40625 -10.67188,4.40625 -7.51562,0 -12.03125,-4.25 -4.51562,-4.25 -5.20312,-11.96875 z"
             id="use396"
             inkscape:connector-curvature="0"
             style="stroke-linecap:butt;stroke-linejoin:round" />
          <use
             height="100%"
             width="100%"
             y="0"
             style="stroke-linecap:butt;stroke-linejoin:round"
             id="use398"
             xlink:href="#DejaVuSans-6e"
             x="532.61719" />
          <path
             d="m 614.30859,70.21875 0,-15.53125 18.5,0 0,-6.984375 -18.5,0 0,-29.6875 q 0,-6.6875 1.82813,-8.59375 1.82812,-1.90625 7.45312,-1.90625 l 9.21875,0 0,-7.515625 -9.21875,0 q -10.40625,0 -14.35937,3.875 -3.95313,3.890625 -3.95313,14.140625 l 0,29.6875 -6.59375,0 0,6.984375 6.59375,0 0,15.53125 z"
             id="use400"
             inkscape:connector-curvature="0"
             style="stroke-linecap:butt;stroke-linejoin:round" />
        </g>
      </g>
      <g
         transform="translate(0,-9.6000012)"
         style="stroke-linecap:butt;stroke-linejoin:round"
         id="line2d_38">
        <path
           inkscape:connector-curvature="0"
           id="path403"
           style="fill:none;stroke:#0000ff;stroke-width:1.5;stroke-linecap:square;stroke-linejoin:round"
           d="m 210.85175,56.634163 20,0" />
      </g>
      <g
         transform="translate(0,-9.6000012)"
         style="stroke-linecap:butt;stroke-linejoin:round"
         id="text_18">
        <!-- Collective 5 Network System -->
        <defs
           id="defs407">
          <path
             style="stroke-linecap:butt;stroke-linejoin:round"
             inkscape:connector-curvature="0"
             id="DejaVuSans-43"
             d="m 64.40625,67.28125 0,-10.390625 q -4.984375,4.640625 -10.625,6.921875 -5.640625,2.296875 -11.984375,2.296875 -12.5,0 -19.140625,-7.640625 -6.640625,-7.640625 -6.640625,-22.09375 0,-14.40625 6.640625,-22.046875 Q 29.296875,6.6875 41.796875,6.6875 q 6.34375,0 11.984375,2.296875 5.640625,2.296875 10.625,6.9375 l 0,-10.3125 Q 59.234375,2.09375 53.4375,0.328125 q -5.78125,-1.75 -12.21875,-1.75 -16.5625,0 -26.09375,10.125 Q 5.609375,18.84375 5.609375,36.375 q 0,17.578125 9.515625,27.703125 9.53125,10.140625 26.09375,10.140625 6.53125,0 12.3125,-1.734375 5.796875,-1.734375 10.875,-5.203125" />
          <path
             style="stroke-linecap:butt;stroke-linejoin:round"
             inkscape:connector-curvature="0"
             id="DejaVuSans-76"
             d="M 2.984375,54.6875 12.5,54.6875 29.59375,8.796875 46.6875,54.6875 l 9.515625,0 L 35.6875,0 23.484375,0 Z" />
          <path
             style="stroke-linecap:butt;stroke-linejoin:round"
             inkscape:connector-curvature="0"
             id="DejaVuSans-4e"
             d="m 9.8125,72.90625 13.28125,0 32.328125,-60.984375 0,60.984375 9.5625,0 0,-72.90625 -13.28125,0 -32.3125,60.984375 L 19.390625,0 9.8125,0 Z" />
          <path
             style="stroke-linecap:butt;stroke-linejoin:round"
             inkscape:connector-curvature="0"
             id="DejaVuSans-77"
             d="m 4.203125,54.6875 8.984375,0 11.234375,-42.671875 11.171875,42.671875 10.59375,0 11.234375,-42.671875 11.1875,42.671875 8.984375,0 L 63.28125,0 52.6875,0 40.921875,44.828125 29.109375,0 18.5,0 Z" />
          <path
             style="stroke-linecap:butt;stroke-linejoin:round"
             inkscape:connector-curvature="0"
             id="DejaVuSans-6b"
             d="m 9.078125,75.984375 9.03125,0 0,-44.875 26.8125,23.578125 11.46875,0 -29,-25.578125 L 57.625,0 45.90625,0 18.109375,26.703125 18.109375,0 9.078125,0 Z" />
          <path
             style="stroke-linecap:butt;stroke-linejoin:round"
             inkscape:connector-curvature="0"
             id="DejaVuSans-79"
             d="M 32.171875,-5.078125 Q 28.375,-14.84375 24.75,-17.8125 q -3.609375,-2.984375 -9.65625,-2.984375 l -7.1875,0 0,7.515625 5.28125,0 q 3.703125,0 5.75,1.765625 2.0625,1.75 4.546875,8.296875 L 25.09375,0.875 2.984375,54.6875 12.5,54.6875 29.59375,11.921875 46.6875,54.6875 l 9.515625,0 z" />
        </defs>
        <g
           style="stroke-linecap:butt;stroke-linejoin:round"
           id="g415"
           transform="matrix(0.1,0,0,-0.1,238.85175,60.134163)">
          <use
             height="100%"
             width="100%"
             y="0"
             x="0"
             style="stroke-linecap:butt;stroke-linejoin:round"
             id="use417"
             xlink:href="#DejaVuSans-43" />
          <path
             d="m 100.43359,48.390625 q -7.218746,0 -11.421871,-5.640625 -4.203125,-5.640625 -4.203125,-15.453125 0,-9.8125 4.171875,-15.453125 4.1875,-5.640625 11.453121,-5.640625 7.1875,0 11.375,5.65625 4.20313,5.671875 4.20313,15.4375 0,9.71875 -4.20313,15.40625 -4.1875,5.6875 -11.375,5.6875 m 0,7.609375 q 11.71875,0 18.40625,-7.625 6.70313,-7.609375 6.70313,-21.078125 0,-13.421875 -6.70313,-21.078125 -6.6875,-7.640625 -18.40625,-7.640625 -11.765621,0 -18.437496,7.640625 -6.65625,7.65625 -6.65625,21.078125 0,13.46875 6.65625,21.078125 Q 88.667969,56 100.43359,56"
             id="use419"
             inkscape:connector-curvature="0"
             style="stroke-linecap:butt;stroke-linejoin:round" />
          <use
             height="100%"
             width="100%"
             y="0"
             style="stroke-linecap:butt;stroke-linejoin:round"
             id="use421"
             xlink:href="#DejaVuSans-6c"
             x="131.00586" />
          <use
             height="100%"
             width="100%"
             y="0"
             style="stroke-linecap:butt;stroke-linejoin:round"
             id="use423"
             xlink:href="#DejaVuSans-6c"
             x="158.78906" />
          <path
             d="m 242.77539,29.59375 0,-4.390625 -41.3125,0 q 0.59375,-9.28125 5.59375,-14.140625 5,-4.859375 13.9375,-4.859375 5.17188,0 10.03125,1.265625 4.85938,1.265625 9.65625,3.8125 l 0,-8.5 q -4.84375,-2.046875 -9.92187,-3.125 -5.07813,-1.078125 -10.29688,-1.078125 -13.09375,0 -20.73437,7.609375 -7.64063,7.625 -7.64063,20.625 0,13.421875 7.25,21.296875 Q 206.58789,56 218.90039,56 q 11.03125,0 17.45313,-7.109375 6.42187,-7.09375 6.42187,-19.296875 m -8.98437,2.640625 q -0.0937,7.359375 -4.125,11.75 -4.03125,4.40625 -10.67188,4.40625 -7.51562,0 -12.03125,-4.25 -4.51562,-4.25 -5.20312,-11.96875 z"
             id="use425"
             inkscape:connector-curvature="0"
             style="stroke-linecap:butt;stroke-linejoin:round" />
          <path
             d="m 296.87695,52.59375 0,-8.40625 q -3.8125,2.109375 -7.64062,3.15625 -3.82813,1.046875 -7.73438,1.046875 -8.75,0 -13.59375,-5.546875 -4.82812,-5.53125 -4.82812,-15.546875 0,-10.015625 4.82812,-15.5625 4.84375,-5.53125 13.59375,-5.53125 3.90625,0 7.73438,1.046875 3.82812,1.046875 7.64062,3.15625 l 0,-8.3125 q -3.76562,-1.75 -7.79687,-2.625 -4.01563,-0.890625 -8.5625,-0.890625 -12.35938,0 -19.64063,7.765625 -7.26562,7.765625 -7.26562,20.953125 0,13.375 7.34375,21.03125 Q 268.31445,56 281.11133,56 q 4.14062,0 8.09375,-0.859375 3.95312,-0.84375 7.67187,-2.546875"
             id="use427"
             inkscape:connector-curvature="0"
             style="stroke-linecap:butt;stroke-linejoin:round" />
          <path
             d="m 321.38867,70.21875 0,-15.53125 18.5,0 0,-6.984375 -18.5,0 0,-29.6875 q 0,-6.6875 1.82813,-8.59375 1.82812,-1.90625 7.45312,-1.90625 l 9.21875,0 0,-7.515625 -9.21875,0 q -10.40625,0 -14.35937,3.875 -3.95313,3.890625 -3.95313,14.140625 l 0,29.6875 -6.59375,0 0,6.984375 6.59375,0 0,15.53125 z"
             id="use429"
             inkscape:connector-curvature="0"
             style="stroke-linecap:butt;stroke-linejoin:round" />
          <path
             d="m 351.70703,54.6875 8.98438,0 0,-54.6875 -8.98438,0 z m 0,21.296875 8.98438,0 0,-11.390625 -8.98438,0 z"
             id="use431"
             inkscape:connector-curvature="0"
             style="stroke-linecap:butt;stroke-linejoin:round" />
          <use
             height="100%"
             width="100%"
             y="0"
             style="stroke-linecap:butt;stroke-linejoin:round"
             id="use433"
             xlink:href="#DejaVuSans-76"
             x="370.06836" />
          <path
             d="m 485.45117,29.59375 0,-4.390625 -41.3125,0 q 0.59375,-9.28125 5.59375,-14.140625 5,-4.859375 13.9375,-4.859375 5.17188,0 10.03125,1.265625 4.85938,1.265625 9.65625,3.8125 l 0,-8.5 q -4.84375,-2.046875 -9.92187,-3.125 -5.07813,-1.078125 -10.29688,-1.078125 -13.09375,0 -20.73437,7.609375 -7.64063,7.625 -7.64063,20.625 0,13.421875 7.25,21.296875 Q 449.26367,56 461.57617,56 q 11.03125,0 17.45313,-7.109375 6.42187,-7.09375 6.42187,-19.296875 m -8.98437,2.640625 q -0.0937,7.359375 -4.125,11.75 -4.03125,4.40625 -10.67188,4.40625 -7.51562,0 -12.03125,-4.25 -4.51562,-4.25 -5.20312,-11.96875 z"
             id="use435"
             inkscape:connector-curvature="0"
             style="stroke-linecap:butt;stroke-linejoin:round" />
          <path
             id="use437"
             d=""
             inkscape:connector-curvature="0"
             style="stroke-linecap:butt;stroke-linejoin:round" />
          <use
             height="100%"
             width="100%"
             y="0"
             style="stroke-linecap:butt;stroke-linejoin:round"
             id="use439"
             xlink:href="#DejaVuSans-35"
             x="522.55859" />
          <path
             id="use441"
             d=""
             inkscape:connector-curvature="0"
             style="stroke-linecap:butt;stroke-linejoin:round" />
          <use
             height="100%"
             width="100%"
             y="0"
             style="stroke-linecap:butt;stroke-linejoin:round"
             id="use443"
             xlink:href="#DejaVuSans-4e"
             x="617.96875" />
          <path
             d="m 748.97656,29.59375 0,-4.390625 -41.3125,0 q 0.59375,-9.28125 5.59375,-14.140625 5,-4.859375 13.9375,-4.859375 5.17188,0 10.03125,1.265625 4.85938,1.265625 9.65625,3.8125 l 0,-8.5 q -4.84375,-2.046875 -9.92187,-3.125 -5.07813,-1.078125 -10.29688,-1.078125 -13.09375,0 -20.73437,7.609375 -7.64063,7.625 -7.64063,20.625 0,13.421875 7.25,21.296875 Q 712.78906,56 725.10156,56 q 11.03125,0 17.45313,-7.109375 6.42187,-7.09375 6.42187,-19.296875 m -8.98437,2.640625 q -0.0937,7.359375 -4.125,11.75 -4.03125,4.40625 -10.67188,4.40625 -7.51562,0 -12.03125,-4.25 -4.51562,-4.25 -5.20312,-11.96875 z"
             id="use445"
             inkscape:connector-curvature="0"
             style="stroke-linecap:butt;stroke-linejoin:round" />
          <path
             d="m 772.60937,70.21875 0,-15.53125 18.5,0 0,-6.984375 -18.5,0 0,-29.6875 q 0,-6.6875 1.82813,-8.59375 1.82812,-1.90625 7.45312,-1.90625 l 9.21875,0 0,-7.515625 -9.21875,0 q -10.40625,0 -14.35937,3.875 -3.95313,3.890625 -3.95313,14.140625 l 0,29.6875 -6.59375,0 0,6.984375 6.59375,0 0,15.53125 z"
             id="use447"
             inkscape:connector-curvature="0"
             style="stroke-linecap:butt;stroke-linejoin:round" />
          <use
             height="100%"
             width="100%"
             y="0"
             style="stroke-linecap:butt;stroke-linejoin:round"
             id="use449"
             xlink:href="#DejaVuSans-77"
             x="793.50586" />
          <path
             d="m 905.90234,48.390625 q -7.21875,0 -11.42187,-5.640625 -4.20313,-5.640625 -4.20313,-15.453125 0,-9.8125 4.17188,-15.453125 4.1875,-5.640625 11.45312,-5.640625 7.1875,0 11.375,5.65625 4.20313,5.671875 4.20313,15.4375 0,9.71875 -4.20313,15.40625 -4.1875,5.6875 -11.375,5.6875 m 0,7.609375 q 11.71875,0 18.40625,-7.625 6.70313,-7.609375 6.70313,-21.078125 0,-13.421875 -6.70313,-21.078125 -6.6875,-7.640625 -18.40625,-7.640625 -11.76562,0 -18.4375,7.640625 -6.65625,7.65625 -6.65625,21.078125 0,13.46875 6.65625,21.078125 6.67188,7.625 18.4375,7.625"
             id="use451"
             inkscape:connector-curvature="0"
             style="stroke-linecap:butt;stroke-linejoin:round" />
          <path
             d="m 977.58398,46.296875 q -1.51562,0.875 -3.29687,1.28125 Q 972.50586,48 970.36523,48 q -7.625,0 -11.70312,-4.953125 -4.07813,-4.953125 -4.07813,-14.234375 l 0,-28.8125 -9.03125,0 0,54.6875 9.03125,0 0,-8.5 q 2.84375,4.984375 7.375,7.390625 Q 966.50586,56 973.00586,56 q 0.92187,0 2.04687,-0.125 1.125,-0.109375 2.48438,-0.359375 z"
             id="use453"
             inkscape:connector-curvature="0"
             style="stroke-linecap:butt;stroke-linejoin:round" />
          <use
             height="100%"
             width="100%"
             y="0"
             style="stroke-linecap:butt;stroke-linejoin:round"
             id="use455"
             xlink:href="#DejaVuSans-6b"
             x="977.58789" />
          <path
             id="use457"
             d=""
             inkscape:connector-curvature="0"
             style="stroke-linecap:butt;stroke-linejoin:round" />
          <use
             height="100%"
             width="100%"
             y="0"
             style="stroke-linecap:butt;stroke-linejoin:round"
             id="use459"
             xlink:href="#DejaVuSans-53"
             x="1067.2852" />
          <use
             height="100%"
             width="100%"
             y="0"
             style="stroke-linecap:butt;stroke-linejoin:round"
             id="use461"
             xlink:href="#DejaVuSans-79"
             x="1130.7617" />
          <path
             d="m 1234.2227,53.078125 0,-8.5 q -3.7969,1.953125 -7.9063,2.921875 -4.0937,0.984375 -8.5,0.984375 -6.6875,0 -10.0312,-2.046875 -3.3438,-2.046875 -3.3438,-6.15625 0,-3.125 2.3906,-4.90625 2.3907,-1.78125 9.625,-3.390625 l 3.0782,-0.6875 q 9.5625,-2.046875 13.5937,-5.78125 4.0313,-3.734375 4.0313,-10.421875 0,-7.625 -6.0313,-12.078125 -6.0312,-4.4375 -16.5781,-4.4375 -4.3906,0 -9.1563,0.859375 -4.7656,0.859375 -10.0312,2.5625 l 0,9.28125 q 4.9844,-2.59375 9.8125,-3.890625 4.8281,-1.28125 9.5781,-1.28125 6.3438,0 9.75,2.171875 3.4219,2.171875 3.4219,6.125 0,3.65625 -2.4688,5.609375 -2.4531,1.953125 -10.8125,3.765625 l -3.125,0.734375 q -8.3437,1.75 -12.0625,5.390625 -3.7031,3.640625 -3.7031,9.984375 0,7.71875 5.4688,11.90625 Q 1206.6914,56 1216.7539,56 q 4.9688,0 9.3594,-0.734375 4.4062,-0.71875 8.1094,-2.1875"
             id="use463"
             inkscape:connector-curvature="0"
             style="stroke-linecap:butt;stroke-linejoin:round" />
          <path
             d="m 1260.3535,70.21875 0,-15.53125 18.5,0 0,-6.984375 -18.5,0 0,-29.6875 q 0,-6.6875 1.8281,-8.59375 1.8282,-1.90625 7.4532,-1.90625 l 9.2187,0 0,-7.515625 -9.2187,0 q -10.4063,0 -14.3594,3.875 -3.9531,3.890625 -3.9531,14.140625 l 0,29.6875 -6.5938,0 0,6.984375 6.5938,0 0,15.53125 z"
             id="use465"
             inkscape:connector-curvature="0"
             style="stroke-linecap:butt;stroke-linejoin:round" />
          <path
             d="m 1337.4531,29.59375 0,-4.390625 -41.3125,0 q 0.5938,-9.28125 5.5938,-14.140625 5,-4.859375 13.9375,-4.859375 5.1719,0 10.0312,1.265625 4.8594,1.265625 9.6563,3.8125 l 0,-8.5 q -4.8438,-2.046875 -9.9219,-3.125 -5.0781,-1.078125 -10.2969,-1.078125 -13.0937,0 -20.7343,7.609375 -7.6407,7.625 -7.6407,20.625 0,13.421875 7.25,21.296875 Q 1301.2656,56 1313.5781,56 q 11.0313,0 17.4532,-7.109375 6.4218,-7.09375 6.4218,-19.296875 m -8.9843,2.640625 q -0.094,7.359375 -4.125,11.75 -4.0313,4.40625 -10.6719,4.40625 -7.5156,0 -12.0313,-4.25 -4.5156,-4.25 -5.2031,-11.96875 z"
             id="use467"
             inkscape:connector-curvature="0"
             style="stroke-linecap:butt;stroke-linejoin:round" />
          <path
             d="m 1394.7734,44.1875 q 3.375,6.0625 8.0625,8.9375 4.6875,2.875 11.0313,2.875 8.5469,0 13.1875,-5.984375 4.6406,-5.96875 4.6406,-17 l 0,-33.015625 -9.0312,0 0,32.71875 q 0,7.859375 -2.7969,11.65625 -2.7813,3.8125 -8.4844,3.8125 -6.9844,0 -11.0469,-4.640625 -4.0468,-4.625 -4.0468,-12.640625 l 0,-30.90625 -9.0313,0 0,32.71875 q 0,7.90625 -2.7812,11.6875 -2.7813,3.78125 -8.5938,3.78125 -6.8906,0 -10.9531,-4.65625 -4.0469,-4.65625 -4.0469,-12.625 l 0,-30.90625 -9.0312,0 0,54.6875 9.0312,0 0,-8.5 q 3.0781,5.03125 7.375,7.421875 Q 1372.5547,56 1378.4609,56 q 5.9688,0 10.1407,-3.03125 4.1718,-3.015625 6.1718,-8.78125"
             id="use469"
             inkscape:connector-curvature="0"
             style="stroke-linecap:butt;stroke-linejoin:round" />
        </g>
      </g>
      <g
         transform="translate(0,-9.6000012)"
         style="stroke-linecap:butt;stroke-linejoin:round"
         id="line2d_40">
        <path
           inkscape:connector-curvature="0"
           id="path472"
           style="fill:none;stroke:#000000;stroke-width:1.5;stroke-linecap:square;stroke-linejoin:round"
           d="m 210.85175,71.312287 20,0" />
      </g>
      <g
         transform="translate(0,-9.6000012)"
         style="stroke-linecap:butt;stroke-linejoin:round"
         id="text_19">
        <!-- Single Agent in 5 Network System -->
        <g
           style="stroke-linecap:butt;stroke-linejoin:round"
           id="g476"
           transform="matrix(0.1,0,0,-0.1,238.85175,74.812287)">
          <use
             height="100%"
             width="100%"
             y="0"
             x="0"
             style="stroke-linecap:butt;stroke-linejoin:round"
             id="use478"
             xlink:href="#DejaVuSans-53" />
          <path
             d="m 72.898437,54.6875 8.984375,0 0,-54.6875 -8.984375,0 z m 0,21.296875 8.984375,0 0,-11.390625 -8.984375,0 z"
             id="use480"
             inkscape:connector-curvature="0"
             style="stroke-linecap:butt;stroke-linejoin:round" />
          <use
             height="100%"
             width="100%"
             y="0"
             style="stroke-linecap:butt;stroke-linejoin:round"
             id="use482"
             xlink:href="#DejaVuSans-6e"
             x="91.259766" />
          <path
             d="m 200.04492,27.984375 q 0,9.765625 -4.03125,15.125 -4.01562,5.375 -11.29687,5.375 -7.21875,0 -11.25,-5.375 -4.03125,-5.359375 -4.03125,-15.125 0,-9.71875 4.03125,-15.09375 4.03125,-5.375 11.25,-5.375 7.28125,0 11.29687,5.375 4.03125,5.375 4.03125,15.09375 M 209.0293,6.78125 q 0,-13.953125 -6.20313,-20.765625 -6.1875,-6.8125 -18.98437,-6.8125 -4.73438,0 -8.9375,0.703125 -4.20313,0.703125 -8.15625,2.171875 l 0,8.734375 q 3.95312,-2.140625 7.8125,-3.15625 3.85937,-1.03125 7.85937,-1.03125 8.84375,0 13.23438,4.609375 4.39062,4.609375 4.39062,13.9375 l 0,4.453125 Q 197.26367,4.78125 192.91992,2.390625 188.57617,0 182.51367,0 172.4668,0 166.31055,7.65625 q -6.15625,7.671875 -6.15625,20.328125 0,12.6875 6.15625,20.34375 Q 172.4668,56 182.51367,56 q 6.0625,0 10.40625,-2.390625 4.34375,-2.390625 7.125,-7.21875 l 0,8.296875 8.98438,0 z"
             id="use484"
             inkscape:connector-curvature="0"
             style="stroke-linecap:butt;stroke-linejoin:round" />
          <use
             height="100%"
             width="100%"
             y="0"
             style="stroke-linecap:butt;stroke-linejoin:round"
             id="use486"
             xlink:href="#DejaVuSans-6c"
             x="218.11523" />
          <path
             d="m 302.10156,29.59375 0,-4.390625 -41.3125,0 q 0.59375,-9.28125 5.59375,-14.140625 5,-4.859375 13.9375,-4.859375 5.17188,0 10.03125,1.265625 4.85938,1.265625 9.65625,3.8125 l 0,-8.5 q -4.84375,-2.046875 -9.92187,-3.125 -5.07813,-1.078125 -10.29688,-1.078125 -13.09375,0 -20.73437,7.609375 -7.64063,7.625 -7.64063,20.625 0,13.421875 7.25,21.296875 Q 265.91406,56 278.22656,56 q 11.03125,0 17.45313,-7.109375 6.42187,-7.09375 6.42187,-19.296875 m -8.98437,2.640625 q -0.0937,7.359375 -4.125,11.75 -4.03125,4.40625 -10.67188,4.40625 -7.51562,0 -12.03125,-4.25 -4.51562,-4.25 -5.20312,-11.96875 z"
             id="use488"
             inkscape:connector-curvature="0"
             style="stroke-linecap:butt;stroke-linejoin:round" />
          <path
             id="use490"
             d=""
             inkscape:connector-curvature="0"
             style="stroke-linecap:butt;stroke-linejoin:round" />
          <use
             height="100%"
             width="100%"
             y="0"
             style="stroke-linecap:butt;stroke-linejoin:round"
             id="use492"
             xlink:href="#DejaVuSans-41"
             x="339.20898" />
          <path
             d="m 453.02344,27.984375 q 0,9.765625 -4.03125,15.125 -4.01563,5.375 -11.29688,5.375 -7.21875,0 -11.25,-5.375 -4.03125,-5.359375 -4.03125,-15.125 0,-9.71875 4.03125,-15.09375 4.03125,-5.375 11.25,-5.375 7.28125,0 11.29688,5.375 4.03125,5.375 4.03125,15.09375 M 462.00781,6.78125 q 0,-13.953125 -6.20312,-20.765625 -6.1875,-6.8125 -18.98438,-6.8125 -4.73437,0 -8.9375,0.703125 -4.20312,0.703125 -8.15625,2.171875 l 0,8.734375 q 3.95313,-2.140625 7.8125,-3.15625 3.85938,-1.03125 7.85938,-1.03125 8.84375,0 13.23437,4.609375 4.39063,4.609375 4.39063,13.9375 l 0,4.453125 Q 450.24219,4.78125 445.89844,2.390625 441.55469,0 435.49219,0 q -10.04688,0 -16.20313,7.65625 -6.15625,7.671875 -6.15625,20.328125 0,12.6875 6.15625,20.34375 Q 425.44531,56 435.49219,56 q 6.0625,0 10.40625,-2.390625 4.34375,-2.390625 7.125,-7.21875 l 0,8.296875 8.98437,0 z"
             id="use494"
             inkscape:connector-curvature="0"
             style="stroke-linecap:butt;stroke-linejoin:round" />
          <path
             d="m 527.29687,29.59375 0,-4.390625 -41.3125,0 q 0.59375,-9.28125 5.59375,-14.140625 5,-4.859375 13.9375,-4.859375 5.17188,0 10.03125,1.265625 4.85938,1.265625 9.65625,3.8125 l 0,-8.5 q -4.84375,-2.046875 -9.92187,-3.125 -5.07813,-1.078125 -10.29688,-1.078125 -13.09375,0 -20.73437,7.609375 -7.64063,7.625 -7.64063,20.625 0,13.421875 7.25,21.296875 Q 491.10937,56 503.42187,56 q 11.03125,0 17.45313,-7.109375 6.42187,-7.09375 6.42187,-19.296875 m -8.98437,2.640625 q -0.0937,7.359375 -4.125,11.75 -4.03125,4.40625 -10.67188,4.40625 -7.51562,0 -12.03125,-4.25 -4.51562,-4.25 -5.20312,-11.96875 z"
             id="use496"
             inkscape:connector-curvature="0"
             style="stroke-linecap:butt;stroke-linejoin:round" />
          <use
             height="100%"
             width="100%"
             y="0"
             style="stroke-linecap:butt;stroke-linejoin:round"
             id="use498"
             xlink:href="#DejaVuSans-6e"
             x="532.61719" />
          <path
             d="m 614.30859,70.21875 0,-15.53125 18.5,0 0,-6.984375 -18.5,0 0,-29.6875 q 0,-6.6875 1.82813,-8.59375 1.82812,-1.90625 7.45312,-1.90625 l 9.21875,0 0,-7.515625 -9.21875,0 q -10.40625,0 -14.35937,3.875 -3.95313,3.890625 -3.95313,14.140625 l 0,29.6875 -6.59375,0 0,6.984375 6.59375,0 0,15.53125 z"
             id="use500"
             inkscape:connector-curvature="0"
             style="stroke-linecap:butt;stroke-linejoin:round" />
          <path
             id="use502"
             d=""
             inkscape:connector-curvature="0"
             style="stroke-linecap:butt;stroke-linejoin:round" />
          <path
             d="m 676.41406,54.6875 8.98438,0 0,-54.6875 -8.98438,0 z m 0,21.296875 8.98438,0 0,-11.390625 -8.98438,0 z"
             id="use504"
             inkscape:connector-curvature="0"
             style="stroke-linecap:butt;stroke-linejoin:round" />
          <use
             height="100%"
             width="100%"
             y="0"
             style="stroke-linecap:butt;stroke-linejoin:round"
             id="use506"
             xlink:href="#DejaVuSans-6e"
             x="694.77539" />
          <path
             id="use508"
             d=""
             inkscape:connector-curvature="0"
             style="stroke-linecap:butt;stroke-linejoin:round" />
          <use
             height="100%"
             width="100%"
             y="0"
             style="stroke-linecap:butt;stroke-linejoin:round"
             id="use510"
             xlink:href="#DejaVuSans-35"
             x="789.94141" />
          <path
             id="use512"
             d=""
             inkscape:connector-curvature="0"
             style="stroke-linecap:butt;stroke-linejoin:round" />
          <use
             height="100%"
             width="100%"
             y="0"
             style="stroke-linecap:butt;stroke-linejoin:round"
             id="use514"
             xlink:href="#DejaVuSans-4e"
             x="885.35156" />
          <path
             d="m 1016.3594,29.59375 0,-4.390625 -41.31253,0 q 0.59375,-9.28125 5.59375,-14.140625 5,-4.859375 13.9375,-4.859375 5.17188,0 10.03128,1.265625 4.8593,1.265625 9.6562,3.8125 l 0,-8.5 q -4.8437,-2.046875 -9.9219,-3.125 -5.07808,-1.078125 -10.29683,-1.078125 -13.09375,0 -20.73437,7.609375 -7.64063,7.625 -7.64063,20.625 0,13.421875 7.25,21.296875 Q 980.17187,56 992.48437,56 q 11.03123,0 17.45313,-7.109375 6.4219,-7.09375 6.4219,-19.296875 m -8.9844,2.640625 q -0.094,7.359375 -4.125,11.75 -4.03125,4.40625 -10.67188,4.40625 -7.51562,0 -12.03125,-4.25 -4.51562,-4.25 -5.20312,-11.96875 z"
             id="use516"
             inkscape:connector-curvature="0"
             style="stroke-linecap:butt;stroke-linejoin:round" />
          <path
             d="m 1039.9922,70.21875 0,-15.53125 18.5,0 0,-6.984375 -18.5,0 0,-29.6875 q 0,-6.6875 1.8281,-8.59375 1.8281,-1.90625 7.4531,-1.90625 l 9.2188,0 0,-7.515625 -9.2188,0 q -10.4062,0 -14.3593,3.875 -3.9532,3.890625 -3.9532,14.140625 l 0,29.6875 -6.5937,0 0,6.984375 6.5937,0 0,15.53125 z"
             id="use518"
             inkscape:connector-curvature="0"
             style="stroke-linecap:butt;stroke-linejoin:round" />
          <use
             height="100%"
             width="100%"
             y="0"
             style="stroke-linecap:butt;stroke-linejoin:round"
             id="use520"
             xlink:href="#DejaVuSans-77"
             x="1060.8887" />
          <path
             d="m 1173.2852,48.390625 q -7.2188,0 -11.4219,-5.640625 -4.2031,-5.640625 -4.2031,-15.453125 0,-9.8125 4.1718,-15.453125 4.1875,-5.640625 11.4532,-5.640625 7.1875,0 11.375,5.65625 4.2031,5.671875 4.2031,15.4375 0,9.71875 -4.2031,15.40625 -4.1875,5.6875 -11.375,5.6875 m 0,7.609375 q 11.7187,0 18.4062,-7.625 6.7031,-7.609375 6.7031,-21.078125 0,-13.421875 -6.7031,-21.078125 -6.6875,-7.640625 -18.4062,-7.640625 -11.7657,0 -18.4375,7.640625 -6.6563,7.65625 -6.6563,21.078125 0,13.46875 6.6563,21.078125 6.6718,7.625 18.4375,7.625"
             id="use522"
             inkscape:connector-curvature="0"
             style="stroke-linecap:butt;stroke-linejoin:round" />
          <path
             d="m 1244.9668,46.296875 q -1.5156,0.875 -3.2969,1.28125 Q 1239.8887,48 1237.748,48 q -7.625,0 -11.7031,-4.953125 -4.0781,-4.953125 -4.0781,-14.234375 l 0,-28.8125 -9.0313,0 0,54.6875 9.0313,0 0,-8.5 q 2.8437,4.984375 7.375,7.390625 Q 1233.8887,56 1240.3887,56 q 0.9218,0 2.0468,-0.125 1.125,-0.109375 2.4844,-0.359375 z"
             id="use524"
             inkscape:connector-curvature="0"
             style="stroke-linecap:butt;stroke-linejoin:round" />
          <use
             height="100%"
             width="100%"
             y="0"
             style="stroke-linecap:butt;stroke-linejoin:round"
             id="use526"
             xlink:href="#DejaVuSans-6b"
             x="1244.9707" />
          <path
             id="use528"
             d=""
             inkscape:connector-curvature="0"
             style="stroke-linecap:butt;stroke-linejoin:round" />
          <use
             height="100%"
             width="100%"
             y="0"
             style="stroke-linecap:butt;stroke-linejoin:round"
             id="use530"
             xlink:href="#DejaVuSans-53"
             x="1334.668" />
          <use
             height="100%"
             width="100%"
             y="0"
             style="stroke-linecap:butt;stroke-linejoin:round"
             id="use532"
             xlink:href="#DejaVuSans-79"
             x="1398.1445" />
          <path
             d="m 1501.6055,53.078125 0,-8.5 q -3.7969,1.953125 -7.9063,2.921875 -4.0937,0.984375 -8.5,0.984375 -6.6875,0 -10.0312,-2.046875 -3.3438,-2.046875 -3.3438,-6.15625 0,-3.125 2.3906,-4.90625 2.3907,-1.78125 9.625,-3.390625 l 3.0782,-0.6875 q 9.5625,-2.046875 13.5937,-5.78125 4.0313,-3.734375 4.0313,-10.421875 0,-7.625 -6.0313,-12.078125 -6.0312,-4.4375 -16.5781,-4.4375 -4.3906,0 -9.1563,0.859375 -4.7656,0.859375 -10.0312,2.5625 l 0,9.28125 q 4.9844,-2.59375 9.8125,-3.890625 4.8281,-1.28125 9.5781,-1.28125 6.3438,0 9.75,2.171875 3.4219,2.171875 3.4219,6.125 0,3.65625 -2.4688,5.609375 -2.4531,1.953125 -10.8125,3.765625 l -3.125,0.734375 q -8.3437,1.75 -12.0625,5.390625 -3.7031,3.640625 -3.7031,9.984375 0,7.71875 5.4688,11.90625 Q 1474.0742,56 1484.1367,56 q 4.9688,0 9.3594,-0.734375 4.4062,-0.71875 8.1094,-2.1875"
             id="use534"
             inkscape:connector-curvature="0"
             style="stroke-linecap:butt;stroke-linejoin:round" />
          <path
             d="m 1527.7363,70.21875 0,-15.53125 18.5,0 0,-6.984375 -18.5,0 0,-29.6875 q 0,-6.6875 1.8282,-8.59375 1.8281,-1.90625 7.4531,-1.90625 l 9.2187,0 0,-7.515625 -9.2187,0 q -10.4063,0 -14.3594,3.875 -3.9531,3.890625 -3.9531,14.140625 l 0,29.6875 -6.5938,0 0,6.984375 6.5938,0 0,15.53125 z"
             id="use536"
             inkscape:connector-curvature="0"
             style="stroke-linecap:butt;stroke-linejoin:round" />
          <path
             d="m 1604.8359,29.59375 0,-4.390625 -41.3125,0 q 0.5938,-9.28125 5.5938,-14.140625 5,-4.859375 13.9375,-4.859375 5.1719,0 10.0312,1.265625 4.8594,1.265625 9.6563,3.8125 l 0,-8.5 q -4.8438,-2.046875 -9.9219,-3.125 -5.0781,-1.078125 -10.2969,-1.078125 -13.0937,0 -20.7343,7.609375 -7.6407,7.625 -7.6407,20.625 0,13.421875 7.25,21.296875 Q 1568.6484,56 1580.9609,56 q 11.0313,0 17.4532,-7.109375 6.4218,-7.09375 6.4218,-19.296875 m -8.9843,2.640625 q -0.094,7.359375 -4.125,11.75 -4.0313,4.40625 -10.6719,4.40625 -7.5156,0 -12.0313,-4.25 -4.5156,-4.25 -5.2031,-11.96875 z"
             id="use538"
             inkscape:connector-curvature="0"
             style="stroke-linecap:butt;stroke-linejoin:round" />
          <path
             d="m 1662.1563,44.1875 q 3.375,6.0625 8.0625,8.9375 4.6875,2.875 11.0312,2.875 8.5469,0 13.1875,-5.984375 4.6406,-5.96875 4.6406,-17 l 0,-33.015625 -9.0312,0 0,32.71875 q 0,7.859375 -2.7969,11.65625 -2.7812,3.8125 -8.4844,3.8125 -6.9843,0 -11.0468,-4.640625 -4.0469,-4.625 -4.0469,-12.640625 l 0,-30.90625 -9.0313,0 0,32.71875 q 0,7.90625 -2.7812,11.6875 -2.7813,3.78125 -8.5938,3.78125 -6.8906,0 -10.9531,-4.65625 -4.0469,-4.65625 -4.0469,-12.625 l 0,-30.90625 -9.0312,0 0,54.6875 9.0312,0 0,-8.5 q 3.0782,5.03125 7.375,7.421875 Q 1639.9375,56 1645.8438,56 q 5.9687,0 10.1406,-3.03125 4.1719,-3.015625 6.1719,-8.78125"
             id="use540"
             inkscape:connector-curvature="0"
             style="stroke-linecap:butt;stroke-linejoin:round" />
        </g>
      </g>
    </g>
    <g
       id="line2d_43"
       style="stroke-linecap:butt;stroke-linejoin:round" />
    <g
       id="line2d_45"
       style="stroke-linecap:butt;stroke-linejoin:round" />
    <g
       id="line2d_47"
       style="stroke-linecap:butt;stroke-linejoin:round" />
    <g
       id="line2d_49"
       style="stroke-linecap:butt;stroke-linejoin:round" />
    <text
       xml:space="preserve"
       style="font-style:normal;font-weight:normal;font-size:32.00000381px;line-height:125%;font-family:sans-serif;letter-spacing:0px;word-spacing:0px;fill:#000000;fill-opacity:1;stroke:none;stroke-width:1px;stroke-linecap:butt;stroke-linejoin:miter;stroke-opacity:1"
       x="79.344704"
       y="109.35718"
       id="text4161"
       sodipodi:linespacing="125%"><tspan
         sodipodi:role="line"
         id="tspan4163"
         style="font-style:normal;font-variant:normal;font-weight:normal;font-stretch:normal;font-size:10.00000095px;font-family:FreeSerif;-inkscape-font-specification:FreeSerif;stroke-linecap:butt;stroke-linejoin:round"
         x="79.344704"
         y="109.35718">Uniform Coverage</tspan></text>
    <text
       xml:space="preserve"
       style="font-style:normal;font-weight:normal;font-size:32.00000381px;line-height:125%;font-family:sans-serif;letter-spacing:0px;word-spacing:0px;fill:#000000;fill-opacity:1;stroke:none;stroke-width:1px;stroke-linecap:butt;stroke-linejoin:miter;stroke-opacity:1"
       x="72.809898"
       y="-30.178917"
       id="text3670"
       sodipodi:linespacing="125%"><tspan
         sodipodi:role="line"
         id="tspan3672"
         style="stroke-linecap:butt;stroke-linejoin:round"
         x="72.809898"
         y="-30.178917" /></text>
    <text
       xml:space="preserve"
       style="font-style:normal;font-weight:normal;font-size:32.00000381px;line-height:125%;font-family:sans-serif;letter-spacing:0px;word-spacing:0px;fill:#000000;fill-opacity:1;stroke:none;stroke-width:1px;stroke-linecap:butt;stroke-linejoin:miter;stroke-opacity:1"
       x="105.83865"
       y="233.02829"
       id="text3674"
       sodipodi:linespacing="125%"><tspan
         sodipodi:role="line"
         style="font-style:normal;font-variant:normal;font-weight:normal;font-stretch:normal;font-size:8.00000038px;font-family:FreeSerif;-inkscape-font-specification:FreeSerif;stroke-linecap:butt;stroke-linejoin:round"
         x="105.83865"
         y="233.02829"
         id="tspan3678">Time (s)</tspan></text>
    <text
       xml:space="preserve"
       style="font-style:normal;font-weight:normal;font-size:32.00000381px;line-height:125%;font-family:sans-serif;letter-spacing:0px;word-spacing:0px;fill:#000000;fill-opacity:1;stroke:none;stroke-width:1px;stroke-linecap:butt;stroke-linejoin:miter;stroke-opacity:1"
       x="-194.97189"
       y="13.048649"
       id="text3682"
       sodipodi:linespacing="125%"
       transform="matrix(0,-1,1,0,0,0)"><tspan
         sodipodi:role="line"
         id="tspan3684"
         style="font-style:normal;font-variant:normal;font-weight:normal;font-stretch:normal;font-size:8px;font-family:FreeSerif;-inkscape-font-specification:FreeSerif;stroke-linecap:butt;stroke-linejoin:round"
         x="-194.97189"
         y="13.048649">Ergodic Metric</tspan></text>
  </g>
  <defs
     id="defs826">
    <clipPath
       id="p5e06e8ea07"
       style="stroke-linecap:butt;stroke-linejoin:round">
      <rect
         height="185.1696"
         width="360.46799"
         x="58.139999"
         y="28.857599"
         id="rect829"
         style="stroke-linecap:butt;stroke-linejoin:round" />
    </clipPath>
  </defs>
</svg>
